<svg xmlns="http://www.w3.org/2000/svg" width="60" height="61" viewBox="0 0 60 61" fill="none"><g clip-path="url(#clip0)"><path d="M34.9077 19.2294L38.8848 15.2528L40.2104 16.5785L36.2334 20.5556L34.9077 19.2294Z" fill="#C31130"></path><path d="M38.6416 23.6281L44.0757 22.1719L44.561 23.9833L39.1268 25.439L38.6416 23.6281Z" fill="#C31130"></path><path d="M30.0237 16.3359L31.4798 10.9027L33.2907 11.3879L31.8351 16.8211L30.0237 16.3359Z" fill="#C31130"></path><path d="M15 7.39487H16.875V18.6449H15V7.39487Z" fill="#C31130"></path><path d="M18.75 7.39487H20.625V14.8949H18.75V7.39487Z" fill="#C31130"></path><path d="M22.5 7.39487H24.375V11.1449H22.5V7.39487Z" fill="#C31130"></path><path d="M43.125 35.5199H45V46.7699H43.125V35.5199Z" fill="#C31130"></path><path d="M39.375 39.2699H41.25V46.7699H39.375V39.2699Z" fill="#C31130"></path><path d="M35.625 43.0199H37.5V46.7699H35.625V43.0199Z" fill="#C31130"></path><path d="M58.125 52.3949V25.2074C58.1218 22.6196 56.0252 20.5226 53.4375 20.5199H49.6875V2.68768L46.0716 0.15625L43.3932 2.03125L40.7158 0.15625L38.036 2.03125L35.3586 0.15625L32.6802 2.03125L30 0.15625L27.3225 2.03125L24.6432 0.15625L21.9649 2.03125L19.2851 0.15625L16.6068 2.03125L13.9265 0.15625L10.3125 2.68768V20.5199H6.5625C3.97476 20.5226 1.8782 22.6196 1.875 25.2074V52.3949H0V55.2074C0.00320435 57.7946 2.09976 59.8917 4.6875 59.8949H55.3125C57.9002 59.8917 59.9968 57.7946 60 55.2074V52.3949H58.125ZM49.6875 28.0199H51.5625V48.6449H49.6875V28.0199ZM12.1875 3.66455L13.9284 2.44553L16.6086 4.32053L19.2874 2.44553L21.9667 4.32053L24.6451 2.44553L27.3244 4.32053L30.0018 2.44553L32.6802 4.32053L35.3586 2.44553L38.036 4.32053L40.7158 2.44553L43.3932 4.32053L46.0716 2.44553L47.8125 3.66455V48.6449H12.1875V3.66455ZM3.75 25.2074C3.75 23.6537 5.00931 22.3949 6.5625 22.3949H10.3125V26.1449H6.5625V50.5199H53.4375V26.1449H49.6875V22.3949H53.4375C54.9907 22.3949 56.25 23.6537 56.25 25.2074V52.3949H33.75V53.3324C33.75 53.8501 33.3302 54.2699 32.8125 54.2699H27.1875C26.6698 54.2699 26.25 53.8501 26.25 53.3324V52.3949H3.75V25.2074ZM10.3125 28.0199V48.6449H8.4375V28.0199H10.3125ZM58.125 55.2074C58.125 56.7606 56.8657 58.0199 55.3125 58.0199H4.6875C3.13431 58.0199 1.875 56.7606 1.875 55.2074V54.2699H24.5352C24.9339 55.3928 25.9959 56.143 27.1875 56.1449H32.8125C34.0041 56.143 35.0661 55.3928 35.4648 54.2699H58.125V55.2074Z" fill="#C31130"></path><path d="M39.241 28.8635L26.5953 16.2215L22.8329 26.0002L20.9859 27.8473L16.3464 32.4886L22.9744 39.117L24.3001 37.7913L27.6152 41.1055C28.7134 42.2041 30.4941 42.2046 31.5932 41.1064C32.6918 40.0082 32.6923 38.2271 31.5941 37.1284L28.2799 33.8142L29.4659 32.6286L39.241 28.8635ZM22.9744 36.4656L18.9978 32.4886L21.6487 29.8367L25.6267 33.8142L22.9744 36.4656ZM30.2666 38.4541C30.5101 38.6894 30.6081 39.0382 30.522 39.366C30.4364 39.6938 30.1801 39.9496 29.8523 40.0352C29.5245 40.1213 29.1762 40.0233 28.9409 39.7798L25.6258 36.4656L26.9524 35.1445L30.2666 38.4541ZM26.9524 32.4876L22.9744 28.5101L24.4406 27.0439L27.3094 19.5869L35.8765 28.1535L28.4177 31.0196L26.9524 32.4876Z" fill="#C31130"></path><path d="M15.0195 36.4656L16.3452 35.1399L20.3232 39.117L18.9975 40.4427L15.0195 36.4656Z" fill="#C31130"></path></g><defs><clipPath id="clip0"><rect width="60" height="60" fill="white" transform="translate(0 0.0390625)"></rect></clipPath></defs></svg>