<svg xmlns="http://www.w3.org/2000/svg" width="60" height="61" viewBox="0 0 60 61" fill="none"><g clip-path="url(#clip0)"><path d="M5 26.0391C5.55229 26.0391 6 25.5914 6 25.0391C6 24.4868 5.55229 24.0391 5 24.0391C4.44772 24.0391 4 24.4868 4 25.0391C4 25.5914 4.44772 26.0391 5 26.0391Z" fill="#C31130"></path><path d="M5 34.0391C5.55229 34.0391 6 33.5913 6 33.0391C6 32.4868 5.55229 32.0391 5 32.0391C4.44772 32.0391 4 32.4868 4 33.0391C4 33.5913 4.44772 34.0391 5 34.0391Z" fill="#C31130"></path><path d="M5 42.0391C5.55229 42.0391 6 41.5913 6 41.0391C6 40.4868 5.55229 40.0391 5 40.0391C4.44772 40.0391 4 40.4868 4 41.0391C4 41.5913 4.44772 42.0391 5 42.0391Z" fill="#C31130"></path><path d="M57 4.03906H49C48.4477 4.03906 48 3.59135 48 3.03906C48 1.38221 46.6569 0.0390625 45 0.0390625H39C37.3431 0.0390625 36 1.38221 36 3.03906V10.0391H33C31.3431 10.0391 30 11.3822 30 13.0391V29.0391H26V18.0391C25.9938 17.9763 25.9814 17.9144 25.963 17.8541C25.9814 17.7499 25.9938 17.6447 26 17.5391C26 13.9671 19.3 12.0391 13 12.0391C6.7 12.0391 0 13.9671 0 17.5391C0.00622964 17.6447 0.0185837 17.7499 0.037 17.8541C0.0186412 17.9144 0.00624841 17.9763 0 18.0391V42.0391C0 45.3221 6.54 47.0391 13 47.0391C19.46 47.0391 26 45.3221 26 42.0391V31.0391H30V47.0391C30 48.6959 31.3431 50.0391 33 50.0391H36V57.0391C36 58.6959 37.3431 60.0391 39 60.0391H57C58.6569 60.0391 60 58.6959 60 57.0391V49.0391C60 47.3822 58.6569 46.0391 57 46.0391H49C48.4477 46.0391 48 45.5913 48 45.0391C48 43.3822 46.6569 42.0391 45 42.0391H39C37.3431 42.0391 36 43.3822 36 45.0391V48.0391H33C32.4477 48.0391 32 47.5913 32 47.0391V31.0391H36V36.0391C36 37.6959 37.3431 39.0391 39 39.0391H57C58.6569 39.0391 60 37.6959 60 36.0391V28.0391C60 26.3822 58.6569 25.0391 57 25.0391H49C48.4477 25.0391 48 24.5913 48 24.0391C48 22.3822 46.6569 21.0391 45 21.0391H39C37.3431 21.0391 36 22.3822 36 24.0391V29.0391H32V13.0391C32 12.4868 32.4477 12.0391 33 12.0391H36V15.0391C36 16.6959 37.3431 18.0391 39 18.0391H57C58.6569 18.0391 60 16.6959 60 15.0391V7.03906C60 5.38221 58.6569 4.03906 57 4.03906ZM24 26.0391C24 27.0571 20.117 29.0391 13 29.0391C5.883 29.0391 2 27.0571 2 26.0391V20.5601C4.455 22.1821 8.809 23.0391 13 23.0391C17.191 23.0391 21.545 22.1821 24 20.5601V26.0391ZM2 28.8221C4.426 30.2821 8.725 31.0391 13 31.0391C17.275 31.0391 21.574 30.2821 24 28.8221V34.0391C24 35.0571 20.117 37.0391 13 37.0391C5.883 37.0391 2 35.0571 2 34.0391V28.8221ZM13 14.0391C19.715 14.0391 24 16.1121 24 17.5391C24 18.9661 19.715 21.0391 13 21.0391C6.285 21.0391 2 18.9661 2 17.5391C2 16.1121 6.285 14.0391 13 14.0391ZM13 45.0391C5.883 45.0391 2 43.0571 2 42.0391V36.8221C4.426 38.2821 8.725 39.0391 13 39.0391C17.275 39.0391 21.574 38.2821 24 36.8221V42.0391C24 43.0571 20.117 45.0391 13 45.0391ZM38 45.0391C38 44.4868 38.4477 44.0391 39 44.0391H45C45.5523 44.0391 46 44.4868 46 45.0391C46 46.6959 47.3431 48.0391 49 48.0391H57C57.5523 48.0391 58 48.4868 58 49.0391V57.0391C58 57.5913 57.5523 58.0391 57 58.0391H39C38.4477 58.0391 38 57.5913 38 57.0391V45.0391ZM38 24.0391C38 23.4868 38.4477 23.0391 39 23.0391H45C45.5523 23.0391 46 23.4868 46 24.0391C46 25.6959 47.3431 27.0391 49 27.0391H57C57.5523 27.0391 58 27.4868 58 28.0391V36.0391C58 36.5913 57.5523 37.0391 57 37.0391H39C38.4477 37.0391 38 36.5913 38 36.0391V24.0391ZM58 15.0391C58 15.5913 57.5523 16.0391 57 16.0391H39C38.4477 16.0391 38 15.5913 38 15.0391V3.03906C38 2.48678 38.4477 2.03906 39 2.03906H45C45.5523 2.03906 46 2.48678 46 3.03906C46 4.69592 47.3431 6.03906 49 6.03906H57C57.5523 6.03906 58 6.48678 58 7.03906V15.0391Z" fill="#C31130"></path><path d="M41 14.0391C41.5523 14.0391 42 13.5913 42 13.0391C42 12.4868 41.5523 12.0391 41 12.0391C40.4477 12.0391 40 12.4868 40 13.0391C40 13.5913 40.4477 14.0391 41 14.0391Z" fill="#C31130"></path><path d="M41 10.0391C41.5523 10.0391 42 9.59135 42 9.03906C42 8.48678 41.5523 8.03906 41 8.03906C40.4477 8.03906 40 8.48678 40 9.03906C40 9.59135 40.4477 10.0391 41 10.0391Z" fill="#C31130"></path><path d="M41 35.0391C41.5523 35.0391 42 34.5913 42 34.0391C42 33.4868 41.5523 33.0391 41 33.0391C40.4477 33.0391 40 33.4868 40 34.0391C40 34.5913 40.4477 35.0391 41 35.0391Z" fill="#C31130"></path><path d="M41 31.0391C41.5523 31.0391 42 30.5913 42 30.0391C42 29.4868 41.5523 29.0391 41 29.0391C40.4477 29.0391 40 29.4868 40 30.0391C40 30.5913 40.4477 31.0391 41 31.0391Z" fill="#C31130"></path><path d="M41 56.0391C41.5523 56.0391 42 55.5913 42 55.0391C42 54.4868 41.5523 54.0391 41 54.0391C40.4477 54.0391 40 54.4868 40 55.0391C40 55.5913 40.4477 56.0391 41 56.0391Z" fill="#C31130"></path><path d="M41 52.0391C41.5523 52.0391 42 51.5913 42 51.0391C42 50.4868 41.5523 50.0391 41 50.0391C40.4477 50.0391 40 50.4868 40 51.0391C40 51.5913 40.4477 52.0391 41 52.0391Z" fill="#C31130"></path></g><defs><clipPath id="clip0"><rect width="60" height="60" fill="white" transform="translate(0 0.0390625)"></rect></clipPath></defs></svg>