<svg xmlns="http://www.w3.org/2000/svg" width="124" height="102" viewBox="0 0 124 102" fill="none"><g clip-path="url(#clip0)"><path d="M48.5533 71.6417L45.7444 96.8428H78.343L74.0948 71.6417H48.5533Z" fill="#0B0B0E"></path><path d="M85.365 102H37.6579C36.3581 102 35.3899 101.075 35.6428 100.089L36.2535 97.6631C36.4366 96.9388 37.2392 96.3978 38.19 96.3716L84.1786 94.9405C85.173 94.9056 86.0541 95.4379 86.2722 96.1971L87.38 100.054C87.6591 101.049 86.6822 102 85.365 102Z" fill="#0B0B0E"></path><path d="M0 7.20752V71.877C0 77.2 4.23947 81.5456 9.55188 81.6852C33.1655 82.2961 93.9835 83.7708 116.463 83.4392C120.328 83.3781 123.459 80.289 123.564 76.4234C124 61.3969 124.698 25.2707 122.098 8.49899C121.549 4.96489 118.565 2.3296 114.998 2.20743C95.2135 1.58787 29.4407 -0.427868 6.96982 0.0782492C3.09673 0.165511 0 3.3331 0 7.20752Z" fill="#0B0B0E"></path><path d="M4.05634 6.89368V68.3345C4.05634 71.441 6.55116 73.9716 9.65662 74.0153L113.236 75.5685C116.315 75.6121 118.836 73.1339 118.845 70.0536L119.054 9.16248C119.063 6.96349 117.309 5.15718 115.111 5.10482L8.54877 2.51316C6.08011 2.45207 4.05634 4.43291 4.05634 6.89368Z" fill="#C31130"></path><path d="M27.1291 52.4529C26.9459 52.4529 26.7715 52.3308 26.7191 52.1475C26.6581 51.9294 26.5883 51.7025 26.5272 51.4844C26.4662 51.2575 26.597 51.0219 26.8238 50.9608C27.0506 50.8997 27.2861 51.0306 27.3472 51.2575C27.4083 51.4756 27.4693 51.6938 27.5304 51.9032C27.6002 52.1301 27.4693 52.3657 27.2425 52.4355C27.2076 52.4442 27.1727 52.4529 27.1291 52.4529Z" fill="white"></path><path d="M26.4313 49.6431C26.2307 49.6431 26.0562 49.5035 26.0126 49.3028C25.9167 48.8577 25.8294 48.3952 25.7596 47.9502C25.7247 47.7146 25.873 47.4965 26.1086 47.4616C26.3441 47.4266 26.5622 47.575 26.5971 47.8106C26.6668 48.2469 26.7541 48.6919 26.85 49.1282C26.8936 49.3551 26.7541 49.582 26.5185 49.6344C26.4837 49.6431 26.4575 49.6431 26.4313 49.6431ZM25.873 46.1177C25.655 46.1177 25.4718 45.9519 25.4543 45.7338C25.402 45.28 25.3671 44.8175 25.3322 44.3638C25.3148 44.1282 25.4892 43.9275 25.7247 43.91C25.9603 43.8926 26.1609 44.0671 26.1783 44.3027C26.2132 44.7477 26.2481 45.2015 26.2917 45.6465C26.3179 45.8821 26.1435 46.0915 25.9167 46.1177C25.9079 46.1177 25.8905 46.1177 25.873 46.1177ZM25.6724 42.5575C25.4369 42.5575 25.245 42.3655 25.245 42.1386C25.245 42.0426 25.245 41.9553 25.245 41.8594C25.245 41.4929 25.2537 41.1264 25.2624 40.7599C25.2711 40.5243 25.463 40.341 25.6986 40.3497C25.9341 40.3585 26.1173 40.5504 26.1086 40.786C26.0998 41.1438 26.0911 41.5016 26.0911 41.8594C26.0911 41.9466 26.0911 42.0426 26.0911 42.1299C26.0998 42.3567 25.9079 42.5487 25.6724 42.5575ZM25.8207 38.9885C25.812 38.9885 25.7945 38.9885 25.7858 38.9885C25.5503 38.971 25.3758 38.7616 25.402 38.526C25.4456 38.0722 25.4892 37.6097 25.5503 37.156C25.5764 36.9204 25.7945 36.7546 26.0301 36.7895C26.2656 36.8156 26.4313 37.0338 26.3964 37.2694C26.3441 37.7144 26.2917 38.1595 26.2481 38.6045C26.222 38.8227 26.0388 38.9885 25.8207 38.9885ZM26.3092 35.4456C26.283 35.4456 26.2569 35.4456 26.2307 35.4369C25.9952 35.3933 25.8469 35.1664 25.8905 34.9395C25.9777 34.4945 26.0737 34.0407 26.1696 33.5957C26.222 33.3688 26.4488 33.2205 26.6756 33.2728C26.9024 33.3252 27.0507 33.5521 26.9983 33.7789C26.9024 34.2152 26.8064 34.6603 26.7279 35.0966C26.693 35.306 26.5098 35.4456 26.3092 35.4456ZM27.1466 31.9814C27.103 31.9814 27.0681 31.9726 27.0245 31.9639C26.7977 31.8941 26.6668 31.6585 26.7366 31.4316C26.8675 30.9953 27.007 30.5503 27.1466 30.1227C27.2251 29.8958 27.4607 29.7824 27.6875 29.8522C27.9143 29.9307 28.0277 30.1663 27.9579 30.3932C27.8183 30.812 27.6787 31.2484 27.5566 31.6759C27.5043 31.8592 27.3298 31.9814 27.1466 31.9814ZM28.3242 28.6043C28.2719 28.6043 28.2196 28.5956 28.1672 28.5694C27.9492 28.4822 27.8445 28.2291 27.9317 28.011C28.1062 27.5834 28.2894 27.1558 28.4725 26.7457C28.5685 26.5275 28.8215 26.4315 29.0395 26.5362C29.2576 26.6322 29.3536 26.8853 29.2489 27.1034C29.0657 27.5136 28.8913 27.9237 28.7168 28.3425C28.647 28.5083 28.49 28.6043 28.3242 28.6043ZM29.8246 25.3669C29.7548 25.3669 29.6938 25.3495 29.624 25.3146C29.4146 25.2011 29.3361 24.9481 29.4495 24.7386C29.6589 24.3372 29.8857 23.9271 30.1125 23.5344C30.2259 23.3337 30.4876 23.2639 30.697 23.3774C30.8976 23.4908 30.9674 23.7526 30.854 23.962C30.6272 24.346 30.4091 24.7474 30.2085 25.1401C30.1299 25.2797 29.9817 25.3669 29.8246 25.3669ZM31.6478 22.2866C31.5693 22.2866 31.482 22.2604 31.4123 22.2168C31.2116 22.0859 31.1593 21.8241 31.2901 21.6234C31.5431 21.2395 31.8048 20.8642 32.0665 20.489C32.2061 20.297 32.4678 20.2534 32.6597 20.393C32.8516 20.5326 32.8952 20.7944 32.7556 20.9864C32.4939 21.3529 32.241 21.7194 31.9967 22.0946C31.9182 22.2168 31.7873 22.2866 31.6478 22.2866ZM33.7588 19.407C33.6628 19.407 33.5669 19.3721 33.4884 19.311C33.3052 19.1626 33.279 18.8921 33.4273 18.7089C33.7152 18.3511 34.0118 18.0021 34.3171 17.653C34.4741 17.4785 34.7445 17.461 34.919 17.6094C35.0934 17.7664 35.1109 18.037 34.9626 18.2115C34.666 18.5518 34.3781 18.8921 34.099 19.2412C34.003 19.3546 33.8809 19.407 33.7588 19.407ZM36.1402 16.7455C36.0355 16.7455 35.9221 16.7019 35.8436 16.6233C35.6779 16.4575 35.6779 16.187 35.8436 16.0212C36.1664 15.6984 36.4979 15.3755 36.8293 15.0613C37.0038 14.9043 37.2742 14.913 37.4312 15.0788C37.5883 15.2533 37.5795 15.5238 37.4138 15.6809C37.091 15.9863 36.7683 16.3005 36.4543 16.6233C36.367 16.7019 36.2536 16.7455 36.1402 16.7455ZM38.7746 14.3371C38.6525 14.3371 38.5304 14.2847 38.4431 14.18C38.2948 13.9968 38.321 13.7262 38.4955 13.5779C38.8444 13.2899 39.2108 12.9932 39.5684 12.7227C39.7516 12.5831 40.022 12.618 40.1616 12.8013C40.3012 12.9845 40.2663 13.255 40.0831 13.3946C39.7342 13.6652 39.3765 13.9444 39.0363 14.2324C38.9665 14.3022 38.8706 14.3371 38.7746 14.3371ZM41.6271 12.1904C41.4875 12.1904 41.3567 12.1206 41.2782 12.0072C41.1473 11.8152 41.1997 11.5447 41.3916 11.4138C41.7667 11.1608 42.1592 10.9077 42.543 10.6634C42.7437 10.5412 43.0054 10.6023 43.1275 10.803C43.2496 11.0037 43.1885 11.2655 42.9879 11.3876C42.6128 11.6232 42.229 11.8676 41.8626 12.1206C41.7928 12.1643 41.7143 12.1904 41.6271 12.1904ZM80.1399 10.8815C80.0702 10.8815 79.9916 10.8641 79.9219 10.8204C79.538 10.5936 79.1455 10.3754 78.7442 10.166C78.5349 10.0525 78.4564 9.79947 78.5698 9.59004C78.6832 9.38062 78.9361 9.30208 79.1455 9.41552C79.5468 9.63367 79.9567 9.85183 80.3493 10.0874C80.5499 10.2096 80.6197 10.4627 80.5063 10.6721C80.4365 10.803 80.2882 10.8815 80.1399 10.8815ZM44.6802 10.3405C44.5319 10.3405 44.3836 10.262 44.3051 10.1136C44.1917 9.90419 44.2702 9.65113 44.4796 9.53769C44.8808 9.31953 45.2908 9.11011 45.7008 8.9094C45.9102 8.80469 46.1632 8.89195 46.2678 9.10138C46.3725 9.31081 46.2853 9.56387 46.0759 9.66858C45.6747 9.86928 45.2734 10.07 44.8808 10.2881C44.8198 10.323 44.75 10.3405 44.6802 10.3405ZM76.9734 9.241C76.9124 9.241 76.8513 9.23227 76.799 9.20609C76.3977 9.02284 75.979 8.83959 75.569 8.6738C75.3509 8.58654 75.2462 8.33348 75.3335 8.11532C75.4207 7.89717 75.6737 7.79246 75.8917 7.87972C76.3192 8.05424 76.7379 8.23749 77.1566 8.42947C77.3747 8.52545 77.4619 8.77851 77.366 8.99667C77.2875 9.14501 77.1304 9.241 76.9734 9.241ZM47.8903 8.79596C47.7246 8.79596 47.5676 8.69998 47.4978 8.53418C47.4106 8.31603 47.5065 8.07169 47.7246 7.97571C48.1433 7.80118 48.5707 7.62666 48.9982 7.46959C49.2163 7.38233 49.4605 7.49577 49.5477 7.71392C49.635 7.93208 49.5216 8.17641 49.3035 8.26367C48.8848 8.42074 48.4661 8.58654 48.0561 8.76106C48.0037 8.78724 47.9514 8.79596 47.8903 8.79596ZM73.6586 7.92335C73.615 7.92335 73.5627 7.91462 73.519 7.89717C73.1003 7.74883 72.6642 7.61793 72.2367 7.48704C72.0099 7.41723 71.8791 7.18163 71.9489 6.95475C72.0187 6.72787 72.2542 6.6057 72.481 6.66678C72.9171 6.79768 73.362 6.93729 73.7895 7.08564C74.0163 7.16417 74.1297 7.39978 74.0512 7.62666C73.9988 7.80991 73.8331 7.92335 73.6586 7.92335ZM51.24 7.5743C51.0569 7.5743 50.8911 7.46086 50.8301 7.27761C50.7603 7.05073 50.8824 6.81513 51.1092 6.74532C51.5454 6.61443 51.9902 6.48353 52.4351 6.36137C52.6619 6.30028 52.8974 6.4399 52.9585 6.66678C53.0196 6.89366 52.88 7.12927 52.6532 7.19035C52.2258 7.30379 51.7896 7.42596 51.3622 7.56558C51.3273 7.5743 51.2837 7.5743 51.24 7.5743ZM70.2217 6.93729C70.1868 6.93729 70.1606 6.93729 70.1257 6.92857C69.6896 6.82385 69.2534 6.72787 68.8085 6.64933C68.5817 6.6057 68.4247 6.37882 68.4683 6.15194C68.5119 5.92506 68.7387 5.76799 68.9655 5.81162C69.4104 5.89888 69.864 5.99487 70.3089 6.09958C70.5357 6.15194 70.684 6.37882 70.6229 6.61443C70.5968 6.8064 70.4136 6.93729 70.2217 6.93729ZM54.7031 6.69296C54.5025 6.69296 54.328 6.55334 54.2844 6.35264C54.2408 6.12576 54.3891 5.89888 54.6159 5.84652C55.0608 5.75926 55.5231 5.672 55.968 5.60219C56.2035 5.56729 56.4216 5.72436 56.4565 5.95124C56.4914 6.18684 56.3344 6.405 56.1076 6.4399C55.6714 6.50971 55.2265 6.59697 54.7817 6.68423C54.7555 6.69296 54.7293 6.69296 54.7031 6.69296ZM66.715 6.29156C66.6975 6.29156 66.6801 6.29156 66.6626 6.29156C66.2177 6.23047 65.7729 6.17812 65.328 6.14321C65.0925 6.11703 64.918 5.91633 64.9442 5.68073C64.9703 5.44512 65.171 5.2706 65.4065 5.29678C65.8601 5.34041 66.3224 5.39276 66.776 5.45385C67.0116 5.48875 67.1773 5.69818 67.1424 5.93379C67.1075 6.13449 66.9243 6.29156 66.715 6.29156ZM58.2273 6.16067C58.0092 6.16067 57.826 5.99487 57.7999 5.77671C57.7737 5.54111 57.9482 5.33168 58.1837 5.31423C58.6373 5.2706 59.0996 5.22697 59.5532 5.20079C59.7888 5.18334 59.9894 5.36659 60.0068 5.60219C60.0243 5.8378 59.8411 6.0385 59.6056 6.05595C59.1607 6.08213 58.7071 6.12576 58.2622 6.16939C58.2535 6.16067 58.2448 6.16067 58.2273 6.16067ZM63.1559 5.99487C63.1472 5.99487 63.1472 5.99487 63.1385 5.99487C62.7197 5.97742 62.301 5.97742 61.8823 5.97742H61.7864C61.5508 5.97742 61.3589 5.78544 61.3589 5.54983C61.3589 5.31423 61.5508 5.12225 61.7864 5.12225H61.8823C62.3098 5.12225 62.7372 5.13098 63.1646 5.14843C63.4002 5.15716 63.5833 5.35786 63.5746 5.58474C63.5746 5.82035 63.3827 5.99487 63.1559 5.99487Z" fill="white"></path><path d="M82.5912 12.4435C82.5039 12.4435 82.4254 12.4173 82.3469 12.3649C82.1637 12.234 81.9805 12.1119 81.7886 11.9897C81.5967 11.8588 81.5444 11.597 81.6752 11.3963C81.8061 11.2043 82.0678 11.152 82.2684 11.2829C82.4603 11.4138 82.6522 11.5359 82.8354 11.6668C83.0273 11.7977 83.0797 12.0682 82.9401 12.2602C82.8616 12.3824 82.7307 12.4435 82.5912 12.4435Z" fill="white"></path><path d="M97.5776 35.6725C97.377 35.6725 97.1938 35.5329 97.1589 35.3235C97.1153 35.1053 97.0717 34.8784 97.0281 34.6603C96.9844 34.4334 97.1327 34.2065 97.3595 34.1542C97.5863 34.1105 97.8131 34.2589 97.8655 34.4858C97.9091 34.7126 97.9527 34.9395 97.9963 35.1664C98.04 35.402 97.8829 35.6201 97.6561 35.6638C97.63 35.6725 97.6038 35.6725 97.5776 35.6725Z" fill="white"></path><path d="M62.2138 78.5005C61.9782 78.5005 61.7863 78.3085 61.7863 78.0729C61.7863 77.8373 61.9782 77.6453 62.2138 77.6453C62.6499 77.6453 63.0948 77.6278 63.5397 77.6104C63.7752 77.6017 63.9758 77.7849 63.9846 78.0205C63.9933 78.2561 63.8101 78.4568 63.5746 78.4655C63.121 78.4917 62.6586 78.5005 62.2138 78.5005ZM60.033 78.4568C60.0242 78.4568 60.0155 78.4568 60.0068 78.4568C59.7974 78.4481 59.5968 78.4306 59.3874 78.4219C59.1432 78.4045 58.899 78.387 58.6547 78.3608C58.4192 78.3434 58.2447 78.134 58.2709 77.8983C58.2883 77.6627 58.4977 77.4882 58.7332 77.5144C58.9687 77.5318 59.213 77.558 59.4485 77.5668C59.6491 77.5842 59.8498 77.5929 60.0591 77.6017C60.2947 77.6104 60.4778 77.8111 60.4604 78.0467C60.4517 78.2736 60.2598 78.4568 60.033 78.4568ZM65.7205 78.3085C65.5024 78.3085 65.3192 78.1427 65.293 77.9245C65.2669 77.6889 65.4413 77.4795 65.6769 77.4533C66.113 77.4097 66.5579 77.3573 66.9941 77.2962C67.2296 77.2613 67.4389 77.4271 67.4738 77.654C67.5087 77.8896 67.343 78.099 67.1162 78.134C66.6713 78.195 66.2177 78.2561 65.7728 78.2997C65.7466 78.3085 65.7292 78.3085 65.7205 78.3085ZM56.535 78.099C56.5175 78.099 56.4914 78.099 56.4739 78.0903C56.029 78.0205 55.5754 77.9507 55.1393 77.8634C54.9037 77.8198 54.7554 77.6017 54.7991 77.366C54.8427 77.1304 55.0608 76.9821 55.2963 77.0257C55.7237 77.1043 56.1686 77.1828 56.6048 77.2439C56.8403 77.2788 56.9973 77.4969 56.9624 77.7238C56.9275 77.9507 56.7443 78.099 56.535 78.099ZM69.1923 77.7762C68.9917 77.7762 68.8172 77.6366 68.7736 77.4359C68.73 77.209 68.8783 76.9821 69.1051 76.9297C69.5325 76.8425 69.9687 76.7465 70.3961 76.6418C70.6229 76.5894 70.8584 76.729 70.9108 76.9559C70.9631 77.1828 70.8235 77.4184 70.5967 77.4708C70.1606 77.5755 69.7157 77.6802 69.2708 77.7675C69.2446 77.7762 69.2185 77.7762 69.1923 77.7762ZM53.0893 77.4184C53.0544 77.4184 53.0195 77.4184 52.9846 77.4097C52.5485 77.2962 52.1036 77.1828 51.6762 77.0606C51.4494 76.9908 51.3185 76.7552 51.3883 76.5371C51.4581 76.3102 51.6936 76.1793 51.9117 76.2491C52.3304 76.3713 52.7666 76.4847 53.1853 76.5981C53.4121 76.6592 53.5516 76.8861 53.4993 77.113C53.4557 77.2875 53.2812 77.4184 53.0893 77.4184ZM72.5943 76.9036C72.4112 76.9036 72.2454 76.7901 72.1844 76.6069C72.1146 76.38 72.2454 76.1444 72.4635 76.0746C72.8822 75.9437 73.3009 75.8041 73.7196 75.6644C73.9377 75.5859 74.182 75.7081 74.2605 75.9262C74.339 76.1444 74.2169 76.3887 73.9988 76.4673C73.5801 76.6156 73.1439 76.7552 72.7165 76.8861C72.6728 76.9036 72.638 76.9036 72.5943 76.9036ZM49.7222 76.3974C49.6786 76.3974 49.6262 76.3887 49.5826 76.3713C49.1552 76.2229 48.7365 76.0571 48.3177 75.8913C48.0997 75.8041 47.995 75.5597 48.0822 75.3416C48.1694 75.1234 48.4137 75.0187 48.6318 75.106C49.0418 75.2718 49.4605 75.4288 49.8705 75.5772C50.0885 75.6557 50.2107 75.9001 50.1322 76.1182C50.0624 76.2927 49.9054 76.3974 49.7222 76.3974ZM75.8917 75.7081C75.726 75.7081 75.5689 75.6121 75.4992 75.4463C75.4119 75.2281 75.5079 74.9838 75.726 74.8878C76.1272 74.722 76.5372 74.5388 76.9385 74.3555C77.1478 74.2595 77.4095 74.3468 77.5055 74.565C77.6014 74.7744 77.5142 75.0274 77.2961 75.1322C76.8861 75.3241 76.4762 75.5074 76.0574 75.6732C75.9964 75.6994 75.944 75.7081 75.8917 75.7081ZM46.4771 75.0536C46.4161 75.0536 46.355 75.0449 46.294 75.01C45.884 74.818 45.474 74.6173 45.0814 74.4079C44.8721 74.3032 44.7936 74.0414 44.8983 73.832C45.0029 73.6225 45.2646 73.544 45.474 73.6487C45.8665 73.8494 46.2591 74.0501 46.6603 74.2334C46.8697 74.3293 46.9656 74.5911 46.861 74.8006C46.7912 74.9664 46.6342 75.0536 46.4771 75.0536ZM79.0582 74.1985C78.9099 74.1985 78.7616 74.1199 78.6831 73.9716C78.5697 73.7621 78.6482 73.5091 78.8576 73.3956C79.2414 73.1862 79.6339 72.9681 80.009 72.7499C80.2097 72.6278 80.4714 72.6976 80.5935 72.8983C80.7156 73.099 80.6458 73.3607 80.4452 73.4829C80.0614 73.7098 79.6601 73.9367 79.2676 74.1461C79.1978 74.181 79.128 74.1985 79.0582 74.1985ZM43.3717 73.4044C43.2932 73.4044 43.2234 73.3869 43.1536 73.3433C42.7698 73.1164 42.3773 72.8721 42.0022 72.6277C41.8015 72.4969 41.7492 72.2351 41.88 72.0344C42.0109 71.8337 42.2726 71.7813 42.4732 71.9122C42.8396 72.1478 43.2234 72.3834 43.5985 72.6103C43.7991 72.7325 43.8689 72.9942 43.7468 73.1949C43.6596 73.3346 43.52 73.4044 43.3717 73.4044ZM82.0677 72.3921C81.9281 72.3921 81.7973 72.3223 81.7101 72.2002C81.5792 72.0082 81.6316 71.7377 81.8235 71.6068C82.1898 71.3625 82.5562 71.1094 82.9051 70.8476C83.097 70.708 83.3587 70.7516 83.4983 70.9436C83.6379 71.1356 83.5943 71.3974 83.4024 71.537C83.036 71.7988 82.6609 72.0606 82.2945 72.3136C82.2247 72.366 82.1462 72.3921 82.0677 72.3921ZM84.8853 70.2979C84.7632 70.2979 84.6411 70.2455 84.5538 70.1408C84.4055 69.9575 84.4317 69.687 84.6149 69.5387C84.9551 69.2595 85.2953 68.9715 85.6268 68.6835C85.8012 68.5265 86.0717 68.5439 86.2287 68.7184C86.3857 68.893 86.3682 69.1635 86.1938 69.3205C85.8536 69.6172 85.5046 69.9139 85.1644 70.2019C85.0772 70.2717 84.9813 70.2979 84.8853 70.2979ZM87.4935 67.9418C87.3801 67.9418 87.2755 67.8982 87.1882 67.8196C87.0225 67.6538 87.0225 67.3833 87.1882 67.2175C87.5023 66.9034 87.8076 66.5893 88.1129 66.2664C88.2699 66.0919 88.5403 66.0831 88.7148 66.2489C88.8892 66.406 88.898 66.6765 88.7322 66.851C88.4269 67.1826 88.1042 67.5055 87.7901 67.8284C87.7116 67.9069 87.5982 67.9418 87.4935 67.9418ZM89.8662 65.3501C89.7703 65.3501 89.6743 65.3152 89.5958 65.2541C89.4126 65.1058 89.3865 64.8353 89.5435 64.652C89.8226 64.3117 90.1018 63.9627 90.3722 63.6136C90.5117 63.4304 90.7822 63.3955 90.9654 63.5351C91.1485 63.6747 91.1834 63.9452 91.0439 64.1285C90.7734 64.4862 90.4856 64.844 90.1977 65.1931C90.1018 65.2978 89.9884 65.3501 89.8662 65.3501ZM91.9685 62.5316C91.89 62.5316 91.8028 62.5054 91.733 62.4618C91.5411 62.3309 91.4888 62.0691 91.6196 61.8684C91.8638 61.5019 92.1081 61.1267 92.3436 60.7602C92.4657 60.5595 92.7274 60.4984 92.9281 60.6206C93.1287 60.7427 93.1898 61.0045 93.0676 61.2052C92.8321 61.5892 92.5791 61.9731 92.3262 62.3396C92.2389 62.4705 92.1081 62.5316 91.9685 62.5316ZM93.8004 59.5298C93.7306 59.5298 93.6608 59.5123 93.5998 59.4774C93.3904 59.364 93.3206 59.1022 93.4253 58.9015C93.6346 58.5176 93.844 58.1162 94.0359 57.7235C94.1406 57.5141 94.3936 57.4268 94.6029 57.5315C94.8123 57.6362 94.8995 57.8893 94.7948 58.0987C94.5942 58.5001 94.3848 58.9102 94.1668 59.3029C94.097 59.4425 93.9487 59.5298 93.8004 59.5298ZM95.327 56.3535C95.2746 56.3535 95.2135 56.3447 95.1612 56.3186C94.9431 56.2313 94.8472 55.9783 94.9344 55.7601C95.1089 55.3587 95.2746 54.9398 95.4316 54.5297C95.5189 54.3116 95.7631 54.1981 95.9812 54.2854C96.1993 54.3726 96.3127 54.617 96.2254 54.8351C96.0684 55.254 95.894 55.6816 95.7195 56.1004C95.6497 56.2575 95.4927 56.3535 95.327 56.3535ZM96.5307 53.055C96.4871 53.055 96.4435 53.0463 96.3999 53.0375C96.1731 52.9677 96.051 52.7321 96.1208 52.5052C96.2516 52.0864 96.3737 51.6588 96.4871 51.2312C96.5482 51.0043 96.7837 50.8735 97.0105 50.9345C97.2373 50.9956 97.3682 51.2312 97.3071 51.4581C97.1937 51.8944 97.0629 52.3307 96.932 52.7583C96.8797 52.9328 96.7139 53.055 96.5307 53.055ZM97.4118 49.6518C97.3856 49.6518 97.3507 49.6518 97.3246 49.6431C97.0977 49.5994 96.9495 49.3725 96.9931 49.1369C97.0803 48.7094 97.1675 48.2731 97.2373 47.8367C97.2809 47.6011 97.499 47.4528 97.7258 47.4877C97.9613 47.5226 98.1096 47.7495 98.0747 47.9764C97.9962 48.4214 97.9177 48.8664 97.8218 49.3115C97.7869 49.5122 97.6124 49.6518 97.4118 49.6518ZM97.9613 46.1788C97.9439 46.1788 97.9265 46.1788 97.9177 46.1788C97.6822 46.1526 97.5165 45.9432 97.5426 45.7076C97.5862 45.2713 97.6299 44.8262 97.6648 44.3899C97.6822 44.1543 97.8828 43.9798 98.1184 43.9972C98.3539 44.0147 98.5284 44.2154 98.5109 44.451C98.476 44.9048 98.4411 45.3585 98.3888 45.8036C98.3539 46.013 98.1707 46.1788 97.9613 46.1788ZM98.1707 42.6709C97.9265 42.6709 97.7433 42.4789 97.7433 42.2433C97.7433 42.0862 97.7433 41.9379 97.7433 41.7808C97.7433 41.4928 97.7433 41.2049 97.7345 40.9169C97.7258 40.6813 97.9177 40.4893 98.1533 40.4806C98.3975 40.4806 98.5807 40.6639 98.5894 40.8995C98.5981 41.1961 98.5981 41.4841 98.5981 41.7808C98.5981 41.9379 98.5981 42.0949 98.5981 42.252C98.5894 42.4876 98.4062 42.6709 98.1707 42.6709ZM98.0486 39.1542C97.8305 39.1542 97.6473 38.9884 97.6211 38.7615C97.5862 38.3252 97.5426 37.8802 97.4816 37.4439C97.4554 37.2083 97.6211 36.9989 97.8567 36.9727C98.0922 36.9465 98.3015 37.1123 98.3277 37.3479C98.3801 37.7929 98.4324 38.2467 98.4673 38.6917C98.4847 38.9273 98.3103 39.128 98.0747 39.1542C98.066 39.1542 98.0573 39.1542 98.0486 39.1542Z" fill="white"></path><path d="M40.4407 71.4498C40.3535 71.4498 40.2663 71.4236 40.1877 71.3625C40.0046 71.2229 39.8214 71.092 39.6382 70.9524C39.455 70.8128 39.4201 70.5423 39.5597 70.359C39.6993 70.1758 39.9697 70.1409 40.1529 70.2805C40.3273 70.4201 40.5105 70.551 40.6937 70.6819C40.8856 70.8215 40.9205 71.092 40.7809 71.2753C40.6937 71.3887 40.5716 71.4498 40.4407 71.4498Z" fill="white"></path><path d="M42.3511 61.6241C42.4645 61.7637 42.6651 61.8248 42.8396 61.755L47.8118 59.9225C49.7745 61.4321 51.9815 62.6364 54.3891 63.4653L55.6016 68.6225C55.6452 68.8057 55.7935 68.9366 55.9854 68.9541L62.301 69.5911C62.4842 69.6086 62.6586 69.5126 62.7372 69.338L64.9616 64.5299C67.4826 64.1983 69.8989 63.4653 72.1146 62.3746L76.6157 65.1669C76.7728 65.2629 76.9734 65.2542 77.1217 65.132L82.0416 61.118C82.1811 61.0046 82.2422 60.8039 82.1724 60.6293L80.3405 55.6554C81.8496 53.692 83.0534 51.4843 83.8821 49.0759L89.0375 47.863C89.2207 47.8193 89.3516 47.671 89.369 47.479L90.0058 41.1613C90.0233 40.978 89.9273 40.8035 89.7529 40.725L84.9464 38.4998C84.6149 35.978 83.8821 33.5608 82.7917 31.3444L85.5832 26.8417C85.6791 26.6846 85.6704 26.4839 85.5483 26.3356L81.5356 21.414C81.4222 21.2744 81.2216 21.2133 81.0471 21.2831L76.0749 23.1156C74.1122 21.606 71.9052 20.4018 69.4976 19.5728L68.2851 14.4156C68.2415 14.2324 68.0932 14.1015 67.9013 14.084L61.5857 13.447C61.4025 13.4296 61.228 13.5256 61.1495 13.7001L58.9251 18.5082C56.4041 18.8398 53.9878 19.5728 51.7721 20.6636L47.271 17.8712C47.1139 17.7752 46.9133 17.7839 46.765 17.9061L41.8451 21.9201C41.7056 22.0336 41.6445 22.2343 41.7143 22.4088L43.5462 27.3827C42.0371 29.3461 40.8333 31.5538 40.0045 33.9622L34.8491 35.1752C34.666 35.2188 34.5351 35.3671 34.5177 35.5591L33.8809 41.8768C33.8634 42.0601 33.9594 42.2346 34.1338 42.3131L38.9403 44.5383C39.2718 47.0602 40.0045 49.4773 41.0949 51.6938L38.3035 56.1965C38.2076 56.3535 38.2163 56.5542 38.3384 56.7026L42.3511 61.6241Z" fill="white"></path><path d="M61.9346 47.5139C60.661 47.5139 59.4223 47.1038 58.3843 46.3359C57.102 45.3847 56.2646 43.9886 56.0378 42.4091C55.8022 40.8297 56.2035 39.2503 57.1543 37.9675C58.1051 36.6848 59.5009 35.8471 61.0798 35.6202C62.6586 35.3846 64.2375 35.786 65.5198 36.7371C66.8021 37.6883 67.6396 39.0845 67.8664 40.6639C68.3462 43.9275 66.0869 46.9729 62.8244 47.4528C62.5191 47.4877 62.2312 47.5139 61.9346 47.5139ZM61.9608 36.2223C61.6991 36.2223 61.4374 36.2397 61.1757 36.2834C59.7713 36.4928 58.5413 37.2258 57.6952 38.3689C56.849 39.5033 56.5001 40.8995 56.7094 42.3044C56.9188 43.7093 57.6515 44.9397 58.7943 45.7861C59.9283 46.6326 61.324 46.9816 62.7284 46.7722C65.6158 46.3446 67.6221 43.6482 67.1947 40.7512C66.9853 39.3462 66.2526 38.1159 65.1099 37.2694C64.1852 36.5888 63.0861 36.2223 61.9608 36.2223Z" fill="#C31130"></path><path d="M62.0568 56.9382C61.5334 56.9382 61.01 56.912 60.4866 56.8597C59.3875 56.7462 58.2971 56.5193 57.259 56.179C57.1892 56.1528 57.1369 56.0918 57.1369 56.0132C57.1369 55.9958 57.1369 55.9783 57.1456 55.9609C57.1718 55.8736 57.2677 55.8212 57.3637 55.8474C58.3843 56.179 59.4485 56.3972 60.5215 56.5106C68.8347 57.357 76.2843 51.2749 77.1304 42.9589C77.1828 42.4441 77.2089 41.9292 77.2089 41.4144C77.2089 33.7354 71.3731 27.1384 63.5833 26.3443C55.2701 25.5066 47.8205 31.58 46.9744 39.896C46.922 40.4109 46.8959 40.9257 46.8959 41.4318C46.8959 43.6483 47.3844 45.8473 48.3265 47.8543C48.3352 47.8805 48.3439 47.9066 48.3439 47.9241C48.3439 47.9852 48.309 48.0462 48.248 48.0812C48.1607 48.1248 48.0648 48.0811 48.0212 48.0026C47.0529 45.9432 46.5557 43.7006 46.5557 41.4318C46.5557 40.9083 46.5818 40.3847 46.6342 39.8611C47.4978 31.3531 55.1131 25.1401 63.6182 26.004C71.5912 26.8155 77.5491 33.5608 77.5579 41.4144C77.5579 41.9379 77.5317 42.4615 77.4793 42.9938C76.6506 50.9695 69.9076 56.9382 62.0568 56.9382Z" fill="#C31130"></path><path d="M95.5449 25.6374L97.2198 24.8695C97.9438 25.3407 98.7376 25.6985 99.6012 25.9166L100.16 27.6706C100.177 27.7317 100.238 27.7753 100.299 27.7753L102.506 27.8189C102.567 27.8189 102.628 27.784 102.654 27.723L103.291 25.9952C104.155 25.8119 104.975 25.4891 105.716 25.0528L107.356 25.8992C107.417 25.9254 107.487 25.9166 107.531 25.873L109.127 24.3459C109.171 24.3023 109.188 24.2325 109.162 24.1714L108.394 22.496C108.865 21.7717 109.223 20.9776 109.441 20.1137L111.194 19.5553C111.255 19.5378 111.299 19.4767 111.299 19.4157L111.343 17.2079C111.343 17.1469 111.308 17.0858 111.247 17.0596L109.519 16.4226C109.336 15.5587 109.014 14.7384 108.577 13.9967L109.424 12.3562C109.45 12.2951 109.441 12.2253 109.397 12.1817L107.871 10.5848C107.827 10.5412 107.757 10.5237 107.696 10.5499L106.021 11.3178C105.297 10.8466 104.504 10.4888 103.64 10.2706L103.082 8.51669C103.064 8.45561 103.003 8.41198 102.942 8.41198L100.735 8.36835C100.674 8.36835 100.613 8.40325 100.587 8.46433L99.9502 10.1921C99.0866 10.3754 98.2666 10.6982 97.5251 11.1345L95.8851 10.2881C95.8241 10.2619 95.7543 10.2706 95.7107 10.3143L94.1143 11.8414C94.0707 11.885 94.0533 11.9548 94.0794 12.0159L94.8471 13.6913C94.376 14.4156 94.0184 15.2097 93.8003 16.0735L92.0469 16.632C91.9859 16.6495 91.9423 16.7105 91.9423 16.7716L91.8987 18.9793C91.8987 19.0404 91.9335 19.1015 91.9946 19.1277L93.7218 19.7647C93.905 20.6286 94.2277 21.4488 94.6639 22.1906L93.8178 23.8311C93.7916 23.8922 93.8003 23.962 93.8439 24.0056L95.3705 25.6025C95.4228 25.6461 95.4926 25.6636 95.5449 25.6374Z" fill="white"></path><path d="M101.608 20.2272C101.215 20.2272 100.822 20.1138 100.482 19.9044C100.002 19.5989 99.6623 19.1277 99.5402 18.578C99.4093 18.0195 99.5053 17.4523 99.8106 16.9724C100.116 16.4924 100.587 16.1521 101.137 16.0299C102.279 15.7682 103.431 16.4837 103.692 17.6268C103.823 18.1853 103.727 18.7525 103.422 19.2324C103.117 19.7124 102.646 20.0527 102.096 20.1749C101.93 20.2098 101.765 20.2272 101.608 20.2272ZM101.616 16.3092C101.485 16.3092 101.346 16.3266 101.215 16.3528C100.753 16.4575 100.351 16.7455 100.098 17.1469C99.8455 17.5483 99.767 18.0282 99.8717 18.4994C99.9763 18.9707 100.264 19.3633 100.665 19.6164C101.067 19.8695 101.547 19.948 102.018 19.8433C102.48 19.7386 102.881 19.4506 103.134 19.0492C103.387 18.6478 103.466 18.1679 103.361 17.6966C103.169 16.8677 102.428 16.3092 101.616 16.3092Z" fill="#C31130"></path><g opacity="0.64"><path opacity="0.64" d="M91.7068 25.0178C91.5672 25.0178 91.4276 24.948 91.3491 24.8259C91.2182 24.6339 91.0961 24.4245 90.9827 24.2238C90.8693 24.0231 90.9391 23.7613 91.1397 23.6391C91.3404 23.5257 91.6021 23.5955 91.7242 23.7962C91.8376 23.9882 91.951 24.1714 92.0644 24.3547C92.1953 24.5554 92.1342 24.8171 91.9423 24.948C91.8725 24.9917 91.794 25.0178 91.7068 25.0178Z" fill="white"></path><path opacity="0.64" d="M90.4245 22.3826C90.25 22.3826 90.0843 22.2691 90.0232 22.0946C89.8836 21.6845 89.7615 21.2656 89.6656 20.8468L89.6394 20.7159C89.5871 20.489 89.7354 20.2621 89.9622 20.2097C90.189 20.1574 90.4158 20.3057 90.4681 20.5326L90.4943 20.6548C90.5815 21.0475 90.6949 21.4401 90.8257 21.8241C90.9043 22.051 90.7821 22.2866 90.564 22.3651C90.5117 22.3738 90.4681 22.3826 90.4245 22.3826ZM89.779 18.8048C89.5522 18.8048 89.3603 18.6216 89.3515 18.386C89.3515 18.2813 89.3515 18.1853 89.3515 18.0806C89.3515 17.7053 89.369 17.3214 89.4039 16.9462C89.43 16.7106 89.6307 16.536 89.8662 16.5622C90.1017 16.5884 90.2762 16.7891 90.25 17.0247C90.2151 17.3737 90.1977 17.7315 90.1977 18.0806C90.1977 18.1765 90.1977 18.2638 90.1977 18.3598C90.2064 18.5954 90.0145 18.7874 89.779 18.7961C89.7877 18.8048 89.779 18.8048 89.779 18.8048ZM90.25 15.2009C90.2064 15.2009 90.1715 15.1922 90.1279 15.1835C89.9011 15.1137 89.7702 14.8781 89.84 14.6512C89.9709 14.1887 90.1366 13.7349 90.3285 13.2986C90.4245 13.0805 90.6687 12.9845 90.8868 13.0717C91.1049 13.1677 91.2008 13.4121 91.1136 13.6302C90.9391 14.0404 90.7909 14.4679 90.66 14.8955C90.6077 15.0788 90.4332 15.2009 90.25 15.2009ZM91.794 11.9112C91.7155 11.9112 91.6283 11.885 91.5585 11.8414C91.3666 11.7105 91.3143 11.4487 91.4451 11.248C91.7155 10.8553 92.0034 10.4626 92.3174 10.1049C92.4744 9.93033 92.7361 9.90415 92.9193 10.0612C93.0938 10.2183 93.1199 10.4801 92.9629 10.6633C92.6751 11.0036 92.4046 11.3614 92.1517 11.7279C92.0644 11.8414 91.9336 11.9112 91.794 11.9112ZM94.254 9.24097C94.1318 9.24097 94.001 9.18861 93.9225 9.0839C93.7742 8.90065 93.8091 8.63014 93.9923 8.48179C94.3674 8.1851 94.7599 7.90586 95.1699 7.65281C95.3705 7.53064 95.6322 7.59172 95.7543 7.79243C95.8765 7.99313 95.8154 8.25491 95.6148 8.37708C95.2397 8.61268 94.8646 8.86574 94.5244 9.14498C94.4459 9.21479 94.3499 9.24097 94.254 9.24097ZM97.4205 7.4521C97.246 7.4521 97.089 7.34739 97.0192 7.17287C96.932 6.95471 97.0454 6.71038 97.2635 6.62312C97.7083 6.45732 98.1707 6.30898 98.633 6.19554C98.8598 6.14318 99.0953 6.27407 99.1477 6.50968C99.2087 6.73656 99.0692 6.97217 98.8336 7.02452C98.3975 7.12924 97.97 7.26886 97.5601 7.42593C97.5164 7.44338 97.4641 7.4521 97.4205 7.4521ZM102.358 6.70166C102.349 6.70166 102.34 6.70166 102.332 6.70166C102.096 6.6842 101.861 6.67548 101.625 6.67548C101.416 6.67548 101.206 6.6842 100.997 6.69293C100.761 6.70166 100.561 6.52713 100.552 6.29153C100.543 6.05592 100.718 5.85522 100.953 5.84649C101.18 5.83777 101.407 5.82904 101.634 5.82904C101.887 5.82904 102.14 5.83777 102.393 5.85522C102.628 5.87267 102.803 6.07337 102.794 6.30898C102.768 6.52713 102.585 6.70166 102.358 6.70166Z" fill="white"></path><path opacity="0.64" d="M105.245 7.25139C105.202 7.25139 105.158 7.24267 105.114 7.23394C104.905 7.16413 104.696 7.10305 104.486 7.05069C104.259 6.98961 104.12 6.76273 104.181 6.52712C104.242 6.30024 104.469 6.16062 104.704 6.22171C104.931 6.28279 105.158 6.34387 105.385 6.42241C105.612 6.49222 105.734 6.73655 105.655 6.9547C105.594 7.13795 105.428 7.25139 105.245 7.25139Z" fill="white"></path></g><g opacity="0.64"><path opacity="0.64" d="M112.337 13.4993C112.18 13.4993 112.023 13.412 111.953 13.255C111.857 13.0543 111.761 12.8623 111.657 12.6703C111.543 12.4609 111.622 12.2078 111.831 12.0944C112.041 11.981 112.294 12.0595 112.407 12.2689C112.52 12.4783 112.625 12.6878 112.721 12.8972C112.817 13.1066 112.73 13.3597 112.512 13.4644C112.459 13.4906 112.398 13.4993 112.337 13.4993Z" fill="white"></path><path opacity="0.64" d="M101.599 30.367C101.145 30.367 100.683 30.3408 100.229 30.2884C99.9938 30.2623 99.8281 30.0528 99.8542 29.8172C99.8804 29.5816 100.09 29.4158 100.325 29.442C100.744 29.4856 101.171 29.5118 101.599 29.5118H101.643C101.878 29.5118 102.07 29.7038 102.07 29.9394C102.07 30.175 101.878 30.367 101.643 30.367H101.599ZM103.849 30.1488C103.649 30.1488 103.474 30.0092 103.431 29.7998C103.387 29.5729 103.535 29.346 103.771 29.3024C103.902 29.2762 104.033 29.25 104.164 29.2151C104.46 29.1453 104.757 29.0668 105.045 28.9708C105.271 28.901 105.507 29.0231 105.577 29.25C105.646 29.4769 105.524 29.7125 105.298 29.7823C104.983 29.8783 104.669 29.9656 104.347 30.0441C104.207 30.079 104.068 30.1052 103.928 30.1314C103.911 30.1488 103.876 30.1488 103.849 30.1488ZM107.225 28.9533C107.077 28.9533 106.929 28.8748 106.85 28.7265C106.737 28.517 106.815 28.264 107.025 28.1505C107.409 27.9411 107.784 27.7142 108.15 27.4612C108.342 27.3303 108.612 27.3739 108.743 27.5659C108.874 27.7579 108.83 28.0284 108.638 28.1593C108.255 28.4298 107.845 28.6741 107.435 28.901C107.356 28.9359 107.286 28.9533 107.225 28.9533ZM110.078 26.8067C109.973 26.8067 109.86 26.7631 109.781 26.6845C109.615 26.5187 109.607 26.2482 109.773 26.0824C110.078 25.7683 110.366 25.4367 110.636 25.0876C110.776 24.9044 111.046 24.8695 111.229 25.0091C111.412 25.1487 111.447 25.4192 111.308 25.6025C111.02 25.9777 110.706 26.3355 110.383 26.6671C110.296 26.7631 110.183 26.8067 110.078 26.8067ZM112.163 23.9009C112.102 23.9009 112.032 23.8834 111.971 23.8573C111.761 23.7525 111.674 23.4908 111.788 23.2813C111.988 22.8887 112.163 22.4873 112.32 22.0771C112.398 21.859 112.651 21.7455 112.869 21.8241C113.087 21.9026 113.201 22.1557 113.122 22.3738C112.956 22.8101 112.765 23.2464 112.555 23.6653C112.468 23.8136 112.311 23.9009 112.163 23.9009ZM113.288 20.5064C113.262 20.5064 113.244 20.5064 113.218 20.4977C112.983 20.4541 112.834 20.2359 112.869 20.009C112.939 19.5727 112.991 19.1364 113.018 18.7001C113.026 18.4645 113.227 18.2813 113.462 18.2987C113.698 18.3074 113.881 18.5081 113.864 18.7437C113.838 19.215 113.785 19.6862 113.707 20.1486C113.672 20.3581 113.489 20.5064 113.288 20.5064ZM113.34 16.9287C113.131 16.9287 112.948 16.7716 112.922 16.5622C112.878 16.2219 112.808 15.8816 112.738 15.5412C112.721 15.4453 112.695 15.358 112.669 15.2707C112.608 15.0438 112.747 14.8082 112.974 14.7559C113.201 14.6948 113.436 14.8344 113.489 15.0613C113.515 15.1573 113.541 15.2533 113.558 15.358C113.646 15.7158 113.707 16.091 113.759 16.4488C113.794 16.6844 113.628 16.8938 113.393 16.9287C113.384 16.9287 113.366 16.9287 113.34 16.9287Z" fill="white"></path><path opacity="0.64" d="M98.1009 29.8347C98.0573 29.8347 98.0136 29.8259 97.97 29.8172C97.7432 29.7474 97.5252 29.6689 97.3071 29.5903C97.089 29.5118 96.9756 29.2587 97.0541 29.0406C97.1326 28.8224 97.3856 28.709 97.6037 28.7875C97.813 28.8661 98.0136 28.9359 98.223 28.997C98.4498 29.0668 98.5719 29.3024 98.5021 29.5293C98.4585 29.7125 98.2841 29.8347 98.1009 29.8347Z" fill="white"></path></g><path d="M101.616 23.5955C101.573 23.5955 101.538 23.5955 101.494 23.5955C101.137 23.5868 100.77 23.5431 100.421 23.4646C100.395 23.4559 100.36 23.4559 100.334 23.4472C100.256 23.4297 100.203 23.3599 100.203 23.2814C100.203 23.2726 100.203 23.2552 100.212 23.2377C100.229 23.1505 100.325 23.0894 100.421 23.1156C100.779 23.2028 101.145 23.2465 101.512 23.2552C101.547 23.2552 101.59 23.2552 101.625 23.2552C104.338 23.2552 106.58 21.1435 106.772 18.4558C106.781 18.3773 106.781 18.29 106.781 18.2115C106.781 18.1766 106.781 18.1329 106.781 18.098C106.781 15.3057 104.539 13.002 101.739 12.9409C98.8948 12.8798 96.5308 15.1399 96.4697 17.9846C96.4697 18.0195 96.4697 18.0631 96.4697 18.098C96.4697 18.9968 96.7052 19.8782 97.1414 20.6461C97.1588 20.6722 97.1676 20.6984 97.1676 20.7333C97.1676 20.7944 97.1327 20.8468 97.0803 20.8817C97.0018 20.9253 96.8972 20.8991 96.8448 20.8206C96.3738 19.9916 96.1295 19.0579 96.1295 18.098C96.1295 18.0544 96.1295 18.0195 96.1295 17.9759C96.1993 14.9479 98.7116 12.5307 101.747 12.5918C104.739 12.6529 107.129 15.1137 107.129 18.0893C107.129 18.1329 107.129 18.1678 107.129 18.2115C107.095 19.6775 106.493 21.0475 105.437 22.0684C104.382 23.0545 103.038 23.5955 101.616 23.5955Z" fill="#C31130"></path><g opacity="0.64"><path opacity="0.64" d="M6.69059 66.3362C6.6208 66.3362 6.55102 66.2839 6.52485 66.2141C6.48123 66.0744 6.44634 65.9348 6.41145 65.7952C6.38528 65.7079 6.44634 65.6119 6.53357 65.5858C6.6208 65.5596 6.71676 65.6207 6.74293 65.7079C6.77782 65.8476 6.81271 65.9784 6.85633 66.1093C6.8825 66.1966 6.83016 66.2926 6.74293 66.3188C6.72548 66.3362 6.70803 66.3362 6.69059 66.3362Z" fill="white"></path><path opacity="0.64" d="M6.38532 65.1146C6.30681 65.1146 6.23702 65.0622 6.21958 64.9749C6.16724 64.7044 6.1149 64.4165 6.08001 64.146C6.07128 64.05 6.13234 63.9627 6.2283 63.954C6.32425 63.9453 6.41149 64.0063 6.42021 64.1023C6.4551 64.3728 6.50744 64.6433 6.55978 64.9139C6.57723 65.0098 6.51616 65.0971 6.42893 65.1146C6.41149 65.1146 6.40276 65.1146 6.38532 65.1146ZM6.15851 63.4653C6.07128 63.4653 5.99277 63.3955 5.99277 63.3082C5.9666 63.029 5.95788 62.7498 5.94916 62.4618C5.94916 62.3658 6.01894 62.2873 6.1149 62.2873C6.21085 62.2873 6.28936 62.3571 6.28936 62.4531C6.29809 62.7236 6.30681 63.0028 6.33298 63.2733C6.3417 63.3693 6.27192 63.4479 6.17596 63.4566C6.16724 63.4653 6.16724 63.4653 6.15851 63.4653ZM6.13235 61.7986C6.12362 61.7986 6.12362 61.7986 6.13235 61.7986C6.02767 61.7986 5.95788 61.7201 5.95788 61.6241C5.9666 61.4757 5.97533 61.3187 5.98405 61.1703C5.99277 61.0394 6.0015 60.9085 6.01894 60.7864C6.02767 60.6904 6.10618 60.6206 6.20213 60.6293C6.29809 60.638 6.36787 60.7253 6.35915 60.8126C6.35042 60.9347 6.33298 61.0656 6.32425 61.1878C6.31553 61.3361 6.30681 61.4845 6.29808 61.6328C6.29808 61.7288 6.21958 61.7986 6.13235 61.7986ZM6.28936 60.1406C6.28064 60.1406 6.27192 60.1406 6.26319 60.1406C6.16724 60.1232 6.10617 60.0359 6.12362 59.9487C6.16724 59.6694 6.21958 59.3902 6.28064 59.1197C6.29809 59.0237 6.39404 58.9713 6.48127 58.9888C6.57723 59.0062 6.62957 59.1022 6.61212 59.1895C6.55106 59.46 6.50744 59.7305 6.46383 60.001C6.44638 60.0796 6.36787 60.1406 6.28936 60.1406ZM6.63829 58.5089C6.62084 58.5089 6.61212 58.5089 6.59467 58.5001C6.50744 58.474 6.4551 58.378 6.47255 58.2907C6.55106 58.0202 6.62957 57.7497 6.72552 57.4879C6.75169 57.4006 6.85637 57.3483 6.9436 57.3832C7.03083 57.4094 7.08317 57.5141 7.04828 57.6013C6.96105 57.8631 6.87382 58.1249 6.80403 58.3867C6.77786 58.4652 6.70807 58.5089 6.63829 58.5089ZM7.17913 56.9382C7.16168 56.9382 7.13551 56.9382 7.11806 56.9294C7.03083 56.8945 6.98722 56.7985 7.02211 56.7113C7.12679 56.4495 7.24019 56.1877 7.36231 55.9434C7.40593 55.8561 7.50188 55.8212 7.58912 55.8648C7.67635 55.9085 7.71124 56.0045 7.66762 56.0917C7.5455 56.336 7.4321 56.5891 7.33614 56.8422C7.30997 56.8945 7.24019 56.9382 7.17913 56.9382ZM7.90315 55.4285C7.87698 55.4285 7.85081 55.4198 7.82464 55.4111C7.74613 55.3674 7.71124 55.2627 7.75486 55.1755C7.89443 54.9311 8.034 54.6868 8.18229 54.4512C8.23463 54.3727 8.33931 54.3465 8.41782 54.3988C8.49633 54.4512 8.5225 54.5559 8.47016 54.6344C8.32186 54.8701 8.18229 55.1057 8.05145 55.3413C8.01655 55.4023 7.95549 55.4285 7.90315 55.4285ZM8.79292 54.0236C8.75802 54.0236 8.72313 54.0149 8.69696 53.9887C8.61845 53.9364 8.60101 53.8229 8.66207 53.7531C8.82781 53.5262 9.00227 53.2993 9.17673 53.0812C9.2378 53.0114 9.34248 52.9939 9.41226 53.055C9.48205 53.1161 9.49949 53.2208 9.43843 53.2906C9.26397 53.5 9.09823 53.7182 8.94121 53.9451C8.89759 53.9974 8.84525 54.0236 8.79292 54.0236ZM9.84842 52.7321C9.8048 52.7321 9.76991 52.7147 9.73502 52.6885C9.66523 52.6274 9.66523 52.514 9.7263 52.4442C9.91821 52.2348 10.1101 52.0341 10.3107 51.8421C10.3805 51.7723 10.4852 51.781 10.555 51.8421C10.6248 51.9119 10.6161 52.0166 10.555 52.0864C10.3631 52.2784 10.1625 52.4791 9.97927 52.6798C9.93565 52.7147 9.89204 52.7321 9.84842 52.7321ZM11.0435 51.5716C10.9999 51.5716 10.9475 51.5541 10.9126 51.5105C10.8516 51.4407 10.8603 51.336 10.9301 51.2662C11.1395 51.0829 11.3663 50.8997 11.5843 50.7339C11.6628 50.6728 11.7675 50.6902 11.8199 50.7688C11.8809 50.8473 11.8635 50.952 11.785 51.0044C11.5669 51.1702 11.3575 51.3447 11.1482 51.5279C11.122 51.5541 11.0784 51.5716 11.0435 51.5716ZM12.3607 50.5506C12.3084 50.5506 12.256 50.5244 12.2211 50.4721C12.1688 50.3935 12.1862 50.2888 12.2647 50.2365C12.5003 50.0794 12.7358 49.9223 12.98 49.7827C13.0586 49.7303 13.1632 49.7653 13.2156 49.8438C13.2679 49.9223 13.233 50.027 13.1545 50.0794C12.919 50.219 12.6835 50.3674 12.4567 50.5244C12.4305 50.5419 12.3956 50.5506 12.3607 50.5506ZM27.3733 49.966C27.3471 49.966 27.3122 49.9572 27.2861 49.9398C27.0505 49.8089 26.8063 49.678 26.562 49.5558C26.4748 49.5122 26.4399 49.4162 26.4835 49.3289C26.5271 49.2417 26.6231 49.2068 26.7103 49.2504C26.9633 49.3726 27.2163 49.5122 27.4518 49.6431C27.5303 49.6867 27.5652 49.7914 27.5129 49.8787C27.4954 49.9398 27.4344 49.966 27.3733 49.966ZM13.7913 49.7042C13.7302 49.7042 13.6692 49.6693 13.643 49.6082C13.5994 49.5209 13.6343 49.4249 13.7128 49.3813C13.957 49.2504 14.2187 49.1282 14.4717 49.0148C14.5589 48.9799 14.6549 49.0148 14.6985 49.1021C14.7334 49.1893 14.6985 49.2853 14.6113 49.3289C14.3583 49.4424 14.1141 49.5646 13.8698 49.6867C13.8436 49.6954 13.8175 49.7042 13.7913 49.7042ZM25.8816 49.2242C25.8555 49.2242 25.838 49.2155 25.8118 49.2068C25.5589 49.1021 25.3059 48.9974 25.0442 48.9101C24.957 48.8752 24.9134 48.7792 24.9395 48.6919C24.9744 48.6047 25.0704 48.561 25.1576 48.5872C25.4193 48.6832 25.6897 48.7879 25.9427 48.8926C26.0299 48.9275 26.0735 49.0323 26.0299 49.1195C26.0125 49.1893 25.9514 49.2242 25.8816 49.2242ZM15.3091 49.0235C15.2393 49.0235 15.1783 48.9799 15.1521 48.9101C15.1172 48.8228 15.1608 48.7268 15.2481 48.6919C15.5098 48.596 15.7802 48.5 16.0419 48.4127C16.1291 48.3865 16.2251 48.4389 16.2512 48.5261C16.2774 48.6134 16.2251 48.7094 16.1378 48.7356C15.8761 48.8141 15.6144 48.9101 15.3615 49.0061C15.3527 49.0148 15.3266 49.0235 15.3091 49.0235ZM24.3115 48.6745C24.294 48.6745 24.2766 48.6745 24.2678 48.6658C24.0061 48.5872 23.7357 48.5174 23.474 48.4563C23.3781 48.4389 23.3257 48.3429 23.3432 48.2556C23.3606 48.1596 23.4566 48.1073 23.5438 48.1247C23.8142 48.1858 24.0934 48.2556 24.3638 48.3342C24.451 48.3603 24.5034 48.4563 24.4772 48.5436C24.4597 48.6221 24.39 48.6745 24.3115 48.6745ZM16.8968 48.5261C16.8182 48.5261 16.7485 48.4738 16.731 48.3952C16.7048 48.308 16.7659 48.212 16.8531 48.1858C17.1236 48.116 17.4027 48.0549 17.6731 48.0026C17.7691 47.9851 17.8563 48.0462 17.8737 48.1422C17.8912 48.2382 17.8301 48.3254 17.7342 48.3429C17.4638 48.3952 17.1933 48.4563 16.9316 48.5174C16.9229 48.5261 16.9142 48.5261 16.8968 48.5261ZM22.6889 48.2993C22.6802 48.2993 22.6715 48.2993 22.6628 48.2993C22.3924 48.2556 22.1219 48.2207 21.8428 48.1858C21.7468 48.1771 21.6858 48.0898 21.6945 48.0026C21.7032 47.9066 21.7905 47.8368 21.8777 47.8542C22.1568 47.8804 22.436 47.924 22.7151 47.9677C22.8111 47.9851 22.8721 48.0724 22.8547 48.1596C22.846 48.2382 22.7675 48.2993 22.6889 48.2993ZM18.5367 48.2207C18.4495 48.2207 18.3797 48.1596 18.371 48.0724C18.3622 47.9764 18.4233 47.8979 18.5193 47.8804C18.7984 47.8455 19.0775 47.8193 19.3567 47.8019C19.4526 47.7931 19.5312 47.863 19.5399 47.9589C19.5486 48.0549 19.4788 48.1335 19.3829 48.1422C19.1124 48.1596 18.8333 48.1858 18.5629 48.2207C18.5542 48.2207 18.5454 48.2207 18.5367 48.2207ZM21.0315 48.1247C21.0315 48.1247 21.0228 48.1247 21.0315 48.1247C20.7873 48.116 20.5605 48.1073 20.325 48.1073H20.2028C20.1069 48.1073 20.0284 48.0288 20.0284 47.9415C20.0284 47.8455 20.1069 47.767 20.1941 47.767H20.325C20.5605 47.767 20.8047 47.7757 21.0403 47.7844C21.1362 47.7931 21.206 47.8717 21.206 47.9589C21.1973 48.0549 21.1188 48.1247 21.0315 48.1247Z" fill="white"></path><path opacity="0.64" d="M28.4462 50.6466C28.4113 50.6466 28.3765 50.6378 28.3503 50.6204C28.2369 50.5418 28.1148 50.4633 28.0014 50.3848C27.9228 50.3324 27.8967 50.2277 27.949 50.1492C28.0014 50.0706 28.106 50.0445 28.1845 50.0968C28.3067 50.1754 28.4201 50.2539 28.5422 50.3412C28.6207 50.3935 28.6381 50.4982 28.5858 50.5767C28.5596 50.6204 28.5073 50.6466 28.4462 50.6466Z" fill="white"></path></g><g opacity="0.64"><path opacity="0.64" d="M34.3605 59.9137C34.282 59.9137 34.2035 59.8526 34.1948 59.7741C34.1686 59.6345 34.1424 59.4949 34.1163 59.364C34.0988 59.268 34.1599 59.1807 34.2471 59.1633C34.3431 59.1458 34.4303 59.2069 34.4477 59.2942C34.4739 59.4338 34.5001 59.5734 34.5263 59.7217C34.5437 59.8177 34.4826 59.905 34.3867 59.9224C34.378 59.9137 34.3692 59.9137 34.3605 59.9137Z" fill="white"></path><path opacity="0.64" d="M20.1068 76.5545C19.8538 76.5545 19.5921 76.537 19.3479 76.5196L19.2345 76.5108C19.1385 76.5021 19.0687 76.4236 19.0774 76.3276C19.0862 76.2316 19.1647 76.1618 19.2606 76.1705L19.374 76.1792C19.6183 76.1967 19.8713 76.2054 20.1155 76.2142C20.2115 76.2142 20.2812 76.2927 20.2812 76.3887C20.2812 76.4847 20.2027 76.5545 20.1068 76.5545ZM20.9704 76.5457C20.8831 76.5457 20.8046 76.4759 20.8046 76.38C20.8046 76.284 20.8744 76.2054 20.9704 76.2054C21.2495 76.1967 21.5374 76.1705 21.8165 76.1443C21.9125 76.1356 21.991 76.2054 21.9997 76.2927C22.0084 76.3887 21.9386 76.4672 21.8514 76.4759C21.5636 76.5108 21.267 76.537 20.9704 76.5457C20.9791 76.5457 20.9704 76.5457 20.9704 76.5457ZM18.3883 76.4236C18.3796 76.4236 18.3709 76.4236 18.3621 76.4236C18.0743 76.38 17.7864 76.3363 17.4985 76.2752C17.4026 76.2578 17.3503 76.1705 17.3677 76.0745C17.3851 75.9785 17.4724 75.9262 17.5683 75.9436C17.8475 75.996 18.1266 76.0484 18.4058 76.0833C18.5017 76.092 18.5628 76.1792 18.5541 76.2752C18.5453 76.3625 18.4755 76.4236 18.3883 76.4236ZM22.6888 76.3712C22.6103 76.3712 22.5318 76.3101 22.5231 76.2316C22.5057 76.1356 22.5667 76.0484 22.6627 76.0396C22.9418 75.996 23.221 75.9349 23.5001 75.8738C23.5961 75.8564 23.6833 75.9087 23.7007 76.0047C23.7182 76.1007 23.6658 76.188 23.5699 76.2054C23.2907 76.2665 23.0029 76.3276 22.715 76.3712C22.7063 76.3712 22.6976 76.3712 22.6888 76.3712ZM16.696 76.092C16.6786 76.092 16.6698 76.092 16.6524 76.0833C16.3733 76.0135 16.0941 75.9262 15.815 75.8389C15.7277 75.8127 15.6754 75.7168 15.7103 75.6208C15.7365 75.5335 15.8324 75.4812 15.9284 75.5161C16.1988 75.6033 16.4692 75.6819 16.7484 75.7604C16.8356 75.7866 16.8966 75.8738 16.8705 75.9698C16.8443 76.0396 16.7745 76.092 16.696 76.092ZM24.3637 75.9785C24.2939 75.9785 24.2241 75.9262 24.198 75.8564C24.1718 75.7691 24.2241 75.6731 24.3114 75.647C24.5818 75.5684 24.8522 75.4812 25.1226 75.3852C25.2098 75.3503 25.3058 75.4026 25.3407 75.4899C25.3756 75.5771 25.3232 75.6731 25.236 75.708C24.9656 75.804 24.6864 75.9 24.4073 75.9785C24.3986 75.9785 24.3811 75.9785 24.3637 75.9785ZM15.0648 75.551C15.0473 75.551 15.0212 75.551 15.0037 75.5422C14.7333 75.4375 14.4629 75.3154 14.2012 75.1932C14.114 75.1496 14.0791 75.0536 14.1227 74.9663C14.1663 74.879 14.2622 74.8441 14.3495 74.8878C14.6025 75.0099 14.8729 75.1234 15.1346 75.2281C15.2218 75.263 15.2654 75.359 15.2305 75.4462C15.1956 75.5073 15.1258 75.551 15.0648 75.551ZM25.9862 75.3939C25.9164 75.3939 25.8554 75.359 25.8292 75.2892C25.7943 75.2019 25.8292 75.1059 25.9164 75.0623C26.1781 74.9489 26.4311 74.8267 26.6841 74.7045C26.7713 74.6609 26.8672 74.6958 26.9109 74.7831C26.9545 74.8703 26.9196 74.9663 26.8324 75.0099C26.5707 75.1408 26.309 75.263 26.0473 75.3764C26.0298 75.3939 26.0036 75.3939 25.9862 75.3939ZM13.5033 74.8092C13.4772 74.8092 13.451 74.8005 13.4248 74.7918C13.1719 74.6522 12.9189 74.5038 12.6746 74.3468C12.5961 74.2944 12.57 74.1897 12.6223 74.1111C12.6746 74.0326 12.7793 74.0064 12.8578 74.0588C13.0933 74.2071 13.3463 74.3555 13.5906 74.4951C13.6691 74.5387 13.704 74.6434 13.6604 74.7307C13.6255 74.7831 13.5644 74.8092 13.5033 74.8092ZM27.5215 74.6173C27.4604 74.6173 27.4081 74.5911 27.3732 74.53C27.3296 74.4515 27.3557 74.3468 27.4342 74.2944C27.6785 74.1548 27.9227 73.9977 28.1583 73.8406C28.2368 73.7883 28.3415 73.8057 28.3938 73.8843C28.4461 73.9628 28.4287 74.0675 28.3502 74.1199C28.1059 74.2769 27.8617 74.434 27.6087 74.5824C27.5738 74.6085 27.5477 74.6173 27.5215 74.6173ZM28.9521 73.6574C28.8997 73.6574 28.8474 73.6312 28.8125 73.5876C28.7514 73.509 28.7689 73.4043 28.8474 73.352C29.0742 73.1774 29.2923 73.0029 29.5104 72.8197C29.5802 72.7586 29.6936 72.7673 29.7546 72.8371C29.8157 72.9069 29.807 73.0204 29.7372 73.0815C29.5191 73.2734 29.2923 73.4567 29.0568 73.6312C29.0219 73.6487 28.987 73.6574 28.9521 73.6574ZM30.2518 72.5317C30.2082 72.5317 30.1646 72.5143 30.1297 72.4794C30.0599 72.4095 30.0686 72.3048 30.1297 72.235C30.3303 72.0343 30.531 71.8336 30.7229 71.6242C30.784 71.5544 30.8974 71.5457 30.9671 71.6155C31.0369 71.6766 31.0456 71.79 30.9759 71.8598C30.784 72.078 30.5746 72.2874 30.3652 72.4881C30.3391 72.5143 30.2955 72.5317 30.2518 72.5317ZM31.4207 71.2577C31.3859 71.2577 31.3422 71.249 31.3161 71.2228C31.2463 71.1617 31.2288 71.057 31.2899 70.9872C31.4644 70.769 31.6388 70.5422 31.8046 70.3065C31.8569 70.228 31.9616 70.2106 32.0401 70.2629C32.1186 70.3153 32.136 70.42 32.0837 70.4985C31.918 70.7341 31.7348 70.9697 31.5603 71.1966C31.5167 71.2402 31.4644 71.2577 31.4207 71.2577ZM32.4152 69.8528C32.3803 69.8528 32.3541 69.8441 32.328 69.8266C32.2494 69.7742 32.2233 69.6695 32.2756 69.591C32.4239 69.3467 32.5722 69.1023 32.7031 68.858C32.7467 68.7795 32.8513 68.7446 32.9299 68.7882C33.0084 68.8318 33.0433 68.9365 32.9996 69.0151C32.8601 69.2681 32.7118 69.5212 32.5635 69.7742C32.5286 69.8266 32.4762 69.8528 32.4152 69.8528ZM33.2352 68.3344C33.209 68.3344 33.1828 68.3257 33.1654 68.317C33.0781 68.2734 33.0433 68.1774 33.0869 68.0901C33.209 67.837 33.3224 67.5665 33.4271 67.3047C33.462 67.2175 33.5579 67.1739 33.6452 67.2088C33.7324 67.2437 33.776 67.3397 33.7411 67.4269C33.6364 67.6974 33.523 67.9679 33.4009 68.2297C33.366 68.2995 33.305 68.3344 33.2352 68.3344ZM33.872 66.7288C33.8545 66.7288 33.8371 66.7288 33.8196 66.7201C33.7324 66.6939 33.68 66.5979 33.7062 66.5019C33.7934 66.2314 33.872 65.9609 33.9417 65.6817C33.9679 65.5944 34.0551 65.5333 34.1511 65.5595C34.2383 65.5857 34.2994 65.673 34.2732 65.7689C34.2034 66.0482 34.1162 66.3361 34.029 66.6067C34.0115 66.6852 33.9417 66.7288 33.872 66.7288ZM34.2994 65.0621C34.2907 65.0621 34.2819 65.0621 34.2645 65.0621C34.1685 65.0447 34.1075 64.9574 34.1337 64.8614C34.186 64.5822 34.2296 64.3029 34.2732 64.0237C34.2819 63.9277 34.3692 63.8666 34.4651 63.8754C34.5611 63.8841 34.6221 63.9714 34.6134 64.0673C34.5785 64.3553 34.5262 64.6433 34.4739 64.9312C34.4477 65.001 34.3779 65.0621 34.2994 65.0621ZM34.5262 63.3518H34.5175C34.4215 63.3431 34.3517 63.2645 34.3605 63.1685V63.1336C34.3779 62.8631 34.3866 62.5926 34.3953 62.3221C34.3953 62.2261 34.4739 62.1563 34.5698 62.1563C34.6658 62.1563 34.7356 62.2348 34.7356 62.3308C34.7356 62.6101 34.7181 62.8893 34.7007 63.1685V63.2034C34.6919 63.282 34.6134 63.3518 34.5262 63.3518ZM34.5436 61.624C34.4564 61.624 34.3779 61.5542 34.3779 61.4582C34.3605 61.179 34.343 60.891 34.3081 60.6118C34.2994 60.5158 34.3692 60.4373 34.4564 60.4198C34.5436 60.4111 34.6309 60.4809 34.6483 60.5681C34.6832 60.8561 34.7007 61.1528 34.7181 61.4408C34.7181 61.5455 34.6483 61.624 34.5436 61.624C34.5524 61.624 34.5436 61.624 34.5436 61.624Z" fill="white"></path><path opacity="0.64" d="M12.0379 73.8843C12.003 73.8843 11.9682 73.8756 11.942 73.8494C11.8286 73.7622 11.7065 73.6836 11.5931 73.5964C11.5146 73.5353 11.5058 73.4306 11.5582 73.3608C11.6192 73.2822 11.7239 73.2735 11.7937 73.3258C11.9071 73.4131 12.0205 73.4916 12.1339 73.5789C12.2124 73.6313 12.2299 73.7447 12.1688 73.8145C12.1426 73.8581 12.0903 73.8843 12.0379 73.8843Z" fill="white"></path></g><path d="M12.6574 69.9401C12.701 69.9925 12.7795 70.0186 12.8493 69.9925L14.8033 69.2769C15.5709 69.8703 16.4432 70.3415 17.3853 70.6644L17.8651 72.6888C17.8826 72.7586 17.9436 72.811 18.0134 72.8197L20.4908 73.0728C20.5606 73.0815 20.6304 73.0379 20.6653 72.9768L21.5376 71.0919C22.532 70.9611 23.4741 70.6731 24.3464 70.2455L26.1172 71.3363C26.1783 71.3712 26.2568 71.3712 26.3179 71.3276L28.2457 69.7481C28.298 69.7045 28.3242 69.626 28.298 69.5561L27.5827 67.6015C28.1759 66.8336 28.647 65.961 28.9697 65.0185L30.9935 64.5386C31.0633 64.5212 31.1156 64.4601 31.1244 64.3903L31.3773 61.912C31.3861 61.8422 31.3424 61.7724 31.2814 61.7375L29.3972 60.8649C29.2663 59.8701 28.9785 58.9277 28.551 58.0551L29.6414 56.2837C29.6763 56.2226 29.6763 56.1441 29.6327 56.083L28.0538 54.1545C28.0102 54.1021 27.9317 54.076 27.8619 54.1021L25.9079 54.8177C25.1403 54.2243 24.2679 53.7531 23.3258 53.4302L22.8461 51.4058C22.8286 51.3359 22.7675 51.2836 22.6978 51.2749L20.2204 51.0218C20.1506 51.0131 20.0808 51.0567 20.0459 51.1178L19.1736 53.0026C18.1792 53.1335 17.2371 53.4215 16.3647 53.8491L14.6027 52.7583C14.5416 52.7234 14.4631 52.7234 14.402 52.767L12.4742 54.3465C12.4219 54.3901 12.3957 54.4686 12.4219 54.5384L13.1372 56.4931C12.544 57.261 12.0729 58.1336 11.7502 59.076L9.72639 59.556C9.65661 59.5734 9.60427 59.6345 9.59555 59.7043L9.34257 62.1825C9.33385 62.2524 9.37747 62.3222 9.43853 62.3571L11.3227 63.2297C11.4536 64.2245 11.7414 65.1669 12.1689 66.0395L11.0785 67.8109C11.0436 67.872 11.0436 67.9505 11.0872 68.0116L12.6574 69.9401Z" fill="white"></path><path d="M20.3425 64.4339C19.8366 64.4339 19.3394 64.2681 18.9294 63.9627C18.4147 63.5787 18.0832 63.029 17.996 62.4007C17.9 61.7724 18.057 61.1441 18.4409 60.6293C18.8247 60.1144 19.3742 59.7828 20.0023 59.6956C20.6304 59.5996 21.2585 59.7567 21.7731 60.1406C22.2878 60.5246 22.6193 61.0743 22.7065 61.7026C22.8025 62.3309 22.6454 62.9592 22.2616 63.474C21.8778 63.9889 21.3282 64.3204 20.7002 64.4077C20.578 64.4252 20.4646 64.4339 20.3425 64.4339ZM20.3512 60.0097C20.2553 60.0097 20.1506 60.0184 20.0459 60.0359C19.5051 60.1144 19.034 60.4024 18.7026 60.8387C18.3798 61.275 18.2402 61.816 18.3187 62.3571C18.3973 62.8981 18.6851 63.3693 19.1213 63.7009C19.5574 64.0238 20.0983 64.1634 20.6391 64.0848C21.1799 64.0063 21.651 63.7183 21.9825 63.282C22.3052 62.8457 22.4448 62.3047 22.3663 61.7637C22.2878 61.2227 21.9999 60.7514 21.5638 60.4199C21.2148 60.1493 20.7874 60.0097 20.3512 60.0097Z" fill="#C31130"></path><path d="M20.3948 68.2037C20.1855 68.2037 19.9761 68.1949 19.7668 68.1687C19.6359 68.1513 19.4964 68.1338 19.3655 68.1164C19.1125 68.0728 18.8596 68.0117 18.6066 67.9419C18.5979 67.9419 18.5979 67.9419 18.5891 67.9331C18.5542 67.9244 18.5106 67.907 18.4757 67.8982C18.406 67.8721 18.3536 67.811 18.3536 67.7324C18.3536 67.715 18.3536 67.6975 18.3623 67.6801C18.3885 67.5928 18.4845 67.5405 18.5804 67.5666C18.973 67.6975 19.383 67.7761 19.8017 67.8197C19.8366 67.8197 19.8714 67.8284 19.8976 67.8284C20.8833 67.9157 21.8603 67.7499 22.7414 67.3572C22.7501 67.3572 22.7501 67.3572 22.7588 67.3485C23.195 67.1565 23.605 66.9035 23.9888 66.6068C23.9975 66.598 24.015 66.5893 24.0237 66.5806C24.0324 66.5719 24.0324 66.5719 24.0411 66.5631C24.0499 66.5544 24.0673 66.5457 24.076 66.537C25.2885 65.5509 26.0387 64.1547 26.1957 62.6015C26.2132 62.4008 26.2219 62.2001 26.2219 61.9994C26.2219 60.6555 25.7683 59.3728 24.9047 58.3169C23.919 57.104 22.5233 56.3535 20.9706 56.1965C17.7604 55.8736 14.8905 58.2122 14.5678 61.4234C14.5503 61.6241 14.5416 61.8161 14.5416 62.0168C14.5416 62.872 14.7248 63.7184 15.0911 64.495C15.0999 64.5212 15.1086 64.5474 15.1086 64.5648C15.1086 64.6259 15.0737 64.687 15.0126 64.7219C14.9254 64.7655 14.8295 64.7219 14.7858 64.6434C14.402 63.8231 14.2014 62.9243 14.2014 62.0255C14.2014 61.8161 14.2101 61.6067 14.2363 61.3972C14.402 59.7567 15.1958 58.2733 16.4781 57.2261C17.7604 56.179 19.3655 55.6991 21.0142 55.8649C22.6541 56.0307 24.1371 56.8247 25.1839 58.1075C26.0911 59.2244 26.5796 60.5857 26.5796 62.0081C26.5796 62.2175 26.5708 62.4269 26.5447 62.6451C26.2132 65.8214 23.5265 68.2037 20.3948 68.2037Z" fill="#C31130"></path></g><defs><clipPath id="clip0"><rect width="124" height="102" fill="white"></rect></clipPath></defs></svg>