<svg xmlns="http://www.w3.org/2000/svg" width="445" height="366" viewBox="0 0 445 366" fill="none"><g clip-path="url(#clip0)"><path d="M174.244 257.067L164.164 347.495H281.151L265.905 257.067H174.244Z" fill="#0B0B0E"></path><path d="M306.35 366H135.143C130.479 366 127.004 362.681 127.912 359.143L130.103 350.438C130.761 347.839 133.641 345.898 137.053 345.804L302.093 340.669C305.661 340.544 308.823 342.454 309.606 345.178L313.582 359.018C314.583 362.587 311.077 366 306.35 366Z" fill="#0B0B0E"></path><path d="M0 25.8616V257.911C0 277.011 15.2142 292.604 34.2789 293.105C119.021 295.297 337.28 300.589 417.952 299.399C431.821 299.18 443.059 288.095 443.435 274.224C445 220.306 447.504 90.6764 438.175 30.4957C436.203 17.8146 425.497 8.3585 412.693 7.92014C341.694 5.69702 105.654 -1.53593 25.0127 0.280138C11.1133 0.593252 0 11.9593 0 25.8616Z" fill="#0B0B0E"></path><path d="M14.5566 24.7363V245.2C14.5566 256.347 23.5099 265.428 34.6544 265.584L406.37 271.158C417.42 271.314 426.467 262.422 426.499 251.369L427.25 32.8773C427.281 24.9868 420.989 18.5053 413.1 18.3174L30.6787 9.01794C21.8194 8.79876 14.5566 15.9065 14.5566 24.7363Z" fill="#C31130"></path><path d="M97.3583 188.213C96.7009 188.213 96.0748 187.775 95.887 187.117C95.6679 186.335 95.4174 185.52 95.1983 184.738C94.9792 183.924 95.4487 183.078 96.2627 182.859C97.0766 182.64 97.9218 183.109 98.141 183.924C98.3601 184.706 98.5792 185.489 98.7984 186.241C99.0488 187.055 98.5792 187.9 97.7653 188.151C97.6401 188.182 97.5149 188.213 97.3583 188.213Z" fill="white"></path><path d="M94.8546 178.131C94.1346 178.131 93.5085 177.63 93.352 176.91C93.0077 175.313 92.6946 173.653 92.4442 172.056C92.3189 171.211 92.8511 170.428 93.6964 170.303C94.5416 170.178 95.3242 170.71 95.4494 171.555C95.6999 173.121 96.0129 174.718 96.3573 176.284C96.5138 177.098 96.0129 177.912 95.1677 178.1C95.0425 178.131 94.9486 178.131 94.8546 178.131ZM92.8511 165.481C92.0685 165.481 91.4111 164.886 91.3485 164.103C91.1607 162.475 91.0354 160.816 90.9102 159.187C90.8476 158.342 91.4737 157.622 92.3189 157.559C93.1642 157.497 93.8842 158.123 93.9468 158.968C94.072 160.565 94.1972 162.193 94.3538 163.79C94.4477 164.636 93.8216 165.387 93.0077 165.481C92.9763 165.481 92.9137 165.481 92.8511 165.481ZM92.1311 152.706C91.2859 152.706 90.5972 152.017 90.5972 151.203C90.5972 150.859 90.5972 150.545 90.5972 150.201C90.5972 148.886 90.6285 147.571 90.6598 146.256C90.6911 145.41 91.3798 144.753 92.225 144.784C93.0703 144.815 93.7277 145.504 93.6964 146.35C93.6651 147.634 93.6338 148.917 93.6338 150.201C93.6338 150.514 93.6338 150.859 93.6338 151.172C93.6651 151.986 92.9763 152.675 92.1311 152.706ZM92.6633 139.9C92.632 139.9 92.5694 139.9 92.5381 139.9C91.6928 139.837 91.0667 139.085 91.1607 138.24C91.3172 136.612 91.4737 134.952 91.6928 133.324C91.7868 132.479 92.5694 131.884 93.4146 132.009C94.2598 132.103 94.8546 132.886 94.7294 133.731C94.5416 135.328 94.3538 136.925 94.1972 138.522C94.1033 139.305 93.4459 139.9 92.6633 139.9ZM94.4164 127.187C94.3225 127.187 94.2285 127.187 94.1346 127.156C93.2894 126.999 92.7572 126.185 92.9137 125.371C93.2268 123.774 93.5711 122.146 93.9155 120.549C94.1033 119.735 94.9173 119.203 95.7312 119.391C96.5451 119.578 97.0773 120.393 96.8895 121.207C96.5451 122.772 96.2008 124.369 95.919 125.935C95.7938 126.686 95.1364 127.187 94.4164 127.187ZM97.4217 114.756C97.2651 114.756 97.1399 114.725 96.9834 114.694C96.1694 114.443 95.6999 113.598 95.9503 112.784C96.4199 111.218 96.9208 109.621 97.4217 108.087C97.7034 107.273 98.5486 106.866 99.3626 107.116C100.176 107.398 100.583 108.244 100.333 109.058C99.8321 110.561 99.3313 112.126 98.893 113.661C98.7052 114.318 98.0791 114.756 97.4217 114.756ZM101.648 102.639C101.46 102.639 101.272 102.608 101.084 102.514C100.302 102.201 99.9261 101.293 100.239 100.51C100.865 98.9755 101.523 97.4412 102.18 95.9696C102.524 95.1868 103.432 94.8424 104.215 95.2181C104.997 95.5625 105.342 96.4706 104.966 97.2533C104.309 98.725 103.683 100.197 103.057 101.7C102.806 102.294 102.243 102.639 101.648 102.639ZM107.032 91.0224C106.782 91.0224 106.563 90.9597 106.312 90.8345C105.561 90.4274 105.279 89.5194 105.686 88.7679C106.437 87.3276 107.251 85.856 108.065 84.4469C108.472 83.7268 109.411 83.4763 110.163 83.8833C110.883 84.2904 111.133 85.2297 110.726 85.9812C109.912 87.3589 109.13 88.7992 108.41 90.2083C108.128 90.7092 107.596 91.0224 107.032 91.0224ZM113.575 79.9694C113.293 79.9694 112.98 79.8755 112.73 79.7189C112.01 79.2492 111.822 78.3099 112.292 77.5897C113.199 76.212 114.139 74.8656 115.078 73.5192C115.579 72.8304 116.518 72.6738 117.206 73.1748C117.895 73.6758 118.052 74.6151 117.551 75.304C116.612 76.6191 115.704 77.9342 114.827 79.2805C114.545 79.7189 114.076 79.9694 113.575 79.9694ZM121.151 69.6366C120.806 69.6366 120.462 69.5114 120.18 69.2922C119.523 68.7599 119.429 67.7892 119.961 67.1317C120.994 65.8479 122.059 64.5955 123.154 63.343C123.718 62.7168 124.688 62.6541 125.314 63.1864C125.94 63.75 126.003 64.7207 125.471 65.3469C124.407 66.5681 123.373 67.7892 122.372 69.0417C122.027 69.4487 121.589 69.6366 121.151 69.6366ZM129.697 60.0866C129.321 60.0866 128.914 59.93 128.633 59.6482C128.038 59.0533 128.038 58.0827 128.633 57.4878C129.791 56.3292 130.981 55.1707 132.17 54.0435C132.796 53.4799 133.767 53.5112 134.33 54.1061C134.894 54.7323 134.862 55.703 134.268 56.2666C133.109 57.3625 131.951 58.4897 130.824 59.6482C130.511 59.93 130.104 60.0866 129.697 60.0866ZM139.151 51.4446C138.713 51.4446 138.275 51.2568 137.962 50.881C137.429 50.2235 137.523 49.2528 138.149 48.7205C139.402 47.6873 140.716 46.6227 142 45.652C142.657 45.151 143.628 45.2763 144.129 45.9338C144.63 46.5914 144.504 47.562 143.847 48.063C142.595 49.0336 141.311 50.0356 140.09 51.0689C139.84 51.3194 139.496 51.4446 139.151 51.4446ZM149.388 43.742C148.887 43.742 148.417 43.4915 148.136 43.0845C147.666 42.3956 147.854 41.425 148.543 40.9553C149.889 40.0473 151.298 39.1392 152.675 38.2625C153.395 37.8241 154.334 38.0433 154.772 38.7635C155.211 39.4836 154.991 40.423 154.271 40.8613C152.925 41.7068 151.548 42.5835 150.233 43.4915C149.983 43.6481 149.701 43.742 149.388 43.742ZM287.599 39.0453C287.349 39.0453 287.067 38.9827 286.817 38.8261C285.439 38.012 284.031 37.2292 282.591 36.4777C281.839 36.0707 281.557 35.1627 281.964 34.4112C282.371 33.6597 283.279 33.3779 284.031 33.785C285.471 34.5677 286.942 35.3505 288.351 36.1959C289.071 36.6343 289.321 37.5423 288.914 38.2938C288.664 38.7635 288.132 39.0453 287.599 39.0453ZM160.345 37.104C159.812 37.104 159.28 36.8222 158.999 36.2899C158.592 35.5384 158.873 34.6304 159.625 34.2233C161.065 33.4405 162.536 32.689 164.007 31.9689C164.759 31.5931 165.666 31.9063 166.042 32.6577C166.418 33.4092 166.105 34.3172 165.353 34.693C163.913 35.4132 162.473 36.1333 161.065 36.9161C160.846 37.0413 160.595 37.104 160.345 37.104ZM276.236 33.1587C276.016 33.1587 275.797 33.1274 275.61 33.0335C274.169 32.3759 272.667 31.7184 271.196 31.1235C270.413 30.8104 270.037 29.9023 270.35 29.1195C270.663 28.3368 271.571 27.961 272.354 28.2741C273.888 28.9004 275.39 29.5579 276.893 30.2468C277.676 30.5912 277.989 31.4992 277.644 32.282C277.363 32.8143 276.799 33.1587 276.236 33.1587ZM171.865 31.5618C171.27 31.5618 170.707 31.2174 170.456 30.6225C170.143 29.8397 170.487 28.963 171.27 28.6186C172.773 27.9923 174.307 27.3661 175.841 26.8025C176.623 26.4894 177.5 26.8964 177.813 27.6792C178.126 28.462 177.719 29.3387 176.936 29.6518C175.434 30.2154 173.931 30.8104 172.46 31.4366C172.272 31.5305 172.084 31.5618 171.865 31.5618ZM264.34 28.4307C264.183 28.4307 263.995 28.3994 263.839 28.3368C262.336 27.8045 260.771 27.3348 259.237 26.8651C258.423 26.6146 257.954 25.7692 258.204 24.9551C258.454 24.141 259.3 23.7027 260.114 23.9218C261.679 24.3915 263.275 24.8925 264.809 25.4248C265.623 25.7066 266.03 26.552 265.748 27.3661C265.561 28.0236 264.966 28.4307 264.34 28.4307ZM183.886 27.1782C183.229 27.1782 182.634 26.7712 182.415 26.1136C182.164 25.2995 182.602 24.4541 183.416 24.2036C184.982 23.734 186.578 23.2643 188.175 22.8259C188.989 22.6068 189.834 23.1077 190.053 23.9218C190.272 24.7359 189.771 25.5813 188.957 25.8005C187.423 26.2076 185.858 26.6459 184.324 27.1469C184.199 27.1782 184.042 27.1782 183.886 27.1782ZM252.006 24.8925C251.88 24.8925 251.786 24.8925 251.661 24.8612C250.096 24.4854 248.531 24.141 246.934 23.8592C246.12 23.7027 245.557 22.8886 245.713 22.0745C245.87 21.2604 246.684 20.6967 247.498 20.8533C249.094 21.1664 250.722 21.5108 252.319 21.8866C253.133 22.0745 253.665 22.8886 253.446 23.734C253.352 24.4228 252.694 24.8925 252.006 24.8925ZM196.314 24.0158C195.594 24.0158 194.968 23.5148 194.811 22.7946C194.655 21.9805 195.187 21.1664 196.001 20.9786C197.598 20.6654 199.257 20.3523 200.853 20.1018C201.698 19.9766 202.481 20.5402 202.606 21.3543C202.732 22.1997 202.168 22.9825 201.354 23.1077C199.789 23.3582 198.192 23.6713 196.596 23.9845C196.502 24.0158 196.408 24.0158 196.314 24.0158ZM239.421 22.5754C239.358 22.5754 239.296 22.5754 239.233 22.5754C237.637 22.3563 236.04 22.1684 234.443 22.0431C233.598 21.9492 232.972 21.229 233.066 20.3836C233.16 19.5382 233.88 18.912 234.725 19.0059C236.353 19.1625 238.012 19.3504 239.64 19.5695C240.485 19.6948 241.08 20.4463 240.955 21.2917C240.83 22.0118 240.172 22.5754 239.421 22.5754ZM208.961 22.1058C208.179 22.1058 207.521 21.5108 207.427 20.7281C207.333 19.8826 207.959 19.1312 208.805 19.0686C210.433 18.912 212.092 18.7554 213.72 18.6615C214.565 18.5989 215.285 19.2564 215.347 20.1018C215.41 20.9472 214.753 21.6674 213.907 21.73C212.311 21.824 210.683 21.9805 209.086 22.1371C209.055 22.1058 209.024 22.1058 208.961 22.1058ZM226.649 21.5108C226.617 21.5108 226.617 21.5108 226.586 21.5108C225.083 21.4482 223.581 21.4482 222.078 21.4482H221.734C220.888 21.4482 220.2 20.7594 220.2 19.914C220.2 19.0686 220.888 18.3797 221.734 18.3797H222.078C223.612 18.3797 225.146 18.411 226.68 18.4736C227.525 18.5049 228.182 19.2251 228.151 20.0392C228.151 20.8846 227.462 21.5108 226.649 21.5108Z" fill="white"></path><path d="M296.396 44.6499C296.083 44.6499 295.801 44.556 295.519 44.3681C294.862 43.8984 294.204 43.4601 293.516 43.0217C292.827 42.552 292.639 41.6127 293.109 40.8925C293.578 40.2037 294.518 40.0158 295.238 40.4855C295.926 40.9552 296.615 41.3935 297.272 41.8632C297.961 42.3329 298.149 43.3035 297.648 43.9924C297.366 44.4307 296.897 44.6499 296.396 44.6499Z" fill="white"></path><path d="M350.178 128.001C349.458 128.001 348.8 127.5 348.675 126.749C348.519 125.966 348.362 125.152 348.206 124.369C348.049 123.555 348.581 122.741 349.395 122.553C350.209 122.396 351.023 122.929 351.211 123.743C351.367 124.557 351.524 125.371 351.68 126.185C351.837 127.031 351.273 127.813 350.46 127.97C350.366 128.001 350.272 128.001 350.178 128.001Z" fill="white"></path><path d="M223.267 281.678C222.421 281.678 221.733 280.989 221.733 280.144C221.733 279.298 222.421 278.61 223.267 278.61C224.832 278.61 226.428 278.547 228.025 278.484C228.87 278.453 229.59 279.111 229.621 279.956C229.653 280.801 228.995 281.522 228.15 281.553C226.522 281.647 224.863 281.678 223.267 281.678ZM215.44 281.522C215.409 281.522 215.378 281.522 215.346 281.522C214.595 281.49 213.875 281.428 213.124 281.396C212.247 281.334 211.371 281.271 210.494 281.177C209.649 281.115 209.023 280.363 209.117 279.518C209.179 278.672 209.931 278.046 210.776 278.14C211.621 278.203 212.498 278.297 213.343 278.328C214.063 278.39 214.783 278.422 215.534 278.453C216.379 278.484 217.037 279.205 216.974 280.05C216.943 280.864 216.254 281.522 215.44 281.522ZM235.851 280.989C235.069 280.989 234.411 280.394 234.317 279.612C234.223 278.766 234.849 278.015 235.695 277.921C237.26 277.764 238.856 277.576 240.422 277.357C241.267 277.232 242.018 277.827 242.143 278.641C242.269 279.486 241.674 280.238 240.86 280.363C239.263 280.582 237.636 280.801 236.039 280.958C235.945 280.989 235.882 280.989 235.851 280.989ZM202.887 280.238C202.824 280.238 202.73 280.238 202.668 280.207C201.071 279.956 199.443 279.706 197.878 279.392C197.033 279.236 196.501 278.453 196.657 277.608C196.814 276.762 197.596 276.23 198.442 276.387C199.976 276.668 201.572 276.95 203.137 277.169C203.983 277.295 204.546 278.077 204.421 278.891C204.296 279.706 203.638 280.238 202.887 280.238ZM248.311 279.079C247.59 279.079 246.964 278.578 246.808 277.858C246.651 277.044 247.184 276.23 247.997 276.042C249.531 275.729 251.097 275.385 252.631 275.009C253.445 274.821 254.29 275.322 254.478 276.136C254.665 276.95 254.165 277.796 253.351 277.983C251.785 278.359 250.189 278.735 248.592 279.048C248.498 279.079 248.404 279.079 248.311 279.079ZM190.522 277.796C190.396 277.796 190.271 277.796 190.146 277.764C188.581 277.357 186.984 276.95 185.45 276.512C184.636 276.261 184.167 275.416 184.417 274.633C184.668 273.819 185.513 273.349 186.295 273.6C187.798 274.038 189.363 274.445 190.866 274.852C191.68 275.071 192.181 275.886 191.993 276.7C191.836 277.326 191.21 277.796 190.522 277.796ZM260.519 275.948C259.862 275.948 259.267 275.541 259.048 274.884C258.798 274.069 259.267 273.224 260.05 272.974C261.552 272.504 263.055 272.003 264.558 271.502C265.34 271.22 266.217 271.658 266.499 272.441C266.78 273.224 266.342 274.101 265.56 274.383C264.057 274.915 262.492 275.416 260.958 275.885C260.801 275.948 260.676 275.948 260.519 275.948ZM178.438 274.132C178.281 274.132 178.093 274.101 177.937 274.038C176.403 273.506 174.9 272.911 173.398 272.316C172.615 272.003 172.239 271.126 172.553 270.343C172.866 269.561 173.742 269.185 174.525 269.498C175.996 270.093 177.499 270.656 178.97 271.189C179.753 271.471 180.191 272.347 179.909 273.13C179.659 273.756 179.095 274.132 178.438 274.132ZM272.353 271.658C271.758 271.658 271.194 271.314 270.944 270.719C270.631 269.936 270.975 269.06 271.758 268.715C273.198 268.12 274.669 267.463 276.109 266.805C276.861 266.461 277.8 266.774 278.144 267.557C278.488 268.308 278.175 269.216 277.393 269.592C275.921 270.281 274.45 270.938 272.948 271.533C272.728 271.627 272.541 271.658 272.353 271.658ZM166.792 269.31C166.573 269.31 166.354 269.279 166.135 269.154C164.664 268.465 163.192 267.745 161.784 266.993C161.032 266.617 160.751 265.678 161.126 264.926C161.502 264.175 162.441 263.893 163.192 264.269C164.601 264.989 166.01 265.709 167.45 266.367C168.201 266.711 168.545 267.651 168.17 268.402C167.919 268.997 167.356 269.31 166.792 269.31ZM283.716 266.242C283.184 266.242 282.652 265.96 282.37 265.427C281.963 264.676 282.245 263.768 282.996 263.361C284.374 262.609 285.783 261.827 287.129 261.044C287.849 260.606 288.788 260.856 289.226 261.576C289.664 262.296 289.414 263.236 288.694 263.674C287.316 264.488 285.876 265.302 284.468 266.054C284.217 266.179 283.967 266.242 283.716 266.242ZM155.648 263.392C155.366 263.392 155.116 263.33 154.865 263.173C153.488 262.359 152.079 261.482 150.733 260.605C150.013 260.136 149.825 259.196 150.295 258.476C150.764 257.756 151.703 257.568 152.423 258.038C153.738 258.883 155.116 259.729 156.462 260.543C157.182 260.981 157.432 261.921 156.994 262.641C156.681 263.142 156.18 263.392 155.648 263.392ZM294.517 259.76C294.016 259.76 293.546 259.51 293.233 259.071C292.764 258.382 292.951 257.412 293.64 256.942C294.955 256.065 296.27 255.157 297.522 254.218C298.211 253.717 299.15 253.874 299.651 254.562C300.152 255.251 299.995 256.191 299.306 256.692C297.991 257.631 296.645 258.57 295.331 259.478C295.08 259.666 294.798 259.76 294.517 259.76ZM304.628 252.245C304.19 252.245 303.752 252.057 303.439 251.682C302.906 251.024 303 250.054 303.658 249.521C304.879 248.519 306.099 247.486 307.289 246.453C307.915 245.889 308.886 245.952 309.449 246.578C310.013 247.204 309.95 248.175 309.324 248.738C308.103 249.803 306.851 250.868 305.63 251.901C305.317 252.151 304.972 252.245 304.628 252.245ZM313.988 243.791C313.581 243.791 313.206 243.635 312.893 243.353C312.298 242.758 312.298 241.787 312.893 241.192C314.02 240.065 315.115 238.938 316.211 237.779C316.774 237.153 317.745 237.122 318.371 237.717C318.997 238.28 319.028 239.251 318.434 239.877C317.338 241.067 316.18 242.226 315.053 243.384C314.771 243.666 314.364 243.791 313.988 243.791ZM322.503 234.492C322.159 234.492 321.815 234.366 321.533 234.147C320.875 233.615 320.781 232.644 321.345 231.987C322.347 230.766 323.348 229.513 324.319 228.261C324.82 227.603 325.79 227.478 326.448 227.979C327.105 228.48 327.23 229.451 326.729 230.108C325.759 231.392 324.726 232.676 323.693 233.928C323.348 234.304 322.941 234.492 322.503 234.492ZM330.048 224.378C329.766 224.378 329.453 224.284 329.202 224.128C328.514 223.658 328.326 222.719 328.796 221.998C329.672 220.683 330.549 219.337 331.394 218.022C331.832 217.302 332.771 217.083 333.491 217.521C334.211 217.959 334.43 218.899 333.992 219.619C333.147 220.996 332.239 222.374 331.331 223.689C331.018 224.159 330.549 224.378 330.048 224.378ZM336.622 213.607C336.371 213.607 336.121 213.544 335.902 213.419C335.15 213.012 334.9 212.073 335.276 211.353C336.027 209.975 336.778 208.534 337.467 207.125C337.843 206.374 338.751 206.061 339.502 206.437C340.253 206.812 340.566 207.72 340.191 208.472C339.471 209.912 338.719 211.384 337.937 212.793C337.686 213.294 337.154 213.607 336.622 213.607ZM342.1 202.21C341.912 202.21 341.693 202.178 341.505 202.084C340.723 201.771 340.378 200.863 340.691 200.08C341.318 198.64 341.912 197.137 342.476 195.665C342.789 194.883 343.665 194.476 344.448 194.789C345.231 195.102 345.638 195.979 345.325 196.761C344.761 198.264 344.135 199.799 343.509 201.302C343.258 201.865 342.695 202.21 342.1 202.21ZM346.42 190.374C346.264 190.374 346.107 190.343 345.951 190.311C345.137 190.061 344.698 189.215 344.949 188.401C345.418 186.898 345.857 185.364 346.264 183.83C346.483 183.016 347.328 182.546 348.142 182.765C348.956 182.984 349.426 183.83 349.206 184.644C348.799 186.209 348.33 187.775 347.86 189.309C347.672 189.935 347.078 190.374 346.42 190.374ZM349.582 178.162C349.488 178.162 349.363 178.162 349.269 178.131C348.455 177.974 347.923 177.16 348.079 176.315C348.392 174.781 348.705 173.215 348.956 171.65C349.112 170.804 349.895 170.272 350.709 170.397C351.554 170.522 352.086 171.336 351.961 172.151C351.679 173.747 351.398 175.344 351.053 176.941C350.928 177.661 350.302 178.162 349.582 178.162ZM351.554 165.7C351.492 165.7 351.429 165.7 351.398 165.7C350.552 165.606 349.958 164.855 350.052 164.01C350.208 162.444 350.365 160.847 350.49 159.282C350.552 158.436 351.273 157.81 352.118 157.872C352.963 157.935 353.589 158.655 353.526 159.501C353.401 161.129 353.276 162.757 353.088 164.354C352.963 165.105 352.306 165.7 351.554 165.7ZM352.306 153.113C351.429 153.113 350.772 152.424 350.772 151.579C350.772 151.015 350.772 150.483 350.772 149.919C350.772 148.886 350.772 147.853 350.74 146.82C350.709 145.974 351.398 145.285 352.243 145.254C353.119 145.254 353.777 145.911 353.808 146.757C353.839 147.821 353.84 148.855 353.84 149.919C353.84 150.483 353.84 151.047 353.84 151.61C353.808 152.456 353.151 153.113 352.306 153.113ZM351.867 140.495C351.085 140.495 350.427 139.9 350.333 139.086C350.208 137.52 350.052 135.923 349.832 134.358C349.739 133.512 350.333 132.761 351.179 132.667C352.024 132.573 352.775 133.168 352.869 134.013C353.057 135.61 353.245 137.238 353.37 138.835C353.433 139.681 352.806 140.401 351.961 140.495C351.93 140.495 351.899 140.495 351.867 140.495Z" fill="white"></path><path d="M145.13 256.378C144.817 256.378 144.504 256.284 144.222 256.065C143.565 255.564 142.907 255.095 142.25 254.594C141.592 254.093 141.467 253.122 141.968 252.464C142.469 251.807 143.439 251.682 144.097 252.183C144.723 252.684 145.38 253.153 146.038 253.623C146.726 254.124 146.852 255.095 146.351 255.752C146.038 256.159 145.599 256.378 145.13 256.378Z" fill="white"></path><path d="M151.986 221.122C152.393 221.623 153.113 221.842 153.739 221.591L171.583 215.016C178.626 220.433 186.547 224.754 195.187 227.728L199.538 246.233C199.695 246.891 200.227 247.361 200.916 247.423L223.58 249.709C224.238 249.772 224.864 249.427 225.146 248.801L233.128 231.548C242.176 230.359 250.847 227.728 258.799 223.814L274.952 233.834C275.515 234.179 276.235 234.147 276.768 233.709L294.424 219.306C294.924 218.899 295.144 218.178 294.893 217.552L288.319 199.705C293.735 192.66 298.055 184.738 301.029 176.096L319.53 171.743C320.188 171.587 320.657 171.055 320.72 170.366L323.005 147.696C323.068 147.039 322.723 146.412 322.097 146.131L304.848 138.146C303.659 129.097 301.029 120.424 297.116 112.471L307.133 96.3141C307.478 95.7505 307.446 95.0303 307.008 94.498L292.608 76.8383C292.201 76.3373 291.481 76.1182 290.855 76.3686L273.011 82.9441C265.967 77.5272 258.047 73.2062 249.407 70.2316L245.056 51.7265C244.899 51.069 244.367 50.5993 243.678 50.5367L221.013 48.2509C220.356 48.1883 219.73 48.5327 219.448 49.159L211.465 66.4116C202.418 67.6014 193.747 70.2316 185.795 74.1455L169.642 64.1259C169.078 63.7814 168.358 63.8127 167.826 64.2511L150.17 78.6544C149.669 79.0614 149.45 79.7816 149.701 80.4078L156.275 98.2554C150.859 105.3 146.539 113.222 143.565 121.864L125.064 126.217C124.406 126.373 123.937 126.905 123.874 127.594L121.589 150.264C121.526 150.921 121.871 151.548 122.497 151.829L139.746 159.814C140.935 168.863 143.565 177.536 147.478 185.489L137.46 201.646C137.116 202.21 137.147 202.93 137.586 203.462L151.986 221.122Z" fill="white"></path><path d="M222.265 170.491C217.694 170.491 213.249 169.019 209.524 166.264C204.922 162.851 201.917 157.841 201.103 152.174C200.257 146.506 201.697 140.839 205.11 136.236C208.522 131.633 213.531 128.628 219.197 127.813C224.863 126.968 230.529 128.408 235.131 131.821C239.733 135.234 242.738 140.244 243.552 145.911C245.274 157.622 237.166 168.55 225.458 170.272C224.362 170.397 223.329 170.491 222.265 170.491ZM222.359 129.974C221.42 129.974 220.48 130.037 219.541 130.193C214.501 130.945 210.087 133.575 207.051 137.677C204.014 141.747 202.762 146.757 203.513 151.798C204.264 156.839 206.894 161.254 210.995 164.291C215.065 167.329 220.073 168.581 225.114 167.829C235.475 166.295 242.676 156.62 241.142 146.225C240.39 141.183 237.761 136.769 233.66 133.731C230.341 131.289 226.397 129.974 222.359 129.974Z" fill="#C31130"></path><path d="M222.704 204.307C220.825 204.307 218.947 204.214 217.069 204.026C213.124 203.619 209.211 202.804 205.486 201.583C205.235 201.489 205.048 201.27 205.048 200.988C205.048 200.926 205.048 200.863 205.079 200.801C205.173 200.487 205.517 200.3 205.862 200.394C209.524 201.583 213.343 202.366 217.194 202.773C247.028 205.81 273.762 183.986 276.799 154.146C276.986 152.299 277.08 150.452 277.08 148.604C277.08 121.05 256.137 97.3787 228.182 94.5294C198.348 91.5235 171.614 113.316 168.577 143.156C168.39 145.003 168.296 146.851 168.296 148.667C168.296 156.62 170.049 164.511 173.43 171.712C173.461 171.806 173.492 171.9 173.492 171.963C173.492 172.182 173.367 172.401 173.148 172.526C172.835 172.683 172.49 172.526 172.334 172.244C168.859 164.855 167.075 156.808 167.075 148.667C167.075 146.788 167.169 144.91 167.356 143.031C170.456 112.502 197.785 90.2084 228.307 93.3082C256.92 96.2202 278.301 120.424 278.333 148.604C278.333 150.483 278.239 152.362 278.051 154.272C275.077 182.89 250.878 204.307 222.704 204.307Z" fill="#C31130"></path><path d="M342.884 91.9932L348.894 89.2378C351.493 90.9286 354.341 92.2124 357.441 92.9952L359.444 99.2888C359.507 99.508 359.726 99.6645 359.945 99.6645L367.865 99.8211C368.084 99.8211 368.303 99.6958 368.397 99.4767L370.683 93.277C373.782 92.6194 376.724 91.4609 379.385 89.8953L385.271 92.9325C385.49 93.0265 385.74 92.9952 385.897 92.8386L391.626 87.3591C391.782 87.2025 391.845 86.9521 391.751 86.7329L388.996 80.7211C390.686 78.1222 391.97 75.2729 392.753 72.173L399.045 70.1691C399.264 70.1065 399.421 69.8873 399.421 69.6681L399.577 61.7463C399.577 61.5271 399.452 61.3079 399.233 61.214L393.034 58.9283C392.377 55.8284 391.219 52.8852 389.653 50.2237L392.69 44.3371C392.784 44.1179 392.753 43.8674 392.596 43.7109L387.118 37.9809C386.961 37.8243 386.711 37.7617 386.492 37.8556L380.481 40.6111C377.883 38.9202 375.034 37.6365 371.935 36.8537L369.931 30.5601C369.869 30.3409 369.65 30.1843 369.43 30.1843L361.51 30.0278C361.291 30.0278 361.072 30.153 360.978 30.3722L358.693 36.5719C355.594 37.2294 352.651 38.3879 349.99 39.9535L344.105 36.9163C343.886 36.8224 343.635 36.8537 343.479 37.0102L337.75 42.4897C337.593 42.6463 337.531 42.8968 337.625 43.116L340.379 49.1278C338.689 51.7266 337.405 54.576 336.623 57.6758L330.331 59.6798C330.111 59.7424 329.955 59.9616 329.955 60.1807L329.798 68.1025C329.798 68.3217 329.924 68.5409 330.143 68.6348L336.341 70.9206C336.998 74.0204 338.157 76.9637 339.722 79.6252L336.685 85.5117C336.592 85.7309 336.623 85.9814 336.779 86.138L342.258 91.868C342.446 92.0245 342.696 92.0871 342.884 91.9932Z" fill="white"></path><path d="M364.64 72.5801C363.231 72.5801 361.822 72.173 360.601 71.4215C358.88 70.3256 357.659 68.6348 357.22 66.6622C356.751 64.6583 357.095 62.623 358.191 60.9009C359.286 59.1787 360.977 57.9576 362.949 57.5192C367.05 56.5799 371.182 59.1474 372.121 63.2492C372.591 65.2532 372.247 67.2884 371.151 69.0106C370.055 70.7327 368.365 71.9538 366.393 72.3922C365.798 72.5174 365.203 72.5801 364.64 72.5801ZM364.671 58.5212C364.201 58.5212 363.7 58.5838 363.231 58.6778C361.572 59.0535 360.132 60.0868 359.224 61.5271C358.316 62.9674 358.034 64.6896 358.41 66.3804C358.786 68.0712 359.819 69.4802 361.259 70.3883C362.699 71.2963 364.42 71.5781 366.111 71.2024C367.77 70.8266 369.21 69.7933 370.118 68.353C371.026 66.9127 371.308 65.1906 370.932 63.4997C370.243 60.5251 367.582 58.5212 364.671 58.5212Z" fill="#C31130"></path><g opacity="0.64"><path opacity="0.64" d="M329.108 89.7701C328.607 89.7701 328.106 89.5196 327.825 89.0813C327.355 88.3924 326.917 87.6409 326.51 86.9208C326.103 86.2006 326.353 85.2613 327.073 84.8229C327.793 84.4158 328.733 84.6663 329.171 85.3865C329.578 86.0754 329.985 86.7329 330.392 87.3904C330.861 88.1106 330.642 89.0499 329.953 89.5196C329.703 89.6762 329.421 89.7701 329.108 89.7701Z" fill="white"></path><path opacity="0.64" d="M324.507 80.314C323.881 80.314 323.286 79.907 323.067 79.2808C322.566 77.8091 322.128 76.3062 321.784 74.8032L321.69 74.3335C321.502 73.5194 322.034 72.7053 322.848 72.5175C323.662 72.3296 324.476 72.8619 324.664 73.676L324.758 74.1144C325.071 75.5234 325.478 76.9324 325.947 78.3101C326.229 79.1242 325.791 79.9696 325.008 80.2514C324.82 80.2827 324.664 80.314 324.507 80.314ZM322.191 67.4763C321.377 67.4763 320.688 66.8188 320.657 65.9734C320.657 65.5976 320.657 65.2532 320.657 64.8775C320.657 63.5311 320.719 62.1534 320.845 60.807C320.938 59.9616 321.658 59.3353 322.504 59.4293C323.349 59.5232 323.975 60.2434 323.881 61.0888C323.756 62.3412 323.693 63.625 323.693 64.8775C323.693 65.2219 323.693 65.535 323.693 65.8794C323.725 66.7248 323.036 67.4137 322.191 67.445C322.222 67.4763 322.191 67.4763 322.191 67.4763ZM323.881 54.5447C323.725 54.5447 323.599 54.5134 323.443 54.4821C322.629 54.2316 322.159 53.3862 322.41 52.5721C322.879 50.9125 323.474 49.2843 324.163 47.7188C324.507 46.936 325.384 46.5916 326.166 46.9047C326.949 47.2491 327.293 48.1258 326.98 48.9086C326.354 50.3802 325.822 51.9145 325.352 53.4488C325.165 54.1063 324.539 54.5447 323.881 54.5447ZM329.422 42.7402C329.14 42.7402 328.827 42.6463 328.577 42.4898C327.888 42.0201 327.7 41.0807 328.17 40.3606C329.14 38.9516 330.173 37.5425 331.3 36.2588C331.864 35.6325 332.803 35.5386 333.46 36.1022C334.087 36.6658 334.18 37.6052 333.617 38.2627C332.584 39.4839 331.613 40.7676 330.706 42.0827C330.393 42.4898 329.923 42.7402 329.422 42.7402ZM338.25 33.1589C337.812 33.1589 337.342 32.9711 337.061 32.5953C336.528 31.9378 336.654 30.9671 337.311 30.4348C338.657 29.3702 340.066 28.3683 341.537 27.4602C342.257 27.0219 343.196 27.2411 343.635 27.9612C344.073 28.6814 343.854 29.6207 343.134 30.0591C341.788 30.9045 340.441 31.8125 339.221 32.8145C338.939 33.065 338.595 33.1589 338.25 33.1589ZM349.614 26.7401C348.988 26.7401 348.424 26.3643 348.174 25.7381C347.861 24.9553 348.268 24.0786 349.05 23.7655C350.647 23.1706 352.306 22.6383 353.965 22.2312C354.779 22.0434 355.624 22.513 355.812 23.3584C356.031 24.1725 355.531 25.0179 354.685 25.2058C353.12 25.5815 351.586 26.0825 350.115 26.6461C349.958 26.7088 349.77 26.7401 349.614 26.7401ZM367.333 24.0473C367.301 24.0473 367.27 24.0473 367.239 24.0473C366.393 23.9847 365.548 23.9534 364.703 23.9534C363.952 23.9534 363.2 23.9847 362.449 24.016C361.604 24.0473 360.884 23.4211 360.852 22.5756C360.821 21.7302 361.447 21.0101 362.292 20.9788C363.106 20.9474 363.92 20.9161 364.734 20.9161C365.642 20.9161 366.55 20.9474 367.458 21.0101C368.303 21.0727 368.929 21.7929 368.898 22.6383C368.804 23.4211 368.146 24.0473 367.333 24.0473Z" fill="white"></path><path opacity="0.64" d="M377.694 26.0199C377.537 26.0199 377.381 25.9886 377.224 25.9573C376.473 25.7068 375.722 25.4876 374.97 25.2997C374.157 25.0805 373.656 24.2664 373.875 23.421C374.094 22.6069 374.908 22.1059 375.753 22.3251C376.567 22.5443 377.381 22.7635 378.195 23.0453C379.009 23.2958 379.447 24.1725 379.165 24.9553C378.946 25.6128 378.351 26.0199 377.694 26.0199Z" fill="white"></path></g><g opacity="0.64"><path opacity="0.64" d="M403.146 48.4389C402.583 48.4389 402.019 48.1258 401.769 47.5622C401.425 46.842 401.08 46.1531 400.705 45.4643C400.298 44.7128 400.579 43.8048 401.331 43.3977C402.082 42.9907 402.99 43.2725 403.397 44.024C403.804 44.7754 404.179 45.5269 404.524 46.2784C404.868 47.0299 404.555 47.9379 403.772 48.3136C403.585 48.4076 403.365 48.4389 403.146 48.4389Z" fill="white"></path><path opacity="0.64" d="M364.609 108.964C362.981 108.964 361.322 108.87 359.694 108.682C358.849 108.588 358.254 107.837 358.348 106.991C358.442 106.146 359.193 105.551 360.039 105.645C361.541 105.802 363.075 105.896 364.609 105.896H364.766C365.611 105.896 366.3 106.584 366.3 107.43C366.3 108.275 365.611 108.964 364.766 108.964H364.609ZM372.686 108.181C371.966 108.181 371.34 107.68 371.183 106.929C371.027 106.115 371.559 105.301 372.404 105.144C372.874 105.05 373.343 104.956 373.813 104.831C374.877 104.58 375.942 104.299 376.975 103.954C377.789 103.704 378.634 104.142 378.884 104.956C379.135 105.77 378.696 106.616 377.882 106.866C376.755 107.211 375.628 107.524 374.47 107.806C373.969 107.931 373.468 108.025 372.968 108.119C372.905 108.181 372.78 108.181 372.686 108.181ZM384.801 103.892C384.269 103.892 383.736 103.61 383.455 103.077C383.048 102.326 383.33 101.418 384.081 101.011C385.458 100.259 386.804 99.4454 388.119 98.5373C388.808 98.0677 389.778 98.2242 390.248 98.9131C390.717 99.6019 390.561 100.573 389.872 101.042C388.495 102.013 387.023 102.89 385.552 103.704C385.27 103.829 385.02 103.892 384.801 103.892ZM395.038 96.189C394.662 96.189 394.255 96.0324 393.973 95.7506C393.378 95.1557 393.347 94.185 393.942 93.5901C395.038 92.4629 396.071 91.2731 397.041 90.0206C397.542 89.3631 398.512 89.2378 399.17 89.7388C399.827 90.2398 399.952 91.2104 399.452 91.868C398.418 93.2144 397.292 94.4981 396.133 95.688C395.82 96.0324 395.413 96.189 395.038 96.189ZM402.519 85.7622C402.3 85.7622 402.05 85.6996 401.831 85.6057C401.079 85.2299 400.766 84.2906 401.173 83.5391C401.893 82.1301 402.519 80.6898 403.083 79.2181C403.365 78.4354 404.273 78.0283 405.055 78.3101C405.838 78.5919 406.245 79.4999 405.963 80.2827C405.368 81.8483 404.68 83.4139 403.928 84.9168C403.615 85.4491 403.052 85.7622 402.519 85.7622ZM406.558 73.5821C406.464 73.5821 406.401 73.5821 406.307 73.5508C405.462 73.3942 404.93 72.6114 405.055 71.7973C405.306 70.2317 405.493 68.6662 405.587 67.1006C405.619 66.2552 406.339 65.5976 407.184 65.6603C408.029 65.6916 408.687 66.4117 408.624 67.2572C408.53 68.948 408.342 70.6388 408.06 72.2983C407.935 73.0498 407.278 73.5821 406.558 73.5821ZM406.746 60.7444C405.994 60.7444 405.337 60.1808 405.243 59.4293C405.086 58.2081 404.836 56.987 404.586 55.7658C404.523 55.4214 404.429 55.1083 404.335 54.7952C404.116 53.9811 404.617 53.1357 405.431 52.9478C406.245 52.7286 407.09 53.2296 407.278 54.0437C407.372 54.3881 407.466 54.7326 407.528 55.1083C407.841 56.3921 408.06 57.7385 408.248 59.0222C408.373 59.8676 407.779 60.6191 406.933 60.7444C406.902 60.7444 406.84 60.7444 406.746 60.7444Z" fill="white"></path><path opacity="0.64" d="M352.056 107.054C351.899 107.054 351.743 107.023 351.586 106.991C350.772 106.741 349.99 106.459 349.207 106.177C348.425 105.895 348.018 104.987 348.299 104.205C348.581 103.422 349.489 103.015 350.272 103.297C351.023 103.578 351.743 103.829 352.494 104.048C353.308 104.299 353.746 105.144 353.496 105.958C353.339 106.616 352.713 107.054 352.056 107.054Z" fill="white"></path></g><path d="M364.671 84.6663C364.515 84.6663 364.39 84.6663 364.233 84.6663C362.949 84.6349 361.635 84.4784 360.382 84.1966C360.289 84.1653 360.163 84.1653 360.069 84.134C359.788 84.0713 359.6 83.8208 359.6 83.539C359.6 83.5077 359.6 83.4451 359.631 83.3825C359.694 83.0694 360.038 82.8502 360.382 82.9441C361.666 83.2572 362.981 83.4138 364.296 83.4451C364.421 83.4451 364.577 83.4451 364.703 83.4451C374.438 83.4451 382.484 75.8677 383.172 66.2238C383.204 65.942 383.204 65.6289 383.204 65.3471C383.204 65.2218 383.204 65.0653 383.204 64.94C383.204 54.9203 375.158 46.6541 365.11 46.4349C354.904 46.2157 346.421 54.3254 346.201 64.533C346.201 64.6582 346.201 64.8148 346.201 64.94C346.201 68.1651 347.047 71.3276 348.612 74.083C348.674 74.1769 348.706 74.2708 348.706 74.3961C348.706 74.6153 348.581 74.8031 348.393 74.9284C348.111 75.0849 347.735 74.991 347.547 74.7092C345.857 71.7346 344.98 68.3843 344.98 64.94C344.98 64.7835 344.98 64.6582 344.98 64.5017C345.231 53.6366 354.247 44.9633 365.141 45.1825C375.878 45.4017 384.456 54.2315 384.456 64.9087C384.456 65.0653 384.456 65.1905 384.456 65.3471C384.331 70.6074 382.171 75.5233 378.383 79.1867C374.595 82.7249 369.774 84.6663 364.671 84.6663Z" fill="#C31130"></path><g opacity="0.64"><path opacity="0.64" d="M24.0105 238.03C23.7601 238.03 23.5096 237.842 23.4157 237.592C23.2592 237.091 23.134 236.59 23.0088 236.089C22.9148 235.776 23.134 235.431 23.447 235.337C23.7601 235.243 24.1044 235.463 24.1983 235.776C24.3236 236.277 24.4488 236.746 24.6053 237.216C24.6992 237.529 24.5114 237.874 24.1983 237.967C24.1357 238.03 24.0731 238.03 24.0105 238.03Z" fill="white"></path><path opacity="0.64" d="M22.9153 233.646C22.6336 233.646 22.3832 233.458 22.3206 233.145C22.1327 232.175 21.9449 231.141 21.8197 230.171C21.7884 229.826 22.0075 229.513 22.3519 229.482C22.6962 229.451 23.0093 229.67 23.0406 230.014C23.1658 230.985 23.3536 231.956 23.5414 232.926C23.6041 233.271 23.3849 233.584 23.0719 233.646C23.0093 233.646 22.978 233.646 22.9153 233.646ZM22.1014 227.728C21.7884 227.728 21.5066 227.478 21.5066 227.165C21.4127 226.163 21.3814 225.161 21.3501 224.128C21.3501 223.783 21.6005 223.501 21.9449 223.501C22.2892 223.501 22.571 223.752 22.571 224.096C22.6023 225.067 22.6336 226.069 22.7275 227.04C22.7588 227.384 22.5084 227.666 22.164 227.697C22.1327 227.728 22.1327 227.728 22.1014 227.728ZM22.0075 221.748C21.9762 221.748 21.9762 221.748 22.0075 221.748C21.6318 221.748 21.3814 221.466 21.3814 221.122C21.4127 220.589 21.444 220.026 21.4753 219.494C21.5066 219.024 21.5379 218.554 21.6005 218.116C21.6318 217.771 21.9136 217.521 22.2579 217.552C22.6023 217.584 22.8527 217.897 22.8214 218.21C22.7901 218.648 22.7275 219.118 22.6962 219.556C22.6649 220.088 22.6336 220.621 22.6023 221.153C22.6023 221.497 22.3206 221.748 22.0075 221.748ZM22.571 215.799C22.5397 215.799 22.5084 215.799 22.4771 215.799C22.1327 215.736 21.9136 215.423 21.9762 215.11C22.1327 214.108 22.3206 213.106 22.5397 212.135C22.6023 211.791 22.9467 211.603 23.2597 211.666C23.6041 211.728 23.7919 212.073 23.7293 212.386C23.5101 213.356 23.3536 214.327 23.1971 215.298C23.1345 215.58 22.8527 215.799 22.571 215.799ZM23.8232 209.944C23.7606 209.944 23.7293 209.944 23.6667 209.912C23.3536 209.818 23.1658 209.474 23.2284 209.161C23.5101 208.19 23.7919 207.219 24.1362 206.28C24.2302 205.967 24.6058 205.779 24.9189 205.904C25.2319 205.998 25.4197 206.374 25.2945 206.687C24.9815 207.626 24.6684 208.566 24.418 209.505C24.3241 209.787 24.0736 209.944 23.8232 209.944ZM25.7641 204.307C25.7015 204.307 25.6076 204.307 25.545 204.276C25.2319 204.151 25.0754 203.806 25.2006 203.493C25.5763 202.554 25.9832 201.615 26.4215 200.738C26.578 200.425 26.9224 200.3 27.2354 200.456C27.5485 200.613 27.6737 200.957 27.5172 201.27C27.0789 202.147 26.6719 203.055 26.3276 203.963C26.2337 204.151 25.9832 204.307 25.7641 204.307ZM28.3624 198.891C28.2685 198.891 28.1746 198.859 28.0807 198.828C27.7989 198.671 27.6737 198.296 27.8302 197.983C28.3311 197.106 28.832 196.229 29.3642 195.384C29.552 195.102 29.9277 195.008 30.2094 195.196C30.4911 195.384 30.5851 195.759 30.3972 196.041C29.865 196.887 29.3642 197.732 28.8946 198.577C28.7694 198.797 28.5502 198.891 28.3624 198.891ZM31.5555 193.849C31.4303 193.849 31.3051 193.818 31.2112 193.724C30.9294 193.536 30.8668 193.129 31.0859 192.879C31.6807 192.065 32.3068 191.251 32.9329 190.468C33.1521 190.217 33.5277 190.155 33.7782 190.374C34.0286 190.593 34.0912 190.969 33.8721 191.219C33.246 191.971 32.6512 192.754 32.0877 193.568C31.9312 193.756 31.7433 193.849 31.5555 193.849ZM35.3434 189.215C35.1869 189.215 35.0617 189.153 34.9365 189.059C34.686 188.84 34.686 188.433 34.9051 188.182C35.5939 187.431 36.2826 186.71 37.0026 186.022C37.253 185.771 37.6287 185.802 37.8791 186.022C38.1296 186.272 38.0983 186.648 37.8791 186.898C37.1904 187.587 36.4704 188.307 35.813 189.027C35.6565 189.153 35.4999 189.215 35.3434 189.215ZM39.6322 185.051C39.4757 185.051 39.2878 184.988 39.1626 184.832C38.9435 184.581 38.9748 184.205 39.2252 183.955C39.9766 183.297 40.7905 182.64 41.5731 182.045C41.8549 181.826 42.2305 181.888 42.4183 182.17C42.6375 182.452 42.5749 182.828 42.2931 183.016C41.5105 183.611 40.7592 184.237 40.0079 184.894C39.9139 184.988 39.7574 185.051 39.6322 185.051ZM44.3592 181.387C44.1714 181.387 43.9836 181.294 43.8584 181.106C43.6705 180.824 43.7332 180.448 44.0149 180.26C44.8601 179.697 45.7054 179.133 46.5819 178.632C46.8636 178.444 47.2393 178.569 47.4271 178.851C47.615 179.133 47.4897 179.509 47.208 179.697C46.3628 180.198 45.5175 180.73 44.7036 181.294C44.6097 181.356 44.4845 181.387 44.3592 181.387ZM98.2351 179.29C98.1412 179.29 98.016 179.258 97.922 179.196C97.0768 178.726 96.2003 178.256 95.3237 177.818C95.0107 177.661 94.8855 177.317 95.042 177.004C95.1985 176.691 95.5429 176.566 95.8559 176.722C96.7638 177.16 97.6716 177.661 98.5168 178.131C98.7986 178.288 98.9238 178.663 98.736 178.976C98.6734 179.196 98.4542 179.29 98.2351 179.29ZM49.4933 178.35C49.2741 178.35 49.055 178.225 48.9611 178.006C48.8046 177.693 48.9298 177.348 49.2115 177.192C50.0881 176.722 51.0272 176.284 51.935 175.877C52.2481 175.751 52.5925 175.877 52.749 176.19C52.8742 176.503 52.749 176.847 52.4359 177.004C51.5281 177.411 50.6515 177.849 49.775 178.288C49.6811 178.319 49.5872 178.35 49.4933 178.35ZM92.8819 176.628C92.788 176.628 92.7254 176.597 92.6315 176.566C91.7237 176.19 90.8158 175.814 89.8767 175.501C89.5636 175.376 89.4071 175.031 89.501 174.718C89.6262 174.405 89.9706 174.248 90.2836 174.342C91.2228 174.687 92.1932 175.063 93.1011 175.438C93.4141 175.564 93.5706 175.939 93.4141 176.252C93.3515 176.503 93.1324 176.628 92.8819 176.628ZM54.9403 175.908C54.6899 175.908 54.4707 175.751 54.3768 175.501C54.2516 175.188 54.4081 174.843 54.7212 174.718C55.6603 174.374 56.6308 174.029 57.5699 173.716C57.883 173.622 58.2273 173.81 58.3213 174.123C58.4152 174.436 58.2273 174.781 57.9143 174.875C56.9751 175.156 56.036 175.501 55.1282 175.845C55.0969 175.877 55.0029 175.908 54.9403 175.908ZM87.2471 174.655C87.1844 174.655 87.1218 174.655 87.0905 174.624C86.1514 174.342 85.1809 174.092 84.2418 173.873C83.8974 173.81 83.7096 173.466 83.7722 173.153C83.8348 172.808 84.1792 172.62 84.4922 172.683C85.4627 172.902 86.4644 173.153 87.4349 173.434C87.7479 173.528 87.9358 173.873 87.8418 174.186C87.7792 174.468 87.5288 174.655 87.2471 174.655ZM60.6378 174.123C60.3561 174.123 60.1056 173.935 60.043 173.654C59.9491 173.34 60.1683 172.996 60.4813 172.902C61.4518 172.652 62.4535 172.432 63.424 172.245C63.7683 172.182 64.0814 172.401 64.144 172.745C64.2066 173.09 63.9875 173.403 63.6431 173.466C62.6727 173.654 61.7022 173.873 60.7631 174.092C60.7317 174.123 60.7004 174.123 60.6378 174.123ZM81.4243 173.309C81.393 173.309 81.3617 173.309 81.3304 173.309C80.36 173.153 79.3895 173.027 78.3877 172.902C78.0434 172.871 77.8243 172.558 77.8556 172.245C77.8869 171.9 78.1999 171.65 78.513 171.712C79.5147 171.806 80.5165 171.963 81.5182 172.119C81.8626 172.182 82.0817 172.495 82.0191 172.808C81.9878 173.09 81.7061 173.309 81.4243 173.309ZM66.5232 173.027C66.2101 173.027 65.9597 172.808 65.9284 172.495C65.8971 172.151 66.1162 171.869 66.4606 171.806C67.4623 171.681 68.4641 171.587 69.4658 171.524C69.8102 171.493 70.0919 171.744 70.1232 172.088C70.1545 172.432 69.9041 172.714 69.5597 172.745C68.5893 172.808 67.5875 172.902 66.6171 173.027C66.5858 173.027 66.5545 173.027 66.5232 173.027ZM75.4764 172.683C75.4764 172.683 75.4451 172.683 75.4764 172.683C74.5998 172.652 73.7859 172.62 72.9407 172.62H72.5024C72.1581 172.62 71.8763 172.338 71.8763 172.025C71.8763 171.681 72.1581 171.399 72.4711 171.399H72.9407C73.7859 171.399 74.6625 171.43 75.5077 171.462C75.852 171.493 76.1025 171.775 76.1025 172.088C76.0712 172.432 75.7894 172.683 75.4764 172.683Z" fill="white"></path><path opacity="0.64" d="M102.086 181.732C101.96 181.732 101.835 181.7 101.741 181.638C101.334 181.356 100.896 181.074 100.489 180.792C100.207 180.605 100.114 180.229 100.301 179.947C100.489 179.665 100.865 179.571 101.147 179.759C101.585 180.041 101.992 180.323 102.43 180.636C102.712 180.824 102.774 181.199 102.587 181.481C102.493 181.638 102.305 181.732 102.086 181.732Z" fill="white"></path></g><g opacity="0.64"><path opacity="0.64" d="M123.31 214.985C123.028 214.985 122.747 214.765 122.715 214.484C122.621 213.983 122.527 213.482 122.434 213.012C122.371 212.667 122.59 212.354 122.903 212.292C123.247 212.229 123.561 212.448 123.623 212.761C123.717 213.262 123.811 213.763 123.905 214.296C123.967 214.64 123.748 214.953 123.404 215.016C123.373 214.985 123.341 214.985 123.31 214.985Z" fill="white"></path><path opacity="0.64" d="M72.1581 274.696C71.2502 274.696 70.3111 274.633 69.4345 274.57L69.0276 274.539C68.6832 274.508 68.4328 274.226 68.4641 273.881C68.4954 273.537 68.7771 273.287 69.1215 273.318L69.5284 273.349C70.405 273.412 71.3128 273.443 72.1894 273.474C72.5337 273.474 72.7842 273.756 72.7842 274.101C72.7842 274.445 72.5024 274.696 72.1581 274.696ZM75.2572 274.664C74.9442 274.664 74.6625 274.414 74.6625 274.069C74.6625 273.725 74.9129 273.443 75.2572 273.443C76.259 273.412 77.2921 273.318 78.2938 273.224C78.6382 273.193 78.9199 273.443 78.9512 273.756C78.9825 274.101 78.7321 274.382 78.4191 274.414C77.386 274.539 76.3216 274.633 75.2572 274.664C75.2886 274.664 75.2572 274.664 75.2572 274.664ZM65.991 274.226C65.9597 274.226 65.9284 274.226 65.8971 274.226C64.864 274.069 63.8309 273.913 62.7979 273.694C62.4535 273.631 62.2657 273.318 62.3283 272.973C62.3909 272.629 62.704 272.441 63.0483 272.504C64.0501 272.692 65.0518 272.879 66.0536 273.005C66.3979 273.036 66.6171 273.349 66.5858 273.694C66.5545 274.007 66.304 274.226 65.991 274.226ZM81.4243 274.038C81.1426 274.038 80.8608 273.819 80.8295 273.537C80.7669 273.193 80.9861 272.879 81.3304 272.848C82.3322 272.692 83.3339 272.472 84.3357 272.253C84.68 272.191 84.9931 272.378 85.0557 272.723C85.1183 273.067 84.9305 273.38 84.5861 273.443C83.5844 273.662 82.5513 273.881 81.5182 274.038C81.4869 274.038 81.4556 274.038 81.4243 274.038ZM59.9178 273.036C59.8552 273.036 59.8239 273.036 59.7613 273.005C58.7595 272.754 57.7578 272.441 56.756 272.128C56.443 272.034 56.2551 271.69 56.3804 271.345C56.4743 271.032 56.8186 270.844 57.163 270.969C58.1334 271.283 59.1039 271.564 60.1056 271.846C60.4187 271.94 60.6378 272.253 60.5439 272.598C60.45 272.848 60.1996 273.036 59.9178 273.036ZM87.4349 272.629C87.1844 272.629 86.934 272.441 86.8401 272.191C86.7462 271.878 86.934 271.533 87.2471 271.439C88.2175 271.157 89.188 270.844 90.1584 270.5C90.4715 270.375 90.8158 270.562 90.941 270.876C91.0663 271.189 90.8784 271.533 90.5654 271.658C89.5949 272.003 88.5932 272.347 87.5914 272.629C87.5601 272.629 87.4975 272.629 87.4349 272.629ZM54.0638 271.095C54.0012 271.095 53.9073 271.095 53.8447 271.063C52.8742 270.688 51.9038 270.249 50.9646 269.811C50.6516 269.654 50.5263 269.31 50.6829 268.997C50.8394 268.684 51.1837 268.558 51.4968 268.715C52.4046 269.153 53.3751 269.56 54.3142 269.936C54.6273 270.061 54.7838 270.406 54.6586 270.719C54.5334 270.938 54.2829 271.095 54.0638 271.095ZM93.2576 270.531C93.0072 270.531 92.788 270.406 92.6941 270.155C92.5689 269.842 92.6941 269.498 93.0072 269.341C93.9463 268.934 94.8541 268.496 95.762 268.057C96.075 267.901 96.4194 268.026 96.5759 268.339C96.7324 268.652 96.6072 268.997 96.2942 269.153C95.355 269.623 94.4159 270.061 93.4767 270.468C93.4141 270.531 93.3202 270.531 93.2576 270.531ZM48.4602 268.433C48.3663 268.433 48.2724 268.402 48.1785 268.371C47.2706 267.87 46.3628 267.337 45.4862 266.774C45.2045 266.586 45.1106 266.21 45.2984 265.928C45.4862 265.647 45.8619 265.553 46.1436 265.74C46.9889 266.273 47.8967 266.805 48.7733 267.306C49.055 267.463 49.1802 267.838 49.0237 268.151C48.8985 268.339 48.6793 268.433 48.4602 268.433ZM98.7673 267.744C98.5481 267.744 98.3603 267.65 98.2351 267.431C98.0786 267.149 98.1725 266.774 98.4542 266.586C99.3308 266.085 100.207 265.521 101.053 264.958C101.334 264.77 101.71 264.832 101.898 265.114C102.086 265.396 102.023 265.772 101.741 265.96C100.865 266.523 99.9882 267.087 99.0803 267.619C98.9551 267.713 98.8612 267.744 98.7673 267.744ZM103.901 264.3C103.713 264.3 103.526 264.206 103.4 264.05C103.181 263.768 103.244 263.392 103.526 263.204C104.34 262.578 105.122 261.952 105.905 261.294C106.155 261.075 106.562 261.106 106.781 261.357C107 261.607 106.969 262.014 106.719 262.234C105.936 262.922 105.122 263.58 104.277 264.206C104.152 264.269 104.027 264.3 103.901 264.3ZM108.566 260.261C108.409 260.261 108.253 260.198 108.127 260.073C107.877 259.823 107.908 259.447 108.127 259.196C108.847 258.476 109.567 257.756 110.256 257.005C110.475 256.754 110.882 256.723 111.133 256.973C111.383 257.192 111.414 257.599 111.164 257.85C110.475 258.633 109.724 259.384 108.973 260.104C108.879 260.198 108.722 260.261 108.566 260.261ZM112.761 255.689C112.635 255.689 112.479 255.658 112.385 255.564C112.134 255.345 112.072 254.969 112.291 254.719C112.917 253.936 113.543 253.122 114.138 252.277C114.326 251.995 114.701 251.932 114.983 252.12C115.265 252.308 115.328 252.684 115.14 252.965C114.545 253.811 113.888 254.656 113.261 255.47C113.105 255.627 112.917 255.689 112.761 255.689ZM116.329 250.648C116.204 250.648 116.11 250.617 116.016 250.554C115.735 250.367 115.641 249.991 115.828 249.709C116.361 248.832 116.893 247.956 117.362 247.079C117.519 246.797 117.895 246.672 118.176 246.828C118.458 246.985 118.583 247.361 118.427 247.642C117.926 248.55 117.394 249.458 116.862 250.366C116.736 250.554 116.548 250.648 116.329 250.648ZM119.272 245.2C119.178 245.2 119.084 245.169 119.022 245.137C118.709 244.981 118.583 244.636 118.74 244.323C119.178 243.415 119.585 242.445 119.961 241.505C120.086 241.192 120.43 241.036 120.743 241.161C121.056 241.286 121.213 241.631 121.088 241.944C120.712 242.914 120.305 243.885 119.867 244.824C119.742 245.075 119.522 245.2 119.272 245.2ZM121.557 239.439C121.495 239.439 121.432 239.439 121.369 239.407C121.056 239.314 120.869 238.969 120.962 238.625C121.276 237.654 121.557 236.683 121.808 235.681C121.902 235.368 122.215 235.149 122.559 235.243C122.872 235.337 123.091 235.65 122.997 235.995C122.747 236.996 122.434 238.03 122.121 239C122.058 239.282 121.808 239.439 121.557 239.439ZM123.091 233.458C123.06 233.458 123.029 233.458 122.966 233.458C122.622 233.396 122.403 233.083 122.496 232.738C122.684 231.736 122.841 230.734 122.997 229.732C123.029 229.388 123.342 229.169 123.686 229.2C124.03 229.231 124.25 229.544 124.218 229.889C124.093 230.922 123.905 231.955 123.717 232.989C123.623 233.239 123.373 233.458 123.091 233.458ZM123.905 227.321H123.874C123.529 227.29 123.279 227.008 123.31 226.664V226.538C123.373 225.568 123.404 224.597 123.436 223.626C123.436 223.282 123.717 223.032 124.062 223.032C124.406 223.032 124.656 223.313 124.656 223.658C124.656 224.66 124.594 225.662 124.531 226.664V226.789C124.5 227.071 124.218 227.321 123.905 227.321ZM123.968 221.122C123.655 221.122 123.373 220.871 123.373 220.527C123.31 219.525 123.248 218.491 123.123 217.489C123.091 217.145 123.342 216.863 123.655 216.801C123.968 216.769 124.281 217.02 124.343 217.333C124.469 218.366 124.531 219.431 124.594 220.464C124.594 220.84 124.343 221.122 123.968 221.122C123.999 221.122 123.968 221.122 123.968 221.122Z" fill="white"></path><path opacity="0.64" d="M43.2015 265.114C43.0763 265.114 42.951 265.083 42.8571 264.989C42.4502 264.676 42.0119 264.394 41.6049 264.081C41.3232 263.862 41.2919 263.486 41.4797 263.236C41.6989 262.954 42.0745 262.923 42.325 263.11C42.7319 263.424 43.1389 263.705 43.5458 264.018C43.8276 264.206 43.8902 264.613 43.6711 264.864C43.5771 265.02 43.3893 265.114 43.2015 265.114Z" fill="white"></path></g><path d="M45.4233 250.962C45.5798 251.15 45.8616 251.243 46.112 251.15L53.1243 248.582C55.8792 250.711 59.0097 252.402 62.3906 253.561L64.1124 260.825C64.175 261.075 64.3941 261.263 64.6446 261.294L73.5352 262.202C73.7856 262.234 74.0361 262.077 74.1613 261.858L77.2918 255.095C80.8605 254.625 84.2415 253.592 87.372 252.058L93.7269 255.972C93.946 256.097 94.2278 256.097 94.4469 255.94L101.365 250.273C101.553 250.116 101.647 249.834 101.553 249.584L98.9861 242.57C101.115 239.815 102.805 236.684 103.964 233.302L111.226 231.58C111.477 231.517 111.665 231.298 111.696 231.048L112.604 222.155C112.635 221.905 112.479 221.654 112.259 221.529L105.498 218.398C105.028 214.828 103.995 211.447 102.461 208.315L106.374 201.959C106.499 201.74 106.499 201.458 106.343 201.239L100.677 194.319C100.52 194.131 100.238 194.037 99.9879 194.131L92.9756 196.699C90.2207 194.57 87.0902 192.879 83.7093 191.72L81.9875 184.456C81.9249 184.206 81.7058 184.018 81.4553 183.986L72.5647 183.078C72.3143 183.047 72.0638 183.204 71.9386 183.423L68.8081 190.186C65.2394 190.656 61.8584 191.689 58.7279 193.223L52.4043 189.309C52.1852 189.184 51.9034 189.184 51.6843 189.341L44.7659 195.008C44.5781 195.165 44.4842 195.446 44.5781 195.697L47.1451 202.711C45.0164 205.466 43.3259 208.597 42.1676 211.979L34.9048 213.701C34.6544 213.764 34.4666 213.983 34.4353 214.233L33.5274 223.126C33.4961 223.376 33.6526 223.627 33.8718 223.752L40.6337 226.883C41.1032 230.453 42.1363 233.834 43.6702 236.965L39.7571 243.322C39.6319 243.541 39.6319 243.823 39.7884 244.042L45.4233 250.962Z" fill="white"></path><path d="M73.0026 231.204C71.1869 231.204 69.4025 230.609 67.9312 229.513C66.0842 228.136 64.8946 226.163 64.5815 223.909C64.2372 221.654 64.8007 219.4 66.1781 217.552C67.5555 215.705 69.5277 214.515 71.7817 214.202C74.0356 213.858 76.2896 214.421 78.1366 215.799C79.9836 217.177 81.1731 219.149 81.4862 221.404C81.8305 223.658 81.2671 225.913 79.8896 227.76C78.5122 229.607 76.54 230.797 74.2861 231.11C73.8478 231.173 73.4408 231.204 73.0026 231.204ZM73.0339 215.329C72.6895 215.329 72.3138 215.361 71.9382 215.423C69.9973 215.705 68.3068 216.738 67.1172 218.304C65.9589 219.869 65.4581 221.811 65.7398 223.752C66.0216 225.693 67.0546 227.384 68.6199 228.574C70.1851 229.733 72.126 230.234 74.0669 229.952C76.0078 229.67 77.6983 228.637 78.8879 227.071C80.0462 225.506 80.547 223.564 80.2653 221.623C79.9836 219.682 78.9505 217.991 77.3852 216.801C76.1331 215.83 74.5991 215.329 73.0339 215.329Z" fill="#C31130"></path><path d="M73.1904 244.731C72.4391 244.731 71.6877 244.699 70.9364 244.606C70.4668 244.543 69.966 244.48 69.4964 244.418C68.5885 244.261 67.6807 244.042 66.7729 243.791C66.7416 243.791 66.7416 243.791 66.7103 243.76C66.585 243.729 66.4285 243.666 66.3033 243.635C66.0528 243.541 65.865 243.322 65.865 243.04C65.865 242.977 65.865 242.915 65.8963 242.852C65.9902 242.539 66.3346 242.351 66.6789 242.445C68.0877 242.915 69.559 243.196 71.0616 243.353C71.1869 243.353 71.3121 243.384 71.406 243.384C74.9435 243.697 78.4496 243.103 81.6114 241.694C81.6427 241.694 81.6427 241.694 81.674 241.662C83.2393 240.973 84.7106 240.065 86.088 239.001C86.1193 238.969 86.1819 238.938 86.2132 238.907C86.2445 238.875 86.2445 238.875 86.2758 238.844C86.3071 238.813 86.3698 238.782 86.4011 238.75C90.7524 235.212 93.4447 230.202 94.0082 224.629C94.0708 223.909 94.1021 223.188 94.1021 222.468C94.1021 217.646 92.4742 213.043 89.375 209.255C85.8376 204.902 80.8288 202.21 75.2565 201.646C63.7363 200.488 53.437 208.879 52.2787 220.402C52.2161 221.122 52.1848 221.811 52.1848 222.531C52.1848 225.599 52.8422 228.637 54.157 231.423C54.1883 231.517 54.2196 231.611 54.2196 231.674C54.2196 231.893 54.0944 232.112 53.8752 232.237C53.5622 232.394 53.2178 232.237 53.0613 231.956C51.6839 229.012 50.9639 225.787 50.9639 222.562C50.9639 221.811 50.9952 221.059 51.0891 220.308C51.6839 214.421 54.5326 209.098 59.1345 205.341C63.7363 201.583 69.4964 199.861 75.413 200.456C81.2983 201.051 86.6202 203.901 90.3768 208.503C93.6325 212.511 95.3856 217.396 95.3856 222.5C95.3856 223.251 95.3543 224.003 95.2603 224.785C94.0708 236.183 84.4288 244.731 73.1904 244.731Z" fill="#C31130"></path></g><defs><clipPath id="clip0"><rect width="445" height="366" fill="white"></rect></clipPath></defs></svg>