<svg xmlns="http://www.w3.org/2000/svg" width="60" height="60" viewBox="0 0 60 60" fill="none"><path d="M30.9677 34.8387V33.871C30.9677 31.2029 28.7971 29.0323 26.129 29.0323H25.1613V27.0968H33.871C35.4716 27.0968 36.7742 25.7942 36.7742 24.1935V19.3548H53.2258C54.8265 19.3548 56.129 18.0523 56.129 16.4516V2.90323C56.129 1.30258 54.8265 0 53.2258 0H30C28.74 0 27.6755 0.811935 27.2748 1.93548H2.90323C1.30258 1.93548 0 3.23806 0 4.83871V24.1935C0 25.7942 1.30258 27.0968 2.90323 27.0968H11.6129V29.0323H10.6452C7.9771 29.0323 5.80645 31.2029 5.80645 33.871V34.8387H0V60H60V34.8387H30.9677ZM34.8387 21.2903H1.93548V11.6129H5.24516L9.83129 19.6394L13.7023 9.96194L17.31 16.2745L20.2335 12.3774L22.6781 16.4516H27.0968C27.0968 18.0523 28.3994 19.3548 30 19.3548H34.8387V21.2903ZM29.0323 2.90323C29.0323 2.36903 29.4668 1.93548 30 1.93548H53.2258C53.759 1.93548 54.1935 2.36903 54.1935 2.90323V16.4516C54.1935 16.9858 53.759 17.4194 53.2258 17.4194H30C29.4668 17.4194 29.0323 16.9858 29.0323 16.4516V2.90323ZM2.90323 3.87097H27.0968V14.5161H23.7735L20.4116 8.9129L17.5287 12.7577L13.3945 5.52193L9.52355 15.1994L6.36774 9.67742H1.93548V4.83871C1.93548 4.30452 2.37 3.87097 2.90323 3.87097ZM1.93548 24.1935V23.2258H34.8387V24.1935C34.8387 24.7277 34.4042 25.1613 33.871 25.1613H2.90323C2.37 25.1613 1.93548 24.7277 1.93548 24.1935ZM13.5484 27.0968H23.2258V29.0323H13.5484V27.0968ZM7.74194 33.871C7.74194 32.2703 9.04452 30.9677 10.6452 30.9677H26.129C27.7297 30.9677 29.0323 32.2703 29.0323 33.871V34.8387H7.74194V33.871ZM58.0645 36.7742V54.1935H56.129V38.7097H3.87097V54.1935H1.93548V36.7742H58.0645ZM9.67742 46.4516V40.6452H11.6129V46.4516H9.67742ZM9.67742 48.3871V54.1935H5.80645V40.6452H7.74194V48.3871H9.67742ZM11.6129 48.3871H13.5484V40.6452H15.4839V48.3871H17.4194V54.1935H11.6129V48.3871ZM17.4194 46.4516V40.6452H19.3548V46.4516H17.4194ZM19.3548 48.3871H21.2903V40.6452H23.2258V54.1935H19.3548V48.3871ZM25.1613 40.6452H27.0968V48.3871H29.0323V54.1935H25.1613V40.6452ZM29.0323 46.4516V40.6452H30.9677V46.4516H29.0323ZM30.9677 48.3871H32.9032V40.6452H34.8387V48.3871H36.7742V54.1935H30.9677V48.3871ZM36.7742 46.4516V40.6452H38.7097V46.4516H36.7742ZM38.7097 48.3871H40.6452V40.6452H42.5806V54.1935H38.7097V48.3871ZM44.5161 40.6452H46.4516V48.3871H48.3871V54.1935H44.5161V40.6452ZM48.3871 46.4516V40.6452H50.3226V46.4516H48.3871ZM50.3226 48.3871H52.2581V40.6452H54.1935V54.1935H50.3226V48.3871ZM1.93548 58.0645V56.129H58.0645V58.0645H1.93548Z" fill="#C31130"></path><path d="M32.9033 15.4839H34.8387V5.80646H36.7742V3.87097H30.9678V5.80646H32.9033V15.4839Z" fill="#C31130"></path><path d="M40.6452 15.4839H42.5807V9.67742H44.5162V7.74194H42.5807V3.87097H40.6452V7.74194H38.7097V9.67742H40.6452V15.4839Z" fill="#C31130"></path><path d="M52.2581 13.5484H50.3226V3.87097H48.3871V13.5484H46.4517V15.4839H52.2581V13.5484Z" fill="#C31130"></path></svg>