<svg xmlns="http://www.w3.org/2000/svg" width="593" height="347" viewBox="0 0 593 347" fill="none"><path d="M130.277 308.016C147.547 308.016 161.547 293.954 161.547 276.608C161.547 259.263 147.547 245.201 130.277 245.201C113.008 245.201 99.0081 259.263 99.0081 276.608C99.0081 293.954 113.008 308.016 130.277 308.016Z" fill="#F2F2F2"></path><path d="M135.363 303.42C152.632 303.42 166.632 289.358 166.632 272.012C166.632 254.667 152.632 240.605 135.363 240.605C118.093 240.605 104.093 254.667 104.093 272.012C104.093 289.358 118.093 303.42 135.363 303.42Z" fill="#C31130"></path><path d="M360.914 9.88851H223.593V7.04572H161.327V9.88851H23.4406C22.2207 9.88851 21.0129 10.1298 19.8859 10.5987C18.759 11.0675 17.735 11.7548 16.8724 12.6211C16.0099 13.4875 15.3257 14.5159 14.8589 15.6479C14.3921 16.7798 14.1519 17.993 14.1519 19.2182V208.082C14.1519 210.556 15.1305 212.929 16.8724 214.679C18.6144 216.429 20.977 217.412 23.4406 217.412H360.914C363.377 217.412 365.74 216.429 367.482 214.679C369.224 212.929 370.203 210.556 370.203 208.082V19.2182C370.203 17.993 369.962 16.7798 369.496 15.6479C369.029 14.5159 368.345 13.4875 367.482 12.6211C366.619 11.7548 365.596 11.0675 364.469 10.5987C363.342 10.1298 362.134 9.88851 360.914 9.88851Z" fill="#0B0B0E"></path><path d="M357.749 26.3764H26.6047V214H357.749V26.3764Z" fill="#C31130"></path><path d="M191.894 21.2591C193.77 21.2591 195.291 19.7318 195.291 17.8478C195.291 15.9638 193.77 14.4365 191.894 14.4365C190.018 14.4365 188.498 15.9638 188.498 17.8478C188.498 19.7318 190.018 21.2591 191.894 21.2591Z" fill="white"></path><path opacity="0.1" d="M263.047 214H26.6047V26.3764L263.047 214Z" fill="black"></path><path d="M78.4195 199.96C95.999 199.96 110.25 185.646 110.25 167.989C110.25 150.332 95.999 136.018 78.4195 136.018C60.8399 136.018 46.5889 150.332 46.5889 167.989C46.5889 185.646 60.8399 199.96 78.4195 199.96Z" fill="#F2F2F2"></path><path d="M300.092 127.563H269.159V134.055H300.092V127.563Z" fill="white"></path><path d="M337.488 77.0182H231.763V79.8005H337.488V77.0182Z" fill="white"></path><path d="M337.488 85.8291H231.763V88.6114H337.488V85.8291Z" fill="white"></path><path d="M337.488 94.6397H231.763V97.422H337.488V94.6397Z" fill="white"></path><path d="M337.488 103.45H231.763V106.233H337.488V103.45Z" fill="white"></path><path d="M337.488 112.261H231.763V115.043H337.488V112.261Z" fill="white"></path><path d="M337.487 30.1829H324.56V43.167H337.487V30.1829Z" fill="#F2F2F2"></path><path d="M343.489 49.1952H327.792V33.4288H343.489V49.1952ZM328.474 48.5097H342.806V34.1143H328.474V48.5097Z" fill="white"></path><path d="M379.5 210.589H347.183V208.25C347.183 208.189 347.171 208.129 347.147 208.073C347.124 208.017 347.09 207.965 347.047 207.922C347.004 207.879 346.954 207.845 346.898 207.822C346.842 207.799 346.782 207.787 346.721 207.787H335.641C335.58 207.787 335.52 207.799 335.464 207.822C335.408 207.845 335.357 207.879 335.314 207.922C335.271 207.965 335.237 208.017 335.214 208.073C335.191 208.129 335.179 208.189 335.179 208.25V210.589H328.254V208.25C328.254 208.189 328.242 208.129 328.219 208.073C328.195 208.017 328.161 207.965 328.118 207.922C328.076 207.879 328.025 207.845 327.969 207.822C327.913 207.799 327.853 207.787 327.792 207.787H316.712C316.651 207.787 316.591 207.799 316.535 207.822C316.479 207.845 316.428 207.879 316.385 207.922C316.342 207.965 316.308 208.017 316.285 208.073C316.262 208.129 316.25 208.189 316.25 208.25V210.589H309.325V208.25C309.325 208.189 309.313 208.129 309.29 208.073C309.267 208.017 309.233 207.965 309.19 207.922C309.147 207.879 309.096 207.845 309.04 207.822C308.984 207.799 308.924 207.787 308.863 207.787H297.783C297.722 207.787 297.662 207.799 297.606 207.822C297.55 207.845 297.499 207.879 297.456 207.922C297.414 207.965 297.38 208.017 297.356 208.073C297.333 208.129 297.321 208.189 297.321 208.25V210.589H290.396V208.25C290.396 208.189 290.384 208.129 290.361 208.073C290.338 208.017 290.304 207.965 290.261 207.922C290.218 207.879 290.167 207.845 290.111 207.822C290.055 207.799 289.995 207.787 289.934 207.787H278.854C278.793 207.787 278.733 207.799 278.677 207.822C278.621 207.845 278.57 207.879 278.528 207.922C278.485 207.965 278.451 208.017 278.428 208.073C278.404 208.129 278.392 208.189 278.392 208.25V210.589H271.467V208.25C271.467 208.189 271.455 208.129 271.432 208.073C271.409 208.017 271.375 207.965 271.332 207.922C271.289 207.879 271.238 207.845 271.182 207.822C271.126 207.799 271.066 207.787 271.006 207.787H259.925C259.865 207.787 259.805 207.799 259.749 207.822C259.693 207.845 259.642 207.879 259.599 207.922C259.556 207.965 259.522 208.017 259.499 208.073C259.476 208.129 259.464 208.189 259.464 208.25V210.589H252.538V208.25C252.538 208.189 252.526 208.129 252.503 208.073C252.48 208.017 252.446 207.965 252.403 207.922C252.36 207.879 252.309 207.845 252.253 207.822C252.197 207.799 252.137 207.787 252.077 207.787H240.996C240.936 207.787 240.876 207.799 240.82 207.822C240.764 207.845 240.713 207.879 240.67 207.922C240.627 207.965 240.593 208.017 240.57 208.073C240.547 208.129 240.535 208.189 240.535 208.25V210.589H233.61V208.25C233.61 208.189 233.598 208.129 233.574 208.073C233.551 208.017 233.517 207.965 233.474 207.922C233.431 207.879 233.381 207.845 233.325 207.822C233.269 207.799 233.208 207.787 233.148 207.787H146.352C146.292 207.787 146.232 207.799 146.176 207.822C146.12 207.845 146.069 207.879 146.026 207.922C145.983 207.965 145.949 208.017 145.926 208.073C145.902 208.129 145.891 208.189 145.891 208.25V210.589H138.965V208.25C138.965 208.189 138.953 208.129 138.93 208.073C138.907 208.017 138.873 207.965 138.83 207.922C138.787 207.879 138.736 207.845 138.68 207.822C138.624 207.799 138.564 207.787 138.504 207.787H127.423C127.363 207.787 127.303 207.799 127.247 207.822C127.191 207.845 127.14 207.879 127.097 207.922C127.054 207.965 127.02 208.017 126.997 208.073C126.974 208.129 126.962 208.189 126.962 208.25V210.589H120.037V208.25C120.037 208.189 120.025 208.129 120.001 208.073C119.978 208.017 119.944 207.965 119.901 207.922C119.858 207.879 119.808 207.845 119.752 207.822C119.696 207.799 119.635 207.787 119.575 207.787H108.495C108.434 207.787 108.374 207.799 108.318 207.822C108.262 207.845 108.211 207.879 108.168 207.922C108.125 207.965 108.091 208.017 108.068 208.073C108.045 208.129 108.033 208.189 108.033 208.25V210.589H101.108V208.25C101.108 208.189 101.096 208.129 101.073 208.073C101.049 208.017 101.015 207.965 100.972 207.922C100.93 207.879 100.879 207.845 100.823 207.822C100.767 207.799 100.707 207.787 100.646 207.787H89.5657C89.5051 207.787 89.445 207.799 89.389 207.822C89.333 207.845 89.2821 207.879 89.2393 207.922C89.1964 207.965 89.1624 208.017 89.1392 208.073C89.116 208.129 89.104 208.189 89.104 208.25V210.589H82.1789V208.25C82.1789 208.189 82.1669 208.129 82.1437 208.073C82.1205 208.017 82.0865 207.965 82.0437 207.922C82.0008 207.879 81.9499 207.845 81.8939 207.822C81.8379 207.799 81.7778 207.787 81.7172 207.787H70.6369C70.5762 207.787 70.5162 207.799 70.4602 207.822C70.4042 207.845 70.3533 207.879 70.3104 207.922C70.2675 207.965 70.2335 208.017 70.2103 208.073C70.1871 208.129 70.1752 208.189 70.1752 208.25V210.589H63.25V208.25C63.25 208.189 63.2381 208.129 63.2149 208.073C63.1917 208.017 63.1577 207.965 63.1148 207.922C63.0719 207.879 63.021 207.845 62.965 207.822C62.909 207.799 62.849 207.787 62.7883 207.787H51.708C51.6474 207.787 51.5874 207.799 51.5314 207.822C51.4753 207.845 51.4245 207.879 51.3816 207.922C51.3387 207.965 51.3047 208.017 51.2815 208.073C51.2583 208.129 51.2464 208.189 51.2464 208.25V210.589H44.3212V208.25C44.3212 208.189 44.3092 208.129 44.286 208.073C44.2628 208.017 44.2288 207.965 44.186 207.922C44.1431 207.879 44.0922 207.845 44.0362 207.822C43.9802 207.799 43.9201 207.787 43.8595 207.787H32.7792C32.7186 207.787 32.6585 207.799 32.6025 207.822C32.5465 207.845 32.4956 207.879 32.4527 207.922C32.4099 207.965 32.3759 208.017 32.3527 208.073C32.3295 208.129 32.3175 208.189 32.3175 208.25V210.589H11.0803C8.14162 210.589 5.32331 211.762 3.24535 213.849C1.16739 215.936 2.79968e-06 218.767 0 221.718V226.751C8.39904e-06 229.702 1.1674 232.533 3.24536 234.62C5.32331 236.707 8.14162 237.88 11.0803 237.88H379.5C382.439 237.88 385.257 236.707 387.335 234.62C389.413 232.533 390.58 229.702 390.58 226.751V221.718C390.58 218.767 389.413 215.936 387.335 213.849C385.257 211.762 382.439 210.589 379.5 210.589Z" fill="#0B0B0E"></path><path d="M86.1234 187.958C78.1897 187.958 70.4341 185.595 63.8375 181.168C57.2408 176.74 52.0994 170.448 49.0633 163.086C46.0271 155.723 45.2328 147.622 46.7806 139.807C48.3284 131.991 52.1488 124.812 57.7588 119.177C63.3688 113.542 70.5164 109.705 78.2977 108.151C86.0789 106.596 94.1445 107.394 101.474 110.443C108.804 113.493 115.069 118.657 119.477 125.283C123.884 131.908 126.237 139.698 126.237 147.667C126.225 158.349 121.995 168.59 114.475 176.144C106.955 183.697 96.7586 187.946 86.1234 187.958ZM86.1234 108.437C78.3985 108.437 70.847 110.737 64.424 115.048C58.0009 119.359 52.9947 125.486 50.0385 132.654C47.0823 139.823 46.3088 147.711 47.8159 155.321C49.323 162.93 53.0429 169.921 58.5052 175.407C63.9676 180.894 70.9271 184.63 78.5036 186.144C86.0801 187.657 93.9334 186.88 101.07 183.911C108.207 180.942 114.307 175.914 118.599 169.462C122.891 163.011 125.181 155.426 125.181 147.667C125.17 137.266 121.051 127.295 113.729 119.94C106.406 112.585 96.4787 108.448 86.1234 108.437Z" fill="white"></path><path d="M263.378 291.577H248.599V306.421H263.378V291.577Z" fill="white"></path><path d="M272.35 297.939H254.405V279.914H272.35V297.939ZM255.185 297.155H271.57V280.698H255.185V297.155Z" fill="white"></path><path d="M434.917 11.6632H420.138V26.5072H434.917V11.6632Z" fill="white"></path><path d="M443.889 18.0248H425.944V0H443.889V18.0248ZM426.724 17.2411H443.109V0.783688H426.724V17.2411Z" fill="white"></path><path d="M583.76 291.577H568.981V306.421H583.76V291.577Z" fill="white"></path><path d="M592.732 297.939H574.787V279.914H592.732V297.939ZM575.567 297.155H591.952V280.698H575.567V297.155Z" fill="white"></path><path d="M557.987 122.971H556.732V88.4258C556.732 85.8002 556.217 83.2003 555.217 80.7746C554.216 78.3489 552.75 76.1448 550.902 74.2882C549.053 72.4316 546.859 70.9589 544.444 69.9541C542.029 68.9494 539.44 68.4322 536.826 68.4322H463.96C461.346 68.4322 458.757 68.9494 456.342 69.9541C453.927 70.9589 451.733 72.4316 449.884 74.2882C448.036 76.1448 446.57 78.3489 445.569 80.7746C444.569 83.2003 444.054 85.8002 444.054 88.4258V277.941C444.054 280.567 444.569 283.167 445.569 285.593C446.57 288.018 448.036 290.222 449.884 292.079C451.733 293.936 453.927 295.408 456.342 296.413C458.757 297.418 461.346 297.935 463.96 297.935H536.826C539.44 297.935 542.029 297.418 544.444 296.413C546.859 295.408 549.053 293.935 550.902 292.079C552.75 290.222 554.216 288.018 555.217 285.593C556.217 283.167 556.732 280.567 556.732 277.941V147.56H557.987V122.971Z" fill="#0D1012"></path><path d="M552.493 89.6008V278.84C552.494 282.8 550.928 286.598 548.141 289.399C545.353 292.199 541.573 293.773 537.63 293.774H464.412C460.469 293.773 456.688 292.199 453.901 289.399C451.114 286.598 449.548 282.8 449.549 278.84V89.6008C449.549 85.6416 451.115 81.8447 453.903 79.0451C456.69 76.2455 460.47 74.6725 464.412 74.6721H473.295C472.858 75.7491 472.691 76.9176 472.81 78.0746C472.928 79.2317 473.328 80.3417 473.974 81.3069C474.62 82.2722 475.492 83.0631 476.514 83.6099C477.536 84.1567 478.677 84.4426 479.835 84.4426H521.579C522.737 84.4427 523.878 84.1567 524.9 83.6099C525.922 83.0631 526.794 82.2722 527.44 81.307C528.086 80.3417 528.486 79.2317 528.604 78.0746C528.723 76.9176 528.556 75.7491 528.119 74.6721H537.63C541.572 74.6725 545.352 76.2455 548.139 79.0451C550.927 81.8447 552.493 85.6416 552.493 89.6008Z" fill="#C31130"></path><path d="M511.927 199.449H490.116V205.941H511.927V199.449Z" fill="white"></path><path d="M538.294 148.903H463.746V151.686H538.294V148.903Z" fill="white"></path><path d="M538.294 157.714H463.746V160.496H538.294V157.714Z" fill="white"></path><path d="M538.294 166.524H463.746V169.307H538.294V166.524Z" fill="white"></path><path d="M538.294 175.335H463.746V178.117H538.294V175.335Z" fill="white"></path><path d="M538.294 184.146H463.746V186.928H538.294V184.146Z" fill="white"></path><path d="M503.625 111.954H490.698V124.938H503.625V111.954Z" fill="#F2F2F2"></path><path d="M495.646 115.201V130.968H511.343V115.201H495.646ZM510.662 130.284H496.326V115.885H510.662V130.284Z" fill="white"></path><path opacity="0.1" d="M552.493 258.631V278.84C552.494 282.8 550.928 286.598 548.141 289.399C545.353 292.199 541.573 293.773 537.63 293.774H464.412C460.469 293.773 456.688 292.199 453.901 289.399C451.114 286.598 449.548 282.8 449.549 278.84V176.942L511.234 225.89L512.29 226.727L523.764 235.83L524.836 236.683L552.493 258.631Z" fill="black"></path><path d="M494.688 287.641C507.475 287.641 517.842 277.229 517.842 264.385C517.842 251.541 507.475 241.129 494.688 241.129C481.9 241.129 471.534 251.541 471.534 264.385C471.534 277.229 481.9 287.641 494.688 287.641Z" fill="#F2F2F2"></path><path d="M168.99 347C159.908 347 151.03 344.295 143.478 339.227C135.927 334.159 130.041 326.956 126.566 318.528C123.09 310.1 122.181 300.827 123.953 291.88C125.724 282.933 130.098 274.715 136.52 268.264C142.942 261.814 151.124 257.421 160.031 255.642C168.939 253.862 178.172 254.775 186.563 258.266C194.953 261.757 202.125 267.669 207.171 275.254C212.216 282.838 214.91 291.756 214.91 300.878C214.896 313.106 210.053 324.829 201.445 333.476C192.836 342.122 181.164 346.986 168.99 347ZM168.99 255.816C160.117 255.816 151.443 258.459 144.065 263.41C136.687 268.362 130.937 275.399 127.541 283.633C124.145 291.867 123.257 300.928 124.988 309.669C126.719 318.41 130.992 326.439 137.266 332.741C143.541 339.043 151.535 343.335 160.237 345.074C168.94 346.813 177.961 345.92 186.159 342.51C194.356 339.099 201.363 333.323 206.293 325.913C211.223 318.502 213.854 309.79 213.854 300.878C213.84 288.931 209.109 277.477 200.699 269.029C192.288 260.581 180.884 255.829 168.99 255.816Z" fill="#CAD4DB"></path><path d="M501.511 282.323C495.77 282.323 490.157 280.613 485.383 277.409C480.609 274.205 476.888 269.651 474.691 264.323C472.494 258.995 471.919 253.133 473.039 247.477C474.159 241.821 476.924 236.625 480.984 232.547C485.044 228.47 490.216 225.693 495.848 224.568C501.479 223.442 507.316 224.02 512.62 226.227C517.925 228.434 522.458 232.171 525.648 236.966C528.838 241.761 530.541 247.398 530.541 253.165C530.532 260.895 527.471 268.307 522.028 273.773C516.586 279.239 509.208 282.314 501.511 282.323ZM501.511 225.068C495.978 225.068 490.57 226.715 485.97 229.803C481.369 232.89 477.784 237.278 475.666 242.413C473.549 247.547 472.995 253.196 474.075 258.647C475.154 264.097 477.818 269.103 481.73 273.033C485.643 276.962 490.627 279.638 496.054 280.723C501.48 281.807 507.105 281.25 512.216 279.124C517.328 276.997 521.697 273.396 524.771 268.775C527.844 264.155 529.485 258.722 529.485 253.165C529.477 245.716 526.527 238.574 521.282 233.306C516.038 228.039 508.928 225.076 501.511 225.068Z" fill="white"></path></svg>