<svg xmlns="http://www.w3.org/2000/svg" width="67" height="61" viewBox="0 0 67 61" fill="none"><path d="M62.4855 1.02991C60.6408 1.02991 59.072 2.23413 58.524 3.89778H38.9247C38.0642 1.64413 35.8798 0.0390625 33.3274 0.0390625C30.7751 0.0390625 28.5907 1.644 27.7301 3.89778H8.13129C7.58321 2.23413 6.01446 1.02991 4.16973 1.02991C1.87051 1.02991 0 2.90042 0 5.19964C0 7.49872 1.87051 9.36936 4.16973 9.36936C6.01446 9.36936 7.58321 8.16514 8.13129 6.5015H15.5495C14.7023 7.05934 13.9019 7.7022 13.1595 8.42552C10.2296 11.2801 8.52797 15.0679 8.35065 19.1154C6.41609 19.6744 4.99719 21.4614 4.99719 23.5738C4.99719 26.1322 7.0786 28.2138 9.63702 28.2138C12.1954 28.2138 14.277 26.1324 14.277 23.5738C14.277 21.4737 12.8745 19.6951 10.9568 19.1251C11.3212 12.1356 17.2207 6.5015 24.254 6.5015H27.3576C27.5998 9.583 30.1848 12.0163 33.3275 12.0163C36.4702 12.0163 39.0552 9.583 39.2976 6.5015H42.4009C49.4273 6.5015 55.3326 12.1374 55.6979 19.1232C53.7769 19.6909 52.3711 21.4712 52.3711 23.5738C52.3711 26.1322 54.4525 28.2138 57.0111 28.2138C59.5695 28.2138 61.651 26.1324 61.651 23.5738C61.651 21.464 60.2355 19.6787 58.3043 19.1173C58.1273 15.0628 56.4201 11.2688 53.4829 8.41315C52.744 7.69478 51.9477 7.05609 51.1052 6.50137H58.524C59.072 8.16501 60.6408 9.36923 62.4855 9.36923C64.7847 9.36936 66.6552 7.49872 66.6552 5.19964C66.6552 2.90042 64.7847 1.02991 62.4855 1.02991ZM4.16973 6.76564C3.3062 6.76564 2.60372 6.06316 2.60372 5.19964C2.60372 4.33611 3.3062 3.63363 4.16973 3.63363C5.03325 3.63363 5.73574 4.33611 5.73574 5.19964C5.73574 6.06316 5.03325 6.76564 4.16973 6.76564ZM11.6733 23.5738C11.6733 24.6966 10.7599 25.6101 9.63702 25.6101C8.5143 25.6101 7.60091 24.6967 7.60091 23.5738C7.60091 22.451 8.5143 21.5376 9.63702 21.5376C10.7599 21.5376 11.6733 22.451 11.6733 23.5738ZM33.3274 9.41259C31.461 9.41259 29.9425 7.8941 29.9425 6.02775C29.9425 4.16127 31.461 2.64291 33.3274 2.64291C35.1938 2.64291 36.7123 4.1614 36.7123 6.02775C36.7123 7.8941 35.1938 9.41259 33.3274 9.41259ZM59.0472 23.5738C59.0472 24.6966 58.1337 25.6101 57.0109 25.6101C55.8882 25.6101 54.9747 24.6967 54.9747 23.5738C54.9747 22.451 55.8882 21.5376 57.0109 21.5376C58.1337 21.5376 59.0472 22.451 59.0472 23.5738ZM62.4855 6.76564C61.622 6.76564 60.9196 6.06316 60.9196 5.19964C60.9196 4.33611 61.622 3.63363 62.4855 3.63363C63.349 3.63363 64.0515 4.33611 64.0515 5.19964C64.0515 6.06316 63.3489 6.76564 62.4855 6.76564Z" fill="#C31130"></path><path d="M44.782 31.7448C44.4388 31.1129 43.6486 30.879 43.0165 31.2222C42.3847 31.5654 42.1508 32.3557 42.494 32.9877L44.0468 35.8462C44.78 37.1958 44.7951 38.8153 44.0876 40.1785L40.3768 47.3278H26.2784L22.5673 40.1786C21.8597 38.8154 21.875 37.1958 22.6081 35.8463L32.0257 18.5097V26.5315C32.0257 27.2505 32.6086 27.8333 33.3276 27.8333C34.0465 27.8333 34.6294 27.2505 34.6294 26.5315V18.5098L37.257 23.3466C37.6001 23.9785 38.3904 24.2123 39.0224 23.8692C39.6542 23.526 39.8882 22.7355 39.545 22.1037L35.8918 15.379C35.664 14.9596 35.2252 14.6985 34.7479 14.6985H31.9075C31.4304 14.6985 30.9913 14.9595 30.7636 15.379L20.3202 34.6034C19.1739 36.7139 19.1501 39.2465 20.2565 41.378L23.345 47.3279H22.9827C22.2637 47.3279 21.6809 47.9108 21.6809 48.6298C21.6809 49.3488 22.2637 49.9316 22.9827 49.9316H23.8194L21.6983 58.4216C21.6011 58.8105 21.6885 59.2225 21.9353 59.5385C22.182 59.8544 22.5605 60.039 22.9614 60.039H43.6936C44.0945 60.039 44.4729 59.8544 44.7198 59.5385C44.9665 59.2225 45.0538 58.8106 44.9567 58.4216L42.8356 49.9316H43.6725C44.3914 49.9316 44.9744 49.3488 44.9744 48.6298C44.9744 47.9108 44.3914 47.3279 43.6725 47.3279H43.3104L46.3988 41.378C47.5053 39.2464 47.4815 36.7137 46.3351 34.6031L44.782 31.7448ZM42.0263 57.4354H24.6283L26.5031 49.9318H40.1515L42.0263 57.4354Z" fill="#C31130"></path></svg>