<svg xmlns="http://www.w3.org/2000/svg" width="151" height="97" viewBox="0 0 151 97" fill="none"><path d="M151 0.0857925H0.0643616V96.9707H151V0.0857925Z" fill="white"></path><path d="M146.684 12.2376H4.38025V91.239H146.684V12.2376Z" fill="#C31130"></path><path d="M150.936 0H0V6.42682H150.936V0Z" fill="#0D1012"></path><path d="M4.76507 4.47683C5.42144 4.47683 5.95354 3.94353 5.95354 3.28567C5.95354 2.62781 5.42144 2.09451 4.76507 2.09451C4.1087 2.09451 3.5766 2.62781 3.5766 3.28567C3.5766 3.94353 4.1087 4.47683 4.76507 4.47683Z" fill="white"></path><path d="M9.27627 4.47683C9.93264 4.47683 10.4647 3.94353 10.4647 3.28567C10.4647 2.62781 9.93264 2.09451 9.27627 2.09451C8.6199 2.09451 8.0878 2.62781 8.0878 3.28567C8.0878 3.94353 8.6199 4.47683 9.27627 4.47683Z" fill="white"></path><path d="M13.7874 4.47683C14.4438 4.47683 14.9759 3.94353 14.9759 3.28567C14.9759 2.62781 14.4438 2.09451 13.7874 2.09451C13.1311 2.09451 12.599 2.62781 12.599 3.28567C12.599 3.94353 13.1311 4.47683 13.7874 4.47683Z" fill="white"></path><path d="M106.419 19.637H60.0892C59.9903 19.624 59.8995 19.5753 59.8338 19.5001C59.768 19.425 59.7318 19.3284 59.7318 19.2284C59.7318 19.1284 59.768 19.0319 59.8338 18.9567C59.8995 18.8815 59.9903 18.8329 60.0892 18.8198H106.419C106.518 18.8329 106.608 18.8815 106.674 18.9567C106.74 19.0319 106.776 19.1284 106.776 19.2284C106.776 19.3284 106.74 19.425 106.674 19.5001C106.608 19.5753 106.518 19.624 106.419 19.637Z" fill="white"></path><path d="M74.3169 24.1318H44.8605C44.7616 24.1187 44.6708 24.0701 44.6051 23.9949C44.5393 23.9197 44.5031 23.8232 44.5031 23.7232C44.5031 23.6232 44.5393 23.5266 44.6051 23.4515C44.6708 23.3763 44.7616 23.3276 44.8605 23.3146H74.3169C74.4158 23.3276 74.5066 23.3763 74.5724 23.4515C74.6381 23.5266 74.6744 23.6232 74.6744 23.7232C74.6744 23.8232 74.6381 23.9197 74.5724 23.9949C74.5066 24.0701 74.4158 24.1187 74.3169 24.1318Z" fill="white"></path><path d="M106.418 24.2135H76.9621C76.8632 24.2004 76.7724 24.1517 76.7066 24.0766C76.6409 24.0014 76.6046 23.9048 76.6046 23.8048C76.6046 23.7049 76.6409 23.6083 76.7066 23.5331C76.7724 23.458 76.8632 23.4093 76.9621 23.3962H106.418C106.517 23.4093 106.608 23.458 106.674 23.5331C106.74 23.6083 106.776 23.7049 106.776 23.8048C106.776 23.9048 106.74 24.0014 106.674 24.0766C106.608 24.1517 106.517 24.2004 106.418 24.2135H106.418Z" fill="white"></path><path d="M74.3881 28.6263H44.9318C44.8329 28.6133 44.7421 28.5646 44.6763 28.4895C44.6106 28.4143 44.5743 28.3177 44.5743 28.2177C44.5743 28.1178 44.6106 28.0212 44.6763 27.946C44.7421 27.8708 44.8329 27.8222 44.9318 27.8091H74.3881C74.487 27.8222 74.5778 27.8708 74.6436 27.946C74.7094 28.0212 74.7456 28.1178 74.7456 28.2177C74.7456 28.3177 74.7094 28.4143 74.6436 28.4895C74.5778 28.5646 74.487 28.6133 74.3881 28.6263Z" fill="white"></path><path d="M74.4599 33.1211H45.0035C44.9046 33.1081 44.8138 33.0594 44.7481 32.9842C44.6823 32.9091 44.646 32.8125 44.646 32.7125C44.646 32.6125 44.6823 32.516 44.7481 32.4408C44.8138 32.3656 44.9046 32.317 45.0035 32.3039H74.4599C74.5588 32.317 74.6495 32.3656 74.7153 32.4408C74.7811 32.516 74.8173 32.6125 74.8173 32.7125C74.8173 32.8125 74.7811 32.9091 74.7153 32.9842C74.6495 33.0594 74.5588 33.1081 74.4599 33.1211Z" fill="white"></path><path d="M87.8297 28.6263H79.3932C79.2943 28.6133 79.2035 28.5646 79.1377 28.4895C79.072 28.4143 79.0357 28.3177 79.0357 28.2177C79.0357 28.1178 79.072 28.0212 79.1377 27.946C79.2035 27.8708 79.2943 27.8222 79.3932 27.8091H87.8297C87.9286 27.8222 88.0194 27.8708 88.0852 27.946C88.1509 28.0212 88.1872 28.1178 88.1872 28.2177C88.1872 28.3177 88.1509 28.4143 88.0852 28.4895C88.0194 28.5646 87.9286 28.6133 87.8297 28.6263Z" fill="white"></path><path d="M87.8297 33.0393H79.3932C79.2943 33.0263 79.2035 32.9776 79.1377 32.9024C79.072 32.8273 79.0357 32.7307 79.0357 32.6307C79.0357 32.5307 79.072 32.4342 79.1377 32.359C79.2035 32.2838 79.2943 32.2352 79.3932 32.2221H87.8297C87.9286 32.2352 88.0194 32.2838 88.0852 32.359C88.1509 32.4342 88.1872 32.5307 88.1872 32.6307C88.1872 32.7307 88.1509 32.8273 88.0852 32.9024C88.0194 32.9776 87.9286 33.0263 87.8297 33.0393Z" fill="white"></path><path d="M101.986 33.0393H93.5492C93.4503 33.0263 93.3595 32.9776 93.2938 32.9024C93.228 32.8273 93.1917 32.7307 93.1917 32.6307C93.1917 32.5307 93.228 32.4342 93.2938 32.359C93.3595 32.2838 93.4503 32.2352 93.5492 32.2221H101.986C102.085 32.2352 102.175 32.2838 102.241 32.359C102.307 32.4342 102.343 32.5307 102.343 32.6307C102.343 32.7307 102.307 32.8273 102.241 32.9024C102.175 32.9776 102.085 33.0263 101.986 33.0393Z" fill="white"></path><path d="M53.0826 19.637H44.646C44.5471 19.624 44.4563 19.5753 44.3906 19.5001C44.3248 19.425 44.2885 19.3284 44.2885 19.2284C44.2885 19.1284 44.3248 19.0319 44.3906 18.9567C44.4563 18.8815 44.5471 18.8329 44.646 18.8198H53.0826C53.1815 18.8329 53.2722 18.8815 53.338 18.9567C53.4038 19.0319 53.44 19.1284 53.44 19.2284C53.44 19.3284 53.4038 19.425 53.338 19.5001C53.2722 19.5753 53.1815 19.624 53.0826 19.637Z" fill="white"></path><path d="M74.2094 71.1725H44.753C44.6541 71.1594 44.5634 71.1108 44.4976 71.0356C44.4318 70.9604 44.3956 70.8639 44.3956 70.7639C44.3956 70.6639 44.4318 70.5673 44.4976 70.4922C44.5634 70.417 44.6541 70.3684 44.753 70.3553H74.2094C74.3083 70.3684 74.3991 70.417 74.4649 70.4922C74.5307 70.5673 74.5669 70.6639 74.5669 70.7639C74.5669 70.8639 74.5307 70.9604 74.4649 71.0356C74.3991 71.1108 74.3083 71.1594 74.2094 71.1725H74.2094Z" fill="white"></path><path d="M74.0667 80.1619H44.6103C44.5114 80.1489 44.4206 80.1002 44.3548 80.025C44.2891 79.9499 44.2528 79.8533 44.2528 79.7533C44.2528 79.6533 44.2891 79.5568 44.3548 79.4816C44.4206 79.4064 44.5114 79.3578 44.6103 79.3447H74.0667C74.1656 79.3578 74.2564 79.4064 74.3221 79.4816C74.3879 79.5568 74.4242 79.6533 74.4242 79.7533C74.4242 79.8533 74.3879 79.9499 74.3221 80.025C74.2564 80.1002 74.1656 80.1489 74.0667 80.1619H74.0667Z" fill="white"></path><path d="M74.1379 84.6567H44.6816C44.5827 84.6436 44.4919 84.595 44.4261 84.5198C44.3603 84.4446 44.3241 84.3481 44.3241 84.2481C44.3241 84.1481 44.3603 84.0515 44.4261 83.9764C44.4919 83.9012 44.5827 83.8525 44.6816 83.8395H74.1379C74.2368 83.8525 74.3276 83.9012 74.3934 83.9764C74.4592 84.0515 74.4954 84.1481 74.4954 84.2481C74.4954 84.3481 74.4592 84.4446 74.3934 84.5198C74.3276 84.595 74.2368 84.6436 74.1379 84.6567H74.1379Z" fill="white"></path><path d="M86.7215 80.2437H78.285C78.1861 80.2306 78.0953 80.182 78.0295 80.1068C77.9638 80.0316 77.9275 79.9351 77.9275 79.8351C77.9275 79.7351 77.9638 79.6385 78.0295 79.5634C78.0953 79.4882 78.1861 79.4395 78.285 79.4265H86.7215C86.8204 79.4395 86.9112 79.4882 86.977 79.5634C87.0428 79.6385 87.079 79.7351 87.079 79.8351C87.079 79.9351 87.0428 80.0316 86.977 80.1068C86.9112 80.182 86.8204 80.2306 86.7215 80.2437Z" fill="white"></path><path d="M86.7215 84.6567H78.285C78.1861 84.6436 78.0953 84.595 78.0295 84.5198C77.9638 84.4446 77.9275 84.3481 77.9275 84.2481C77.9275 84.1481 77.9638 84.0515 78.0295 83.9764C78.0953 83.9012 78.1861 83.8525 78.285 83.8395H86.7215C86.8204 83.8525 86.9112 83.9012 86.977 83.9764C87.0428 84.0515 87.079 84.1481 87.079 84.2481C87.079 84.3481 87.0428 84.4446 86.977 84.5198C86.9112 84.595 86.8204 84.6436 86.7215 84.6567Z" fill="white"></path><path d="M100.878 80.2437H92.4412C92.3423 80.2306 92.2516 80.182 92.1858 80.1068C92.12 80.0316 92.0838 79.9351 92.0838 79.8351C92.0838 79.7351 92.12 79.6385 92.1858 79.5634C92.2516 79.4882 92.3423 79.4395 92.4412 79.4265H100.878C100.977 79.4395 101.067 79.4882 101.133 79.5634C101.199 79.6385 101.235 79.7351 101.235 79.8351C101.235 79.9351 101.199 80.0316 101.133 80.1068C101.067 80.182 100.977 80.2306 100.878 80.2437Z" fill="white"></path><path d="M106.454 75.6673H60.125C60.0261 75.6542 59.9353 75.6056 59.8695 75.5304C59.8037 75.4552 59.7675 75.3586 59.7675 75.2587C59.7675 75.1587 59.8037 75.0621 59.8695 74.9869C59.9353 74.9118 60.0261 74.8631 60.125 74.8501H106.454C106.553 74.8631 106.644 74.9118 106.71 74.9869C106.776 75.0621 106.812 75.1587 106.812 75.2587C106.812 75.3586 106.776 75.4552 106.71 75.5304C106.644 75.6056 106.553 75.6542 106.454 75.6673Z" fill="white"></path><path d="M53.1181 75.6673H44.6815C44.5826 75.6542 44.4919 75.6056 44.4261 75.5304C44.3603 75.4552 44.3241 75.3586 44.3241 75.2587C44.3241 75.1587 44.3603 75.0621 44.4261 74.9869C44.4919 74.9118 44.5826 74.8631 44.6815 74.8501H53.1181C53.217 74.8631 53.3078 74.9118 53.3735 74.9869C53.4393 75.0621 53.4756 75.1587 53.4756 75.2587C53.4756 75.3586 53.4393 75.4552 53.3735 75.5304C53.3078 75.6056 53.217 75.6542 53.1181 75.6673Z" fill="white"></path><path d="M67.0959 40.3814L55.6564 51.7036L67.0959 63.0255L69.6698 60.4458L61.0186 51.7751L69.7411 43.0328L67.0959 40.3814Z" fill="#E6E6E6"></path><path d="M83.9688 40.3814L95.408 51.7036L83.9688 63.0255L81.3949 60.4458L90.0458 51.7751L81.3234 43.0328L83.9688 40.3814Z" fill="#E6E6E6"></path><path d="M67.0959 40.3814L55.6564 51.7036L67.0959 63.0255L69.6698 60.4458L61.0186 51.7751L69.7411 43.0328L67.0959 40.3814Z" fill="white"></path><path d="M83.9688 40.3814L95.408 51.7036L83.9688 63.0255L81.3949 60.4458L90.0458 51.7751L81.3234 43.0328L83.9688 40.3814Z" fill="white"></path></svg>