<svg xmlns="http://www.w3.org/2000/svg" width="529" height="340" viewBox="0 0 529 340" fill="none"><path d="M528.35 0.300537H0.581543V339.073H528.35V0.300537Z" fill="#CAD4DB" fill-opacity="0.5"></path><path d="M513.258 42.7905H15.6724V319.03H513.258V42.7905Z" fill="#C31130"></path><path d="M528.124 0H0.355469V22.4723H528.124V0Z" fill="#0D1012"></path><path d="M17.0175 15.6539C19.3126 15.6539 21.1731 13.7892 21.1731 11.4889C21.1731 9.18856 19.3126 7.32379 17.0175 7.32379C14.7224 7.32379 12.8618 9.18856 12.8618 11.4889C12.8618 13.7892 14.7224 15.6539 17.0175 15.6539Z" fill="white"></path><path d="M32.7919 15.6539C35.087 15.6539 36.9475 13.7892 36.9475 11.4889C36.9475 9.18856 35.087 7.32379 32.7919 7.32379C30.4968 7.32379 28.6362 9.18856 28.6362 11.4889C28.6362 13.7892 30.4968 15.6539 32.7919 15.6539Z" fill="white"></path><path d="M48.5648 15.6539C50.86 15.6539 52.7205 13.7892 52.7205 11.4889C52.7205 9.18856 50.86 7.32379 48.5648 7.32379C46.2697 7.32379 44.4092 9.18856 44.4092 11.4889C44.4092 13.7892 46.2697 15.6539 48.5648 15.6539Z" fill="white"></path><path d="M372.463 68.6637H210.465C210.12 68.6181 209.802 68.448 209.572 68.1851C209.342 67.9223 209.215 67.5846 209.215 67.235C209.215 66.8854 209.342 66.5477 209.572 66.2849C209.802 66.022 210.12 65.8519 210.465 65.8062H372.463C372.809 65.8519 373.126 66.022 373.356 66.2849C373.586 66.5477 373.713 66.8854 373.713 67.235C373.713 67.5846 373.586 67.9223 373.356 68.1851C373.126 68.448 372.809 68.6181 372.463 68.6637Z" fill="white"></path><path d="M260.215 84.3804H157.216C156.87 84.3347 156.553 84.1645 156.323 83.9017C156.093 83.6388 155.966 83.3012 155.966 82.9516C155.966 82.602 156.093 82.2643 156.323 82.0015C156.553 81.7386 156.87 81.5685 157.216 81.5228H260.215C260.561 81.5685 260.878 81.7386 261.108 82.0015C261.338 82.2643 261.465 82.602 261.465 82.9516C261.465 83.3012 261.338 83.6388 261.108 83.9017C260.878 84.1645 260.561 84.3347 260.215 84.3804Z" fill="white"></path><path d="M372.463 84.6659H269.464C269.119 84.6202 268.801 84.45 268.571 84.1872C268.341 83.9243 268.214 83.5867 268.214 83.2371C268.214 82.8875 268.341 82.5498 268.571 82.287C268.801 82.0241 269.119 81.854 269.464 81.8083H372.463C372.809 81.854 373.126 82.0241 373.356 82.287C373.586 82.5498 373.713 82.8875 373.713 83.2371C373.713 83.5867 373.586 83.9243 373.356 84.1872C373.126 84.45 372.809 84.6202 372.463 84.6659H372.463Z" fill="white"></path><path d="M260.464 100.096H157.466C157.12 100.05 156.803 99.8803 156.573 99.6175C156.343 99.3546 156.216 99.0169 156.216 98.6673C156.216 98.3177 156.343 97.9801 156.573 97.7172C156.803 97.4544 157.12 97.2843 157.466 97.2386H260.464C260.81 97.2843 261.128 97.4544 261.357 97.7172C261.587 97.9801 261.714 98.3177 261.714 98.6673C261.714 99.0169 261.587 99.3546 261.357 99.6175C261.128 99.8803 260.81 100.05 260.464 100.096Z" fill="white"></path><path d="M260.715 115.813H157.716C157.37 115.767 157.053 115.597 156.823 115.334C156.593 115.071 156.466 114.734 156.466 114.384C156.466 114.034 156.593 113.697 156.823 113.434C157.053 113.171 157.37 113.001 157.716 112.955H260.715C261.061 113.001 261.378 113.171 261.608 113.434C261.838 113.697 261.965 114.034 261.965 114.384C261.965 114.734 261.838 115.071 261.608 115.334C261.378 115.597 261.061 115.767 260.715 115.813Z" fill="white"></path><path d="M307.465 100.096H277.965C277.619 100.05 277.302 99.8803 277.072 99.6175C276.842 99.3546 276.715 99.0169 276.715 98.6673C276.715 98.3177 276.842 97.9801 277.072 97.7172C277.302 97.4544 277.619 97.2843 277.965 97.2386H307.465C307.811 97.2843 308.128 97.4544 308.358 97.7172C308.588 97.9801 308.715 98.3177 308.715 98.6673C308.715 99.0169 308.588 99.3546 308.358 99.6175C308.128 99.8803 307.811 100.05 307.465 100.096Z" fill="white"></path><path d="M307.465 115.527H277.965C277.619 115.481 277.302 115.311 277.072 115.048C276.842 114.785 276.715 114.448 276.715 114.098C276.715 113.749 276.842 113.411 277.072 113.148C277.302 112.885 277.619 112.715 277.965 112.669H307.465C307.811 112.715 308.128 112.885 308.358 113.148C308.588 113.411 308.715 113.749 308.715 114.098C308.715 114.448 308.588 114.785 308.358 115.048C308.128 115.311 307.811 115.481 307.465 115.527Z" fill="white"></path><path d="M356.963 115.527H327.464C327.118 115.481 326.801 115.311 326.571 115.048C326.341 114.785 326.214 114.448 326.214 114.098C326.214 113.749 326.341 113.411 326.571 113.148C326.801 112.885 327.118 112.715 327.464 112.669H356.963C357.309 112.715 357.627 112.885 357.857 113.148C358.087 113.411 358.213 113.749 358.213 114.098C358.213 114.448 358.087 114.785 357.857 115.048C357.627 115.311 357.309 115.481 356.963 115.527Z" fill="white"></path><path d="M185.966 68.6637H156.467C156.121 68.6181 155.804 68.448 155.574 68.1851C155.344 67.9223 155.217 67.5846 155.217 67.235C155.217 66.8854 155.344 66.5477 155.574 66.2849C155.804 66.022 156.121 65.8519 156.467 65.8062H185.966C186.312 65.8519 186.63 66.022 186.86 66.2849C187.09 66.5477 187.216 66.8854 187.216 67.235C187.216 67.5846 187.09 67.9223 186.86 68.1851C186.63 68.448 186.312 68.6181 185.966 68.6637Z" fill="white"></path><path d="M259.839 248.865H156.841C156.495 248.819 156.178 248.649 155.948 248.386C155.718 248.123 155.591 247.786 155.591 247.436C155.591 247.087 155.718 246.749 155.948 246.486C156.178 246.223 156.495 246.053 156.841 246.007H259.839C260.185 246.053 260.503 246.223 260.733 246.486C260.963 246.749 261.089 247.087 261.089 247.436C261.089 247.786 260.963 248.123 260.733 248.386C260.503 248.649 260.185 248.819 259.839 248.865H259.839Z" fill="white"></path><path d="M259.34 280.298H156.341C155.995 280.252 155.678 280.082 155.448 279.819C155.218 279.556 155.091 279.219 155.091 278.869C155.091 278.519 155.218 278.182 155.448 277.919C155.678 277.656 155.995 277.486 156.341 277.44H259.34C259.686 277.486 260.003 277.656 260.233 277.919C260.463 278.182 260.59 278.519 260.59 278.869C260.59 279.219 260.463 279.556 260.233 279.819C260.003 280.082 259.686 280.252 259.34 280.298H259.34Z" fill="white"></path><path d="M259.589 296.014H156.59C156.245 295.969 155.927 295.799 155.697 295.536C155.467 295.273 155.34 294.935 155.34 294.586C155.34 294.236 155.467 293.898 155.697 293.635C155.927 293.373 156.245 293.203 156.59 293.157H259.589C259.935 293.203 260.252 293.373 260.482 293.635C260.712 293.898 260.839 294.236 260.839 294.586C260.839 294.935 260.712 295.273 260.482 295.536C260.252 295.799 259.935 295.969 259.589 296.014H259.589Z" fill="white"></path><path d="M303.589 280.584H274.09C273.744 280.538 273.427 280.368 273.197 280.105C272.967 279.842 272.84 279.505 272.84 279.155C272.84 278.805 272.967 278.468 273.197 278.205C273.427 277.942 273.744 277.772 274.09 277.726H303.589C303.935 277.772 304.253 277.942 304.483 278.205C304.713 278.468 304.839 278.805 304.839 279.155C304.839 279.505 304.713 279.842 304.483 280.105C304.253 280.368 303.935 280.538 303.589 280.584Z" fill="white"></path><path d="M303.589 296.014H274.09C273.744 295.969 273.427 295.799 273.197 295.536C272.967 295.273 272.84 294.935 272.84 294.586C272.84 294.236 272.967 293.898 273.197 293.635C273.427 293.373 273.744 293.203 274.09 293.157H303.589C303.935 293.203 304.253 293.373 304.483 293.635C304.713 293.898 304.839 294.236 304.839 294.586C304.839 294.935 304.713 295.273 304.483 295.536C304.253 295.799 303.935 295.969 303.589 296.014Z" fill="white"></path><path d="M353.089 280.584H323.589C323.244 280.538 322.926 280.368 322.696 280.105C322.466 279.842 322.339 279.505 322.339 279.155C322.339 278.805 322.466 278.468 322.696 278.205C322.926 277.942 323.244 277.772 323.589 277.726H353.089C353.435 277.772 353.752 277.942 353.982 278.205C354.212 278.468 354.339 278.805 354.339 279.155C354.339 279.505 354.212 279.842 353.982 280.105C353.752 280.368 353.435 280.538 353.089 280.584Z" fill="white"></path><path d="M372.589 264.582H210.591C210.245 264.536 209.928 264.366 209.698 264.103C209.468 263.84 209.341 263.502 209.341 263.153C209.341 262.803 209.468 262.466 209.698 262.203C209.928 261.94 210.245 261.77 210.591 261.724H372.589C372.935 261.77 373.252 261.94 373.482 262.203C373.712 262.466 373.839 262.803 373.839 263.153C373.839 263.502 373.712 263.84 373.482 264.103C373.252 264.366 372.935 264.536 372.589 264.582Z" fill="white"></path><path d="M186.09 264.582H156.59C156.244 264.536 155.927 264.366 155.697 264.103C155.467 263.84 155.34 263.502 155.34 263.153C155.34 262.803 155.467 262.466 155.697 262.203C155.927 261.94 156.244 261.77 156.59 261.724H186.09C186.436 261.77 186.753 261.94 186.983 262.203C187.213 262.466 187.34 262.803 187.34 263.153C187.34 263.502 187.213 263.84 186.983 264.103C186.753 264.366 186.436 264.536 186.09 264.582Z" fill="white"></path><path d="M234.967 141.199L194.967 180.789L234.967 220.378L243.966 211.358L213.716 181.039L244.216 150.471L234.967 141.199Z" fill="#E6E6E6"></path><path d="M293.964 141.199L333.963 180.789L293.964 220.378L284.964 211.358L315.213 181.039L284.714 150.471L293.964 141.199Z" fill="#E6E6E6"></path><path d="M234.967 141.199L194.967 180.789L234.967 220.378L243.966 211.358L213.716 181.039L244.216 150.471L234.967 141.199Z" fill="white"></path><path d="M293.964 141.199L333.963 180.789L293.964 220.378L284.964 211.358L315.213 181.039L284.714 150.471L293.964 141.199Z" fill="white"></path></svg>