<svg xmlns="http://www.w3.org/2000/svg" width="74" height="60" viewBox="0 0 74 60" fill="none"><path d="M1.08398 45.7303C1.68263 45.7303 2.16797 45.2451 2.16797 44.6463V15.1758H50.0078C50.6065 15.1758 51.0918 14.6906 51.0918 14.0918C51.0918 13.493 50.6065 13.0078 50.0078 13.0078H2.16797V6.86523C2.16797 4.27509 4.27523 2.16797 6.86523 2.16797H12.6911C13.2898 2.16797 13.7751 1.68278 13.7751 1.08398C13.7751 0.485191 13.2898 0 12.6911 0H6.86523C3.07982 0 0 3.07982 0 6.86523V44.6463C0 45.2451 0.485336 45.7303 1.08398 45.7303Z" fill="#C31130"></path><path d="M67.1348 0H17.7497C17.1511 0 16.6658 0.485191 16.6658 1.08398C16.6658 1.68278 17.1511 2.16797 17.7497 2.16797H67.1348C69.7248 2.16797 71.832 4.27509 71.832 6.86523V13.0078H55.0664C54.4678 13.0078 53.9824 13.493 53.9824 14.0918C53.9824 14.6906 54.4678 15.1758 55.0664 15.1758H71.832V52.8262C71.832 55.4163 69.7248 57.5234 67.1348 57.5234H6.86523C4.27523 57.5234 2.16797 55.4163 2.16797 52.8262V49.7049C2.16797 49.1061 1.68263 48.6209 1.08398 48.6209C0.485336 48.6209 0 49.1061 0 49.7049V52.8262C0 56.6116 3.07982 59.6914 6.86523 59.6914H67.1348C70.9202 59.6914 74 56.6116 74 52.8262V6.86523C74 3.07982 70.9202 0 67.1348 0Z" fill="#C31130"></path><path d="M4.44434 7.55176C4.44434 9.34481 5.90309 10.8037 7.69629 10.8037C9.48949 10.8037 10.9482 9.34481 10.9482 7.55176C10.9482 5.7587 9.48949 4.2998 7.69629 4.2998C5.90309 4.2998 4.44434 5.7587 4.44434 7.55176ZM8.78027 7.55176C8.78027 8.14954 8.29407 8.63574 7.69629 8.63574C7.09851 8.63574 6.6123 8.14954 6.6123 7.55176C6.6123 6.95398 7.09851 6.46777 7.69629 6.46777C8.29407 6.46777 8.78027 6.95398 8.78027 7.55176Z" fill="#C31130"></path><path d="M16.9824 10.8398C18.7756 10.8398 20.2344 9.38095 20.2344 7.58789C20.2344 5.79484 18.7756 4.33594 16.9824 4.33594C15.1892 4.33594 13.7305 5.79484 13.7305 7.58789C13.7305 9.38095 15.1892 10.8398 16.9824 10.8398ZM16.9824 6.50391C17.5802 6.50391 18.0664 6.99011 18.0664 7.58789C18.0664 8.18567 17.5802 8.67188 16.9824 8.67188C16.3846 8.67188 15.8984 8.18567 15.8984 7.58789C15.8984 6.99011 16.3846 6.50391 16.9824 6.50391Z" fill="#C31130"></path><path d="M29.4844 7.58789C29.4844 5.79484 28.0256 4.33594 26.2324 4.33594C24.4392 4.33594 22.9805 5.79484 22.9805 7.58789C22.9805 9.38095 24.4392 10.8398 26.2324 10.8398C28.0256 10.8398 29.4844 9.38095 29.4844 7.58789ZM25.1484 7.58789C25.1484 6.99011 25.6346 6.50391 26.2324 6.50391C26.8302 6.50391 27.3164 6.99011 27.3164 7.58789C27.3164 8.18567 26.8302 8.67188 26.2324 8.67188C25.6346 8.67188 25.1484 8.18567 25.1484 7.58789Z" fill="#C31130"></path><path d="M69.6641 7.58789C69.6641 5.79484 68.2053 4.33594 66.4121 4.33594H35.627C33.8338 4.33594 32.375 5.79484 32.375 7.58789C32.375 9.38095 33.8338 10.8398 35.627 10.8398H66.4121C68.2053 10.8398 69.6641 9.38095 69.6641 7.58789ZM34.543 7.58789C34.543 6.99011 35.0292 6.50391 35.627 6.50391H66.4121C67.0099 6.50391 67.4961 6.99011 67.4961 7.58789C67.4961 8.18567 67.0099 8.67188 66.4121 8.67188H35.627C35.0292 8.67188 34.543 8.18567 34.543 7.58789Z" fill="#C31130"></path><path d="M53.6341 39.6362C54.0835 39.4928 54.3886 39.0753 54.3886 38.6035V34.0677C54.3886 33.596 54.0836 33.1786 53.6341 33.035L50.7201 32.105C50.455 31.2424 50.1081 30.4062 49.6844 29.6072L51.0879 26.8878C51.3043 26.4688 51.2247 25.9578 50.8912 25.6242L47.6839 22.4169C47.3505 22.0833 46.8396 22.0038 46.4203 22.2202L43.7008 23.6239C43.1367 23.325 42.5522 23.0634 41.9537 22.8423L40.7747 19.6302C40.6182 19.2034 40.2118 18.9197 39.7571 18.9197H34.188C33.7333 18.9197 33.3271 19.2034 33.1704 19.6302L31.9974 22.8261C31.4127 23.0335 30.7623 23.3234 30.2267 23.6148L27.5248 22.2202C27.1056 22.004 26.5946 22.0835 26.2612 22.4169L23.0539 25.6242C22.7203 25.9579 22.6408 26.4688 22.8572 26.8878L24.2607 29.6072C23.837 30.4062 23.4901 31.2424 23.2249 32.105L20.3109 33.035C19.8615 33.1784 19.5564 33.596 19.5564 34.0677V38.6035C19.5564 39.0753 19.8614 39.4927 20.3109 39.6362L23.2249 40.5663C23.4901 41.4288 23.837 42.2651 24.2607 43.0641L22.8572 45.7834C22.6408 46.2024 22.7205 46.7136 23.0539 47.0471L26.2612 50.2542C26.5946 50.5876 27.1056 50.667 27.5248 50.4509L30.2442 49.0474C31.0432 49.4711 31.8796 49.8179 32.742 50.0831L33.672 52.9971C33.8154 53.4465 34.233 53.7516 34.7047 53.7516H39.2404C39.7122 53.7516 40.1297 53.4466 40.2731 52.9971L41.2031 50.0831C42.0656 49.8179 42.9018 49.4711 43.7008 49.0474L46.4203 50.4509C46.8394 50.667 47.3505 50.5875 47.6839 50.2542L50.8912 47.0471C51.2248 46.7135 51.3043 46.2024 51.0879 45.7834L49.6844 43.0641C50.1081 42.2651 50.455 41.4288 50.7201 40.5663L53.6341 39.6362ZM49.5072 38.6777C49.1534 38.7906 48.8821 39.0767 48.788 39.436C48.5078 40.5073 48.0808 41.5371 47.5189 42.4966C47.3313 42.8172 47.3207 43.2115 47.4911 43.5414L48.7981 46.0739L46.7108 48.1611L44.1783 46.8541C43.8482 46.6837 43.4541 46.6941 43.1335 46.882C42.174 47.4438 41.1443 47.8707 40.0729 48.151C39.7136 48.2449 39.4274 48.5162 39.3145 48.8702L38.4487 51.5835H35.4966L34.6307 48.8702C34.5178 48.5164 34.2317 48.2451 33.8724 48.151C32.801 47.8709 31.7712 47.4436 30.8116 46.882C30.4912 46.6941 30.0969 46.6837 29.7668 46.8541L27.2345 48.1611L25.1472 46.0739L26.4542 43.5414C26.6246 43.2115 26.614 42.8171 26.4264 42.4966C25.8646 41.5372 25.4375 40.5074 25.1573 39.4359C25.0633 39.0767 24.7919 38.7906 24.4381 38.6777L21.7248 37.8116V34.8597L24.4381 33.9937C24.7919 33.8808 25.0632 33.5947 25.1573 33.2355C25.4375 32.1639 25.8646 31.1342 26.4264 30.1748C26.614 29.8542 26.6246 29.4599 26.4542 29.1299L25.1472 26.5975L27.2345 24.5101L29.7668 25.8173C30.1176 25.9982 30.539 25.9742 30.8671 25.7546C31.3945 25.4015 32.448 24.9281 33.1217 24.7418C33.4586 24.6486 33.7299 24.3987 33.8503 24.0705L34.9451 21.0876H39.0005L40.0953 24.0705C40.2096 24.3819 40.4603 24.6239 40.7756 24.7272C41.5954 24.9955 42.3887 25.3529 43.1338 25.7892C43.4542 25.9771 43.8488 25.9874 44.1788 25.8171L46.7111 24.51L48.7984 26.5973L47.4914 29.1298C47.321 29.4598 47.3316 29.8542 47.5192 30.1746C48.0811 31.1342 48.508 32.1639 48.7883 33.2352C48.8822 33.5945 49.1537 33.8807 49.5075 33.9936L52.2208 34.8596V37.8115L49.5072 38.6777Z" fill="#C31130"></path><path d="M36.9277 28.1113C32.425 28.1113 28.7617 31.7746 28.7617 36.2773C28.7617 40.7801 32.425 44.4434 36.9277 44.4434C37.9754 44.4434 38.9961 44.2475 39.9614 43.861C40.5172 43.6385 40.7874 43.0076 40.5649 42.4519C40.3423 41.896 39.7116 41.6257 39.1557 41.8483C38.4478 42.1317 37.6982 42.2754 36.9277 42.2754C33.6204 42.2754 30.9297 39.5847 30.9297 36.2773C30.9297 32.97 33.6204 30.2793 36.9277 30.2793C40.235 30.2793 42.9258 32.97 42.9258 36.2773C42.9258 37.2119 42.7172 38.1067 42.3056 38.9367C42.0397 39.4732 42.2591 40.1235 42.7954 40.3894C43.3321 40.6552 43.9822 40.4361 44.2481 39.8996C44.8092 38.7675 45.0938 37.5488 45.0938 36.2772C45.0938 31.7746 41.4305 28.1113 36.9277 28.1113Z" fill="#C31130"></path></svg>