<svg xmlns="http://www.w3.org/2000/svg" width="186" height="109" viewBox="0 0 186 109" fill="none"><path d="M40.8813 96.6556C46.3005 96.6556 50.6936 92.2431 50.6936 86.8C50.6936 81.3569 46.3005 76.9443 40.8813 76.9443C35.4621 76.9443 31.0689 81.3569 31.0689 86.8C31.0689 92.2431 35.4621 96.6556 40.8813 96.6556Z" fill="#F2F2F2"></path><path d="M42.4768 95.2134C47.896 95.2134 52.2891 90.8009 52.2891 85.3578C52.2891 79.9147 47.896 75.5021 42.4768 75.5021C37.0576 75.5021 32.6644 79.9147 32.6644 85.3578C32.6644 90.8009 37.0576 95.2134 42.4768 95.2134Z" fill="#C31130"></path><path d="M113.255 3.10301H70.1637V2.21094H50.6244V3.10301H7.35551C6.97273 3.10301 6.5937 3.17873 6.24006 3.32586C5.88642 3.47299 5.56509 3.68864 5.29443 3.9605C5.02377 4.23236 4.80906 4.5551 4.66258 4.9103C4.5161 5.2655 4.4407 5.6462 4.4407 6.03067V65.2963C4.4407 66.0728 4.7478 66.8174 5.29443 67.3665C5.84106 67.9155 6.58245 68.224 7.35551 68.224H113.255C114.028 68.224 114.769 67.9155 115.316 67.3665C115.863 66.8174 116.17 66.0728 116.17 65.2963V6.03067C116.17 5.6462 116.094 5.2655 115.948 4.9103C115.801 4.5551 115.587 4.23236 115.316 3.9605C115.045 3.68864 114.724 3.47299 114.37 3.32586C114.017 3.17873 113.638 3.10301 113.255 3.10301Z" fill="#0B0B0E"></path><path d="M112.262 8.27698H8.3486V67.1535H112.262V8.27698Z" fill="#C31130"></path><path d="M60.2166 6.67117C60.8052 6.67117 61.2824 6.1919 61.2824 5.60069C61.2824 5.00948 60.8052 4.53021 60.2166 4.53021C59.628 4.53021 59.1508 5.00948 59.1508 5.60069C59.1508 6.1919 59.628 6.67117 60.2166 6.67117Z" fill="white"></path><path opacity="0.1" d="M82.5445 67.1535H8.3486V8.27698L82.5445 67.1535Z" fill="black"></path><path d="M24.608 62.7477C30.1244 62.7477 34.5964 58.2559 34.5964 52.7151C34.5964 47.1743 30.1244 42.6826 24.608 42.6826C19.0915 42.6826 14.6195 47.1743 14.6195 52.7151C14.6195 58.2559 19.0915 62.7477 24.608 62.7477Z" fill="#F2F2F2"></path><path d="M94.1691 40.0295H84.4624V42.0667H94.1691V40.0295Z" fill="white"></path><path d="M105.904 24.1684H72.7275V25.0415H105.904V24.1684Z" fill="white"></path><path d="M105.904 26.9332H72.7275V27.8063H105.904V26.9332Z" fill="white"></path><path d="M105.904 29.698H72.7275V30.5711H105.904V29.698Z" fill="white"></path><path d="M105.904 32.4628H72.7275V33.3359H105.904V32.4628Z" fill="white"></path><path d="M105.904 35.2275H72.7275V36.1006H105.904V35.2275Z" fill="white"></path><path d="M105.904 9.47144H101.847V13.5458H105.904V9.47144Z" fill="#F2F2F2"></path><path d="M107.787 15.4375H102.861V10.49H107.787V15.4375ZM103.076 15.2224H107.573V10.7051H103.076V15.2224Z" fill="white"></path><path d="M119.088 66.083H108.946V65.3491C108.946 65.33 108.942 65.3111 108.935 65.2934C108.928 65.2758 108.917 65.2597 108.904 65.2462C108.89 65.2327 108.874 65.222 108.857 65.2147C108.839 65.2074 108.82 65.2036 108.801 65.2036H105.324C105.305 65.2036 105.286 65.2074 105.269 65.2147C105.251 65.222 105.235 65.2327 105.222 65.2462C105.208 65.2597 105.198 65.2758 105.191 65.2934C105.183 65.3111 105.179 65.33 105.179 65.3491V66.083H103.006V65.3491C103.006 65.33 103.003 65.3111 102.995 65.2934C102.988 65.2758 102.977 65.2597 102.964 65.2462C102.95 65.2327 102.934 65.222 102.917 65.2147C102.899 65.2074 102.881 65.2036 102.861 65.2036H99.3845C99.3654 65.2036 99.3466 65.2074 99.329 65.2147C99.3114 65.222 99.2955 65.2327 99.282 65.2462C99.2686 65.2597 99.2579 65.2758 99.2506 65.2934C99.2433 65.3111 99.2396 65.33 99.2396 65.3491V66.083H97.0665V65.3491C97.0665 65.33 97.0627 65.3111 97.0554 65.2934C97.0482 65.2758 97.0375 65.2597 97.024 65.2462C97.0106 65.2327 96.9946 65.222 96.977 65.2147C96.9594 65.2074 96.9406 65.2036 96.9216 65.2036H93.4446C93.4256 65.2036 93.4067 65.2074 93.3891 65.2147C93.3716 65.222 93.3556 65.2327 93.3421 65.2462C93.3287 65.2597 93.318 65.2758 93.3107 65.2934C93.3035 65.3111 93.2997 65.33 93.2997 65.3491V66.083H91.1266V65.3491C91.1266 65.33 91.1228 65.3111 91.1155 65.2934C91.1083 65.2758 91.0976 65.2597 91.0841 65.2462C91.0707 65.2327 91.0547 65.222 91.0371 65.2147C91.0196 65.2074 91.0007 65.2036 90.9817 65.2036H87.5047C87.4857 65.2036 87.4668 65.2074 87.4492 65.2147C87.4317 65.222 87.4157 65.2327 87.4022 65.2462C87.3888 65.2597 87.3781 65.2758 87.3708 65.2934C87.3636 65.3111 87.3598 65.33 87.3598 65.3491V66.083H85.1867V65.3491C85.1867 65.33 85.1829 65.3111 85.1757 65.2934C85.1684 65.2758 85.1577 65.2597 85.1442 65.2462C85.1308 65.2327 85.1148 65.222 85.0973 65.2147C85.0797 65.2074 85.0608 65.2036 85.0418 65.2036H81.5648C81.5458 65.2036 81.5269 65.2074 81.5094 65.2147C81.4918 65.222 81.4758 65.2327 81.4624 65.2462C81.4489 65.2597 81.4382 65.2758 81.431 65.2934C81.4237 65.3111 81.4199 65.33 81.4199 65.3491V66.083H79.2468V65.3491C79.2468 65.33 79.243 65.3111 79.2358 65.2934C79.2285 65.2758 79.2178 65.2597 79.2044 65.2462C79.1909 65.2327 79.1749 65.222 79.1574 65.2147C79.1398 65.2074 79.1209 65.2036 79.1019 65.2036H75.6249C75.6059 65.2036 75.5871 65.2074 75.5695 65.2147C75.5519 65.222 75.5359 65.2327 75.5225 65.2462C75.509 65.2597 75.4983 65.2758 75.4911 65.2934C75.4838 65.3111 75.48 65.33 75.48 65.3491V66.083H73.3069V65.3491C73.3069 65.33 73.3032 65.3111 73.2959 65.2934C73.2886 65.2758 73.2779 65.2597 73.2645 65.2462C73.251 65.2327 73.235 65.222 73.2175 65.2147C73.1999 65.2074 73.1811 65.2036 73.162 65.2036H45.9255C45.9065 65.2036 45.8876 65.2074 45.87 65.2147C45.8525 65.222 45.8365 65.2327 45.823 65.2462C45.8096 65.2597 45.7989 65.2758 45.7916 65.2934C45.7843 65.3111 45.7806 65.33 45.7806 65.3491V66.083H43.6075V65.3491C43.6075 65.33 43.6037 65.3111 43.5964 65.2934C43.5892 65.2758 43.5785 65.2597 43.565 65.2462C43.5516 65.2327 43.5356 65.222 43.518 65.2147C43.5005 65.2074 43.4816 65.2036 43.4626 65.2036H39.9856C39.9666 65.2036 39.9477 65.2074 39.9301 65.2147C39.9126 65.222 39.8966 65.2327 39.8831 65.2462C39.8697 65.2597 39.859 65.2758 39.8517 65.2934C39.8445 65.3111 39.8407 65.33 39.8407 65.3491V66.083H37.6676V65.3491C37.6676 65.33 37.6638 65.3111 37.6566 65.2934C37.6493 65.2758 37.6386 65.2597 37.6251 65.2462C37.6117 65.2327 37.5957 65.222 37.5781 65.2147C37.5606 65.2074 37.5417 65.2036 37.5227 65.2036H34.0457C34.0267 65.2036 34.0078 65.2074 33.9903 65.2147C33.9727 65.222 33.9567 65.2327 33.9433 65.2462C33.9298 65.2597 33.9191 65.2758 33.9118 65.2934C33.9046 65.3111 33.9008 65.33 33.9008 65.3491V66.083H31.7277V65.3491C31.7277 65.33 31.7239 65.3111 31.7167 65.2934C31.7094 65.2758 31.6987 65.2597 31.6853 65.2462C31.6718 65.2327 31.6558 65.222 31.6383 65.2147C31.6207 65.2074 31.6018 65.2036 31.5828 65.2036H28.1058C28.0868 65.2036 28.0679 65.2074 28.0504 65.2147C28.0328 65.222 28.0168 65.2327 28.0034 65.2462C27.9899 65.2597 27.9792 65.2758 27.972 65.2934C27.9647 65.3111 27.9609 65.33 27.9609 65.3491V66.083H25.7878V65.3491C25.7878 65.33 25.7841 65.3111 25.7768 65.2934C25.7695 65.2758 25.7588 65.2597 25.7454 65.2462C25.7319 65.2327 25.716 65.222 25.6984 65.2147C25.6808 65.2074 25.662 65.2036 25.6429 65.2036H22.1659C22.1469 65.2036 22.1281 65.2074 22.1105 65.2147C22.0929 65.222 22.0769 65.2327 22.0635 65.2462C22.05 65.2597 22.0394 65.2758 22.0321 65.2934C22.0248 65.3111 22.021 65.33 22.021 65.3491V66.083H19.8479V65.3491C19.8479 65.33 19.8442 65.3111 19.8369 65.2934C19.8296 65.2758 19.8189 65.2597 19.8055 65.2462C19.792 65.2327 19.7761 65.222 19.7585 65.2147C19.7409 65.2074 19.7221 65.2036 19.703 65.2036H16.226C16.207 65.2036 16.1882 65.2074 16.1706 65.2147C16.153 65.222 16.137 65.2327 16.1236 65.2462C16.1101 65.2597 16.0995 65.2758 16.0922 65.2934C16.0849 65.3111 16.0812 65.33 16.0812 65.3491V66.083H13.908V65.3491C13.908 65.33 13.9043 65.3111 13.897 65.2934C13.8897 65.2758 13.8791 65.2597 13.8656 65.2462C13.8521 65.2327 13.8362 65.222 13.8186 65.2147C13.801 65.2074 13.7822 65.2036 13.7632 65.2036H10.2861C10.2671 65.2036 10.2483 65.2074 10.2307 65.2147C10.2131 65.222 10.1972 65.2327 10.1837 65.2462C10.1703 65.2597 10.1596 65.2758 10.1523 65.2934C10.145 65.3111 10.1413 65.33 10.1413 65.3491V66.083H3.47701C2.55485 66.083 1.67046 66.451 1.01839 67.1059C0.366328 67.7609 8.78542e-07 68.6491 0 69.5754V71.1545C2.63563e-06 72.0808 0.36633 72.9691 1.0184 73.624C1.67046 74.2789 2.55485 74.6469 3.47701 74.6469H119.088C120.01 74.6469 120.894 74.2789 121.546 73.624C122.198 72.9691 122.565 72.0808 122.565 71.1545V69.5754C122.565 68.6491 122.198 67.7609 121.546 67.1059C120.894 66.451 120.01 66.083 119.088 66.083Z" fill="#0B0B0E"></path><path d="M27.0257 58.9814C24.5361 58.9814 22.1024 58.2398 20.0323 56.8506C17.9623 55.4613 16.3489 53.4867 15.3962 51.1765C14.4434 48.8662 14.1942 46.3241 14.6799 43.8715C15.1656 41.419 16.3644 39.1661 18.1248 37.398C19.8853 35.6298 22.1282 34.4256 24.57 33.9378C27.0117 33.4499 29.5427 33.7003 31.8428 34.6572C34.1429 35.6142 36.1088 37.2347 37.492 39.3139C38.8752 41.393 39.6134 43.8375 39.6134 46.3381C39.6096 49.6901 38.2822 52.9038 35.9224 55.274C33.5625 57.6443 30.363 58.9776 27.0257 58.9814ZM27.0257 34.0275C24.6016 34.0275 22.2319 34.7495 20.2164 36.1022C18.2008 37.4549 16.6299 39.3776 15.7022 41.627C14.7746 43.8765 14.5318 46.3518 15.0048 48.7398C15.4777 51.1278 16.645 53.3213 18.3591 55.043C20.0732 56.7646 22.2571 57.9371 24.6346 58.4121C27.0121 58.8871 29.4765 58.6433 31.716 57.7116C33.9556 56.7798 35.8698 55.2019 37.2166 53.1775C38.5633 51.153 39.2822 48.7729 39.2822 46.3381C39.2785 43.0743 37.986 39.9452 35.6883 37.6373C33.3905 35.3294 30.2752 34.0312 27.0257 34.0275Z" fill="white"></path><path d="M82.6483 91.4973H78.0107V96.1553H82.6483V91.4973Z" fill="white"></path><path d="M85.464 93.4935H79.8326V87.8373H85.464V93.4935ZM80.0775 93.2476H85.2191V88.0833H80.0775V93.2476Z" fill="white"></path><path d="M136.477 3.65991H131.84V8.31795H136.477V3.65991Z" fill="white"></path><path d="M139.293 5.6562H133.662V0H139.293V5.6562ZM133.906 5.41027H139.048V0.245922H133.906V5.41027Z" fill="white"></path><path d="M183.184 91.4973H178.547V96.1553H183.184V91.4973Z" fill="white"></path><path d="M186 93.4935H180.369V87.8373H186V93.4935ZM180.613 93.2476H185.755V88.0833H180.613V93.2476Z" fill="white"></path><path d="M175.097 38.5883H174.703V27.7481C174.703 26.9242 174.541 26.1083 174.228 25.3471C173.914 24.5859 173.453 23.8943 172.873 23.3117C172.293 22.7291 171.605 22.2669 170.847 21.9516C170.089 21.6363 169.277 21.4741 168.457 21.4741H145.591C144.771 21.4741 143.959 21.6363 143.201 21.9516C142.443 22.2669 141.754 22.7291 141.174 23.3117C140.594 23.8943 140.134 24.5859 139.82 25.3471C139.506 26.1083 139.345 26.9242 139.345 27.7481V87.2182C139.345 88.0421 139.506 88.858 139.82 89.6192C140.134 90.3804 140.594 91.072 141.174 91.6546C141.754 92.2372 142.443 92.6993 143.201 93.0146C143.959 93.3299 144.771 93.4922 145.591 93.4922H168.457C169.277 93.4922 170.089 93.3299 170.847 93.0146C171.605 92.6993 172.293 92.2372 172.873 91.6546C173.453 91.072 173.914 90.3804 174.228 89.6192C174.541 88.858 174.703 88.0421 174.703 87.2182V46.3045H175.097V38.5883Z" fill="#0D1012"></path><path d="M173.373 28.1168V87.5002C173.373 88.7429 172.882 89.9347 172.007 90.8136C171.132 91.6924 169.946 92.1863 168.709 92.1865H145.733C144.496 92.1863 143.309 91.6924 142.434 90.8136C141.56 89.9347 141.068 88.7429 141.069 87.5002V28.1168C141.069 26.8744 141.56 25.6829 142.435 24.8044C143.31 23.9259 144.496 23.4323 145.733 23.4321H148.52C148.383 23.7701 148.331 24.1368 148.368 24.4999C148.405 24.8629 148.531 25.2113 148.733 25.5142C148.936 25.8171 149.21 26.0652 149.531 26.2368C149.851 26.4084 150.209 26.4981 150.572 26.4981H163.672C164.035 26.4981 164.393 26.4084 164.714 26.2368C165.035 26.0652 165.308 25.8171 165.511 25.5142C165.714 25.2113 165.839 24.8629 165.876 24.4999C165.914 24.1368 165.861 23.7701 165.724 23.4321H168.709C169.946 23.4323 171.132 23.9259 172.007 24.8044C172.881 25.6829 173.373 26.8744 173.373 28.1168Z" fill="#C31130"></path><path d="M160.643 62.5872H153.799V64.6244H160.643V62.5872Z" fill="white"></path><path d="M168.917 46.726H145.524V47.5991H168.917V46.726Z" fill="white"></path><path d="M168.917 49.4908H145.524V50.3639H168.917V49.4908Z" fill="white"></path><path d="M168.917 52.2555H145.524V53.1286H168.917V52.2555Z" fill="white"></path><path d="M168.917 55.0203H145.524V55.8934H168.917V55.0203Z" fill="white"></path><path d="M168.917 57.7852H145.524V58.6582H168.917V57.7852Z" fill="white"></path><path d="M158.038 35.1314H153.981V39.2058H158.038V35.1314Z" fill="#F2F2F2"></path><path d="M155.534 36.1503V41.0978H160.46V36.1503H155.534ZM160.246 40.8832H155.748V36.3649H160.246V40.8832Z" fill="white"></path><path opacity="0.1" d="M173.373 81.1587V87.5003C173.373 88.7429 172.882 89.9348 172.007 90.8136C171.132 91.6925 169.946 92.1864 168.709 92.1866H145.733C144.496 92.1864 143.309 91.6925 142.434 90.8136C141.56 89.9348 141.068 88.7429 141.069 87.5003V55.5245L160.426 70.8844L160.757 71.1472L164.358 74.0036L164.694 74.2714L173.373 81.1587Z" fill="black"></path><path d="M155.233 90.2621C159.246 90.2621 162.499 86.9947 162.499 82.9643C162.499 78.9338 159.246 75.6665 155.233 75.6665C151.221 75.6665 147.968 78.9338 147.968 82.9643C147.968 86.9947 151.221 90.2621 155.233 90.2621Z" fill="#F2F2F2"></path><path d="M53.0292 108.889C50.1792 108.889 47.3933 108.04 45.0236 106.45C42.654 104.859 40.807 102.599 39.7164 99.9544C38.6258 97.3097 38.3404 94.3997 38.8964 91.5921C39.4524 88.7846 40.8248 86.2057 42.84 84.1816C44.8552 82.1575 47.4228 80.7791 50.218 80.2206C53.0132 79.6622 55.9105 79.9488 58.5435 81.0442C61.1765 82.1397 63.427 83.9947 65.0103 86.3748C66.5937 88.7549 67.4388 91.5532 67.4388 94.4157C67.4344 98.2529 65.9149 101.932 63.2135 104.645C60.5121 107.358 56.8495 108.885 53.0292 108.889ZM53.0292 80.2752C50.2447 80.2752 47.5228 81.1046 45.2076 82.6583C42.8925 84.2121 41.088 86.4206 40.0225 89.0044C38.9569 91.5882 38.6781 94.4314 39.2213 97.1744C39.7645 99.9174 41.1054 102.437 43.0743 104.415C45.0431 106.392 47.5517 107.739 50.2826 108.285C53.0135 108.83 55.8442 108.55 58.4167 107.48C60.9892 106.41 63.1879 104.597 64.7349 102.272C66.2818 99.9464 67.1075 97.2124 67.1075 94.4157C67.1033 90.6667 65.6187 87.0725 62.9794 84.4216C60.3401 81.7706 56.7617 80.2795 53.0292 80.2752Z" fill="white"></path><path d="M157.375 88.5931C155.573 88.5931 153.812 88.0565 152.314 87.0511C150.816 86.0458 149.648 84.6168 148.959 82.9449C148.269 81.273 148.089 79.4333 148.44 77.6584C148.792 75.8835 149.659 74.2532 150.933 72.9736C152.207 71.694 153.83 70.8226 155.598 70.4695C157.365 70.1165 159.196 70.2977 160.861 70.9902C162.525 71.6827 163.948 72.8555 164.949 74.3601C165.95 75.8648 166.484 77.6338 166.484 79.4434C166.482 81.8692 165.521 84.1949 163.813 85.9102C162.105 87.6255 159.79 88.5904 157.375 88.5931ZM157.375 70.6264C155.639 70.6264 153.941 71.1435 152.498 72.1124C151.054 73.0812 149.929 74.4582 149.265 76.0693C148.6 77.6804 148.426 79.4532 148.765 81.1635C149.104 82.8739 149.94 84.4449 151.168 85.678C152.395 86.9111 153.959 87.7508 155.662 88.091C157.365 88.4312 159.13 88.2566 160.734 87.5893C162.338 86.9219 163.709 85.7918 164.674 84.3419C165.638 82.8919 166.153 81.1873 166.153 79.4434C166.15 77.1058 165.225 74.8647 163.579 73.2118C161.933 71.5588 159.702 70.629 157.375 70.6264Z" fill="white"></path></svg>