<svg xmlns="http://www.w3.org/2000/svg" width="60" height="60" viewBox="0 0 60 60" fill="none"><path d="M55.7812 7.53906H4.21875C3.3488 7.54002 2.51476 7.88604 1.89962 8.50118C1.28447 9.11633 0.938462 9.95037 0.9375 10.8203V46.4453C0.938462 47.3153 1.28447 48.1493 1.89962 48.7644C2.51476 49.3796 3.3488 49.7256 4.21875 49.7266H22.1941L20.8559 54.4141H16.875C16.6264 54.4141 16.3879 54.5128 16.2121 54.6886C16.0363 54.8645 15.9375 55.1029 15.9375 55.3516V58.1641C15.9375 58.4127 16.0363 58.6512 16.2121 58.827C16.3879 59.0028 16.6264 59.1016 16.875 59.1016H43.125C43.3736 59.1016 43.6121 59.0028 43.7879 58.827C43.9637 58.6512 44.0625 58.4127 44.0625 58.1641V55.3516C44.0625 55.1029 43.9637 54.8645 43.7879 54.6886C43.6121 54.5128 43.3736 54.4141 43.125 54.4141H39.1441L37.8059 49.7266H55.7812C56.6512 49.7256 57.4852 49.3796 58.1004 48.7644C58.7155 48.1493 59.0615 47.3153 59.0625 46.4453V10.8203C59.0615 9.95037 58.7155 9.11633 58.1004 8.50118C57.4852 7.88604 56.6512 7.54002 55.7812 7.53906ZM42.1875 56.2891V57.2266H17.8125V56.2891H42.1875ZM22.8059 54.4141L24.1441 49.7266H35.8559L37.1941 54.4141H22.8059ZM57.1875 46.4453C57.1872 46.8182 57.0389 47.1757 56.7753 47.4393C56.5116 47.703 56.1541 47.8513 55.7812 47.8516H4.21875C3.84588 47.8513 3.48838 47.703 3.22472 47.4393C2.96107 47.1757 2.81281 46.8182 2.8125 46.4453V44.1016H57.1875V46.4453ZM57.1875 42.2266H2.8125V10.8203C2.81281 10.4474 2.96107 10.0899 3.22472 9.82629C3.48838 9.56263 3.84588 9.41437 4.21875 9.41406H55.7812C56.1541 9.41437 56.5116 9.56263 56.7753 9.82629C57.0389 10.0899 57.1872 10.4474 57.1875 10.8203V42.2266Z" fill="#C31130"></path><path d="M5.625 18.7891H9.375C9.62364 18.7891 9.8621 18.6903 10.0379 18.5145C10.2137 18.3387 10.3125 18.1002 10.3125 17.8516V14.1016C10.3125 13.8529 10.2137 13.6145 10.0379 13.4387C9.8621 13.2628 9.62364 13.1641 9.375 13.1641H5.625C5.37636 13.1641 5.1379 13.2628 4.96209 13.4387C4.78627 13.6145 4.6875 13.8529 4.6875 14.1016V17.8516C4.6875 18.1002 4.78627 18.3387 4.96209 18.5145C5.1379 18.6903 5.37636 18.7891 5.625 18.7891ZM6.5625 15.0391H8.4375V16.9141H6.5625V15.0391Z" fill="#C31130"></path><path d="M5.625 25.3516H9.375C9.62364 25.3516 9.8621 25.2528 10.0379 25.077C10.2137 24.9012 10.3125 24.6627 10.3125 24.4141V20.6641C10.3125 20.4154 10.2137 20.177 10.0379 20.0011C9.8621 19.8253 9.62364 19.7266 9.375 19.7266H5.625C5.37636 19.7266 5.1379 19.8253 4.96209 20.0011C4.78627 20.177 4.6875 20.4154 4.6875 20.6641V24.4141C4.6875 24.6627 4.78627 24.9012 4.96209 25.077C5.1379 25.2528 5.37636 25.3516 5.625 25.3516ZM6.5625 21.6016H8.4375V23.4766H6.5625V21.6016Z" fill="#C31130"></path><path d="M5.625 31.9141H9.375C9.62364 31.9141 9.8621 31.8153 10.0379 31.6395C10.2137 31.4637 10.3125 31.2252 10.3125 30.9766V27.2266C10.3125 26.9779 10.2137 26.7395 10.0379 26.5636C9.8621 26.3878 9.62364 26.2891 9.375 26.2891H5.625C5.37636 26.2891 5.1379 26.3878 4.96209 26.5636C4.78627 26.7395 4.6875 26.9779 4.6875 27.2266V30.9766C4.6875 31.2252 4.78627 31.4637 4.96209 31.6395C5.1379 31.8153 5.37636 31.9141 5.625 31.9141ZM6.5625 28.1641H8.4375V30.0391H6.5625V28.1641Z" fill="#C31130"></path><path d="M5.625 38.4766H9.375C9.62364 38.4766 9.8621 38.3778 10.0379 38.202C10.2137 38.0262 10.3125 37.7877 10.3125 37.5391V33.7891C10.3125 33.5404 10.2137 33.302 10.0379 33.1261C9.8621 32.9503 9.62364 32.8516 9.375 32.8516H5.625C5.37636 32.8516 5.1379 32.9503 4.96209 33.1261C4.78627 33.302 4.6875 33.5404 4.6875 33.7891V37.5391C4.6875 37.7877 4.78627 38.0262 4.96209 38.202C5.1379 38.3778 5.37636 38.4766 5.625 38.4766ZM6.5625 34.7266H8.4375V36.6016H6.5625V34.7266Z" fill="#C31130"></path><path d="M50.625 18.7891H54.375C54.6236 18.7891 54.8621 18.6903 55.0379 18.5145C55.2137 18.3387 55.3125 18.1002 55.3125 17.8516V14.1016C55.3125 13.8529 55.2137 13.6145 55.0379 13.4387C54.8621 13.2628 54.6236 13.1641 54.375 13.1641H50.625C50.3764 13.1641 50.1379 13.2628 49.9621 13.4387C49.7863 13.6145 49.6875 13.8529 49.6875 14.1016V17.8516C49.6875 18.1002 49.7863 18.3387 49.9621 18.5145C50.1379 18.6903 50.3764 18.7891 50.625 18.7891ZM51.5625 15.0391H53.4375V16.9141H51.5625V15.0391Z" fill="#C31130"></path><path d="M50.625 25.3516H54.375C54.6236 25.3516 54.8621 25.2528 55.0379 25.077C55.2137 24.9012 55.3125 24.6627 55.3125 24.4141V20.6641C55.3125 20.4154 55.2137 20.177 55.0379 20.0011C54.8621 19.8253 54.6236 19.7266 54.375 19.7266H50.625C50.3764 19.7266 50.1379 19.8253 49.9621 20.0011C49.7863 20.177 49.6875 20.4154 49.6875 20.6641V24.4141C49.6875 24.6627 49.7863 24.9012 49.9621 25.077C50.1379 25.2528 50.3764 25.3516 50.625 25.3516ZM51.5625 21.6016H53.4375V23.4766H51.5625V21.6016Z" fill="#C31130"></path><path d="M50.625 31.9141H54.375C54.6236 31.9141 54.8621 31.8153 55.0379 31.6395C55.2137 31.4637 55.3125 31.2252 55.3125 30.9766V27.2266C55.3125 26.9779 55.2137 26.7395 55.0379 26.5636C54.8621 26.3878 54.6236 26.2891 54.375 26.2891H50.625C50.3764 26.2891 50.1379 26.3878 49.9621 26.5636C49.7863 26.7395 49.6875 26.9779 49.6875 27.2266V30.9766C49.6875 31.2252 49.7863 31.4637 49.9621 31.6395C50.1379 31.8153 50.3764 31.9141 50.625 31.9141ZM51.5625 28.1641H53.4375V30.0391H51.5625V28.1641Z" fill="#C31130"></path><path d="M50.625 38.4766H54.375C54.6236 38.4766 54.8621 38.3778 55.0379 38.202C55.2137 38.0262 55.3125 37.7877 55.3125 37.5391V33.7891C55.3125 33.5404 55.2137 33.302 55.0379 33.1261C54.8621 32.9503 54.6236 32.8516 54.375 32.8516H50.625C50.3764 32.8516 50.1379 32.9503 49.9621 33.1261C49.7863 33.302 49.6875 33.5404 49.6875 33.7891V37.5391C49.6875 37.7877 49.7863 38.0262 49.9621 38.202C50.1379 38.3778 50.3764 38.4766 50.625 38.4766ZM51.5625 34.7266H53.4375V36.6016H51.5625V34.7266Z" fill="#C31130"></path><path d="M19.6947 31.6785L17.9116 35.2448C17.8401 35.3877 17.8064 35.5465 17.8135 35.7062C17.8207 35.8658 17.8686 36.021 17.9526 36.1569C18.0366 36.2928 18.154 36.4051 18.2935 36.4829C18.4331 36.5607 18.5903 36.6016 18.7501 36.6016H28.1251C28.2849 36.6016 28.442 36.5607 28.5816 36.4829C28.7212 36.4051 28.8385 36.2928 28.9225 36.1569C29.0065 36.021 29.0544 35.8658 29.0616 35.7062C29.0687 35.5465 29.035 35.3877 28.9635 35.2448L26.4074 30.1328C27.6877 29.046 28.5659 27.5606 28.9011 25.915C29.2362 24.2693 29.009 22.5588 28.2557 21.0578C27.5025 19.5568 26.2669 18.3523 24.7472 17.6374C23.2276 16.9226 21.5118 16.7389 19.8753 17.1158C18.2387 17.4927 16.7761 18.4084 15.7222 19.7159C14.6683 21.0234 14.084 22.6471 14.0632 24.3263C14.0424 26.0056 14.5862 27.6432 15.6074 28.9765C16.6286 30.3098 18.068 31.2614 19.6947 31.6787V31.6785ZM26.6088 34.7266H20.2669L21.6747 31.9113C22.7675 31.8966 23.8437 31.6419 24.827 31.1651L26.6088 34.7266ZM22.6653 29.9298L23.4376 28.3854L23.9889 29.4882C23.5679 29.6901 23.1232 29.8385 22.6653 29.9298ZM21.5626 18.7891C22.6753 18.7885 23.7631 19.1182 24.6884 19.7363C25.6136 20.3544 26.3347 21.2331 26.7602 22.2612C27.1857 23.2894 27.2966 24.4206 27.0788 25.5118C26.861 26.603 26.3244 27.6051 25.5367 28.3911L24.276 25.8698C24.1982 25.7141 24.0785 25.5831 23.9304 25.4916C23.7823 25.4001 23.6116 25.3516 23.4376 25.3516C23.2635 25.3516 23.0928 25.4001 22.9447 25.4916C22.7966 25.5831 22.6769 25.7141 22.5991 25.8698L20.56 29.9479C19.1776 29.6979 17.9388 28.9396 17.0873 27.8222C16.2359 26.7049 15.8334 25.3093 15.9591 23.9101C16.0848 22.5109 16.7296 21.2094 17.7666 20.2617C18.8036 19.314 20.1577 18.7886 21.5626 18.7891Z" fill="#C31130"></path><path d="M29.7851 31.9383L40.5793 35.108C40.6975 35.1429 40.8213 35.1541 40.9438 35.141C41.0662 35.128 41.1849 35.0908 41.293 35.0318C41.4011 34.9728 41.4965 34.893 41.5737 34.7971C41.651 34.7011 41.7085 34.5908 41.743 34.4726L44.9128 23.6785C44.9475 23.5603 44.9586 23.4365 44.9454 23.3141C44.9323 23.1917 44.8951 23.0731 44.8361 22.965C44.7771 22.857 44.6974 22.7616 44.6015 22.6844C44.5057 22.6071 44.3955 22.5495 44.2774 22.5148L33.4832 19.3451C33.365 19.3104 33.2412 19.2993 33.1188 19.3125C32.9964 19.3257 32.8778 19.3628 32.7697 19.4218C32.6617 19.4808 32.5663 19.5605 32.489 19.6564C32.4118 19.7522 32.3542 19.8624 32.3195 19.9805L29.1497 30.7746C29.115 30.8928 29.1039 31.0166 29.1171 31.139C29.1302 31.2614 29.1674 31.38 29.2264 31.4881C29.2854 31.5961 29.3651 31.6915 29.4609 31.7688C29.5568 31.846 29.6669 31.9036 29.7851 31.9383ZM33.8544 21.4082L42.8496 24.0497L40.2081 33.0449L31.2129 30.4034L33.8544 21.4082Z" fill="#C31130"></path><path d="M15.5183 4.62754L19.2683 6.50254C19.3984 6.56767 19.542 6.60158 19.6876 6.60156H42.1876C42.9335 6.60156 43.6488 6.30525 44.1763 5.7778C44.7037 5.25035 45.0001 4.53498 45.0001 3.78906C45.0001 3.04314 44.7037 2.32777 44.1763 1.80032C43.6488 1.27288 42.9335 0.976563 42.1876 0.976563H19.6876C19.542 0.976547 19.3984 1.01045 19.2683 1.07559L15.5183 2.95059C15.3626 3.02846 15.2316 3.14814 15.1401 3.29624C15.0486 3.44433 15.0001 3.61498 15.0001 3.78906C15.0001 3.96315 15.0486 4.1338 15.1401 4.28189C15.2316 4.42998 15.3626 4.54967 15.5183 4.62754ZM43.1251 3.78906C43.1248 4.03762 43.0259 4.27591 42.8502 4.45167C42.6744 4.62742 42.4361 4.72628 42.1876 4.72656H22.5001V2.85156H42.1876C42.4361 2.85184 42.6744 2.9507 42.8502 3.12646C43.0259 3.30221 43.1248 3.54051 43.1251 3.78906ZM19.9089 2.85156H20.6251V4.72656H19.9089L18.0339 3.78906L19.9089 2.85156Z" fill="#C31130"></path></svg>