<svg width="215" height="97" viewBox="0 0 215 97" fill="none" xmlns="http://www.w3.org/2000/svg">
<path d="M168.512 36.0714C168.134 36.0775 167.775 36.2299 167.51 36.4958C167.245 36.7617 167.097 37.1197 167.097 37.4926C167.097 37.8656 167.245 38.2236 167.51 38.4895C167.775 38.7553 168.134 38.9078 168.512 38.9139H204.566C204.755 38.9172 204.943 38.8836 205.119 38.8151C205.294 38.7466 205.455 38.6445 205.591 38.5147C205.727 38.3849 205.835 38.2298 205.911 38.0585C205.986 37.8871 206.026 37.7028 206.029 37.516C206.032 37.3292 205.998 37.1437 205.929 36.97C205.859 36.7962 205.756 36.6378 205.624 36.5036C205.493 36.3694 205.336 36.2622 205.162 36.188C204.989 36.1139 204.802 36.0742 204.613 36.0714C204.598 36.0711 204.582 36.0711 204.566 36.0714H168.512Z" fill="#C31130"/>
<path d="M212.742 35.6755C212.716 35.7015 212.695 35.7324 212.681 35.7663C212.667 35.8002 212.659 35.8366 212.659 35.8733C212.659 35.91 212.667 35.9464 212.681 35.9803C212.695 36.0143 212.716 36.0451 212.742 36.0711L213.957 37.2717H210.962C210.887 37.2717 210.815 37.3011 210.762 37.3536C210.709 37.406 210.679 37.4772 210.679 37.5514C210.679 37.6255 210.709 37.6967 210.762 37.7491C210.815 37.8016 210.887 37.831 210.962 37.831H213.957L212.742 39.0317C212.716 39.0576 212.695 39.0885 212.681 39.1224C212.667 39.1563 212.659 39.1927 212.659 39.2294C212.659 39.2661 212.667 39.3025 212.681 39.3364C212.695 39.3704 212.716 39.4012 212.742 39.4272C212.769 39.4531 212.8 39.4737 212.834 39.4878C212.868 39.5019 212.905 39.5091 212.942 39.5091C212.98 39.5091 213.016 39.5019 213.051 39.4878C213.085 39.4738 213.116 39.4531 213.143 39.4272L214.84 37.7491C214.893 37.6967 214.923 37.6255 214.923 37.5514C214.923 37.4772 214.893 37.4061 214.84 37.3536L213.143 35.6755C213.116 35.6496 213.085 35.629 213.051 35.6149C213.016 35.6009 212.98 35.5936 212.942 35.5936C212.905 35.5936 212.868 35.6009 212.834 35.6149C212.8 35.629 212.769 35.6496 212.742 35.6755Z" fill="white"/>
<path d="M160.32 35.6755C160.346 35.7015 160.367 35.7324 160.382 35.7663C160.396 35.8002 160.403 35.8366 160.403 35.8733C160.403 35.91 160.396 35.9464 160.382 35.9803C160.367 36.0143 160.346 36.0451 160.32 36.0711L159.106 37.2717H162.101C162.138 37.2716 162.175 37.2787 162.209 37.2927C162.244 37.3067 162.275 37.3273 162.301 37.3533C162.328 37.3793 162.349 37.4102 162.363 37.4441C162.377 37.4781 162.385 37.5146 162.385 37.5514C162.385 37.5882 162.377 37.6246 162.363 37.6586C162.349 37.6926 162.328 37.7234 162.301 37.7494C162.275 37.7754 162.244 37.796 162.209 37.81C162.175 37.824 162.138 37.8312 162.101 37.831H159.106L160.32 39.0317C160.373 39.0841 160.403 39.1552 160.403 39.2294C160.403 39.3036 160.373 39.3747 160.32 39.4272C160.267 39.4796 160.195 39.5091 160.12 39.5091C160.045 39.5091 159.973 39.4796 159.92 39.4272L158.222 37.7491C158.169 37.6967 158.139 37.6255 158.139 37.5514C158.139 37.4772 158.169 37.4061 158.222 37.3536L159.92 35.6755C159.946 35.6496 159.978 35.629 160.012 35.6149C160.046 35.6009 160.083 35.5936 160.12 35.5936C160.157 35.5936 160.194 35.6009 160.228 35.6149C160.263 35.629 160.294 35.6496 160.32 35.6755Z" fill="white"/>
<path opacity="0.4" d="M169.968 6.57208C170.821 6.57208 171.513 5.88825 171.513 5.04471C171.513 4.20116 170.821 3.51733 169.968 3.51733C169.114 3.51733 168.422 4.20116 168.422 5.04471C168.422 5.88825 169.114 6.57208 169.968 6.57208Z" fill="white"/>
<path opacity="0.4" d="M176.406 6.57208C177.26 6.57208 177.952 5.88825 177.952 5.04471C177.952 4.20116 177.26 3.51733 176.406 3.51733C175.553 3.51733 174.861 4.20116 174.861 5.04471C174.861 5.88825 175.553 6.57208 176.406 6.57208Z" fill="white"/>
<path opacity="0.4" d="M182.845 6.57208C183.699 6.57208 184.39 5.88825 184.39 5.04471C184.39 4.20116 183.699 3.51733 182.845 3.51733C181.992 3.51733 181.3 4.20116 181.3 5.04471C181.3 5.88825 181.992 6.57208 182.845 6.57208Z" fill="white"/>
<path opacity="0.4" d="M189.284 6.57208C190.138 6.57208 190.829 5.88825 190.829 5.04471C190.829 4.20116 190.138 3.51733 189.284 3.51733C188.431 3.51733 187.739 4.20116 187.739 5.04471C187.739 5.88825 188.431 6.57208 189.284 6.57208Z" fill="white"/>
<path opacity="0.4" d="M195.723 6.57208C196.576 6.57208 197.268 5.88825 197.268 5.04471C197.268 4.20116 196.576 3.51733 195.723 3.51733C194.869 3.51733 194.178 4.20116 194.178 5.04471C194.178 5.88825 194.869 6.57208 195.723 6.57208Z" fill="white"/>
<path opacity="0.4" d="M202.162 6.57208C203.015 6.57208 203.707 5.88825 203.707 5.04471C203.707 4.20116 203.015 3.51733 202.162 3.51733C201.308 3.51733 200.616 4.20116 200.616 5.04471C200.616 5.88825 201.308 6.57208 202.162 6.57208Z" fill="white"/>
<path opacity="0.4" d="M208.6 6.57208C209.454 6.57208 210.146 5.88825 210.146 5.04471C210.146 4.20116 209.454 3.51733 208.6 3.51733C207.747 3.51733 207.055 4.20116 207.055 5.04471C207.055 5.88825 207.747 6.57208 208.6 6.57208Z" fill="white"/>
<path opacity="0.4" d="M169.968 11.4087C170.821 11.4087 171.513 10.7249 171.513 9.88137C171.513 9.03783 170.821 8.354 169.968 8.354C169.114 8.354 168.422 9.03783 168.422 9.88137C168.422 10.7249 169.114 11.4087 169.968 11.4087Z" fill="white"/>
<path opacity="0.4" d="M176.406 11.4087C177.26 11.4087 177.952 10.7249 177.952 9.88137C177.952 9.03783 177.26 8.354 176.406 8.354C175.553 8.354 174.861 9.03783 174.861 9.88137C174.861 10.7249 175.553 11.4087 176.406 11.4087Z" fill="white"/>
<path opacity="0.4" d="M182.845 11.4087C183.699 11.4087 184.39 10.7249 184.39 9.88137C184.39 9.03783 183.699 8.354 182.845 8.354C181.992 8.354 181.3 9.03783 181.3 9.88137C181.3 10.7249 181.992 11.4087 182.845 11.4087Z" fill="white"/>
<path opacity="0.4" d="M189.284 11.4087C190.138 11.4087 190.829 10.7249 190.829 9.88137C190.829 9.03783 190.138 8.354 189.284 8.354C188.431 8.354 187.739 9.03783 187.739 9.88137C187.739 10.7249 188.431 11.4087 189.284 11.4087Z" fill="white"/>
<path opacity="0.4" d="M195.723 11.4087C196.576 11.4087 197.268 10.7249 197.268 9.88137C197.268 9.03783 196.576 8.354 195.723 8.354C194.869 8.354 194.178 9.03783 194.178 9.88137C194.178 10.7249 194.869 11.4087 195.723 11.4087Z" fill="white"/>
<path opacity="0.4" d="M202.162 11.4087C203.015 11.4087 203.707 10.7249 203.707 9.88137C203.707 9.03783 203.015 8.354 202.162 8.354C201.308 8.354 200.616 9.03783 200.616 9.88137C200.616 10.7249 201.308 11.4087 202.162 11.4087Z" fill="white"/>
<path opacity="0.4" d="M208.6 11.4087C209.454 11.4087 210.146 10.7249 210.146 9.88137C210.146 9.03783 209.454 8.354 208.6 8.354C207.747 8.354 207.055 9.03783 207.055 9.88137C207.055 10.7249 207.747 11.4087 208.6 11.4087Z" fill="white"/>
<path opacity="0.4" d="M169.968 16.2454C170.821 16.2454 171.513 15.5616 171.513 14.718C171.513 13.8745 170.821 13.1907 169.968 13.1907C169.114 13.1907 168.422 13.8745 168.422 14.718C168.422 15.5616 169.114 16.2454 169.968 16.2454Z" fill="white"/>
<path opacity="0.4" d="M176.406 16.2454C177.26 16.2454 177.952 15.5616 177.952 14.718C177.952 13.8745 177.26 13.1907 176.406 13.1907C175.553 13.1907 174.861 13.8745 174.861 14.718C174.861 15.5616 175.553 16.2454 176.406 16.2454Z" fill="white"/>
<path opacity="0.4" d="M182.845 16.2454C183.699 16.2454 184.39 15.5616 184.39 14.718C184.39 13.8745 183.699 13.1907 182.845 13.1907C181.992 13.1907 181.3 13.8745 181.3 14.718C181.3 15.5616 181.992 16.2454 182.845 16.2454Z" fill="white"/>
<path opacity="0.4" d="M189.284 16.2454C190.138 16.2454 190.829 15.5616 190.829 14.718C190.829 13.8745 190.138 13.1907 189.284 13.1907C188.431 13.1907 187.739 13.8745 187.739 14.718C187.739 15.5616 188.431 16.2454 189.284 16.2454Z" fill="white"/>
<path opacity="0.4" d="M195.723 16.2454C196.576 16.2454 197.268 15.5616 197.268 14.718C197.268 13.8745 196.576 13.1907 195.723 13.1907C194.869 13.1907 194.178 13.8745 194.178 14.718C194.178 15.5616 194.869 16.2454 195.723 16.2454Z" fill="white"/>
<path opacity="0.4" d="M202.162 16.2454C203.015 16.2454 203.707 15.5616 203.707 14.718C203.707 13.8745 203.015 13.1907 202.162 13.1907C201.308 13.1907 200.616 13.8745 200.616 14.718C200.616 15.5616 201.308 16.2454 202.162 16.2454Z" fill="white"/>
<path opacity="0.4" d="M208.6 16.2454C209.454 16.2454 210.146 15.5616 210.146 14.718C210.146 13.8745 209.454 13.1907 208.6 13.1907C207.747 13.1907 207.055 13.8745 207.055 14.718C207.055 15.5616 207.747 16.2454 208.6 16.2454Z" fill="white"/>
<path opacity="0.4" d="M169.968 21.0821C170.821 21.0821 171.513 20.3983 171.513 19.5547C171.513 18.7112 170.821 18.0273 169.968 18.0273C169.114 18.0273 168.422 18.7112 168.422 19.5547C168.422 20.3983 169.114 21.0821 169.968 21.0821Z" fill="white"/>
<path opacity="0.4" d="M176.406 21.0821C177.26 21.0821 177.952 20.3983 177.952 19.5547C177.952 18.7112 177.26 18.0273 176.406 18.0273C175.553 18.0273 174.861 18.7112 174.861 19.5547C174.861 20.3983 175.553 21.0821 176.406 21.0821Z" fill="white"/>
<path opacity="0.4" d="M169.968 25.9188C170.821 25.9188 171.513 25.2349 171.513 24.3914C171.513 23.5478 170.821 22.864 169.968 22.864C169.114 22.864 168.422 23.5478 168.422 24.3914C168.422 25.2349 169.114 25.9188 169.968 25.9188Z" fill="white"/>
<path opacity="0.4" d="M176.406 25.9188C177.26 25.9188 177.952 25.2349 177.952 24.3914C177.952 23.5478 177.26 22.864 176.406 22.864C175.553 22.864 174.861 23.5478 174.861 24.3914C174.861 25.2349 175.553 25.9188 176.406 25.9188Z" fill="white"/>
<path opacity="0.4" d="M182.845 25.9188C183.699 25.9188 184.39 25.2349 184.39 24.3914C184.39 23.5478 183.699 22.864 182.845 22.864C181.992 22.864 181.3 23.5478 181.3 24.3914C181.3 25.2349 181.992 25.9188 182.845 25.9188Z" fill="white"/>
<path opacity="0.4" d="M182.845 21.0821C183.699 21.0821 184.39 20.3983 184.39 19.5547C184.39 18.7112 183.699 18.0273 182.845 18.0273C181.992 18.0273 181.3 18.7112 181.3 19.5547C181.3 20.3983 181.992 21.0821 182.845 21.0821Z" fill="white"/>
<path opacity="0.4" d="M189.284 21.0821C190.138 21.0821 190.829 20.3983 190.829 19.5547C190.829 18.7112 190.138 18.0273 189.284 18.0273C188.431 18.0273 187.739 18.7112 187.739 19.5547C187.739 20.3983 188.431 21.0821 189.284 21.0821Z" fill="white"/>
<path opacity="0.4" d="M195.723 21.0821C196.576 21.0821 197.268 20.3983 197.268 19.5547C197.268 18.7112 196.576 18.0273 195.723 18.0273C194.869 18.0273 194.178 18.7112 194.178 19.5547C194.178 20.3983 194.869 21.0821 195.723 21.0821Z" fill="white"/>
<path opacity="0.4" d="M202.162 21.0821C203.015 21.0821 203.707 20.3983 203.707 19.5547C203.707 18.7112 203.015 18.0273 202.162 18.0273C201.308 18.0273 200.616 18.7112 200.616 19.5547C200.616 20.3983 201.308 21.0821 202.162 21.0821Z" fill="white"/>
<path opacity="0.4" d="M208.6 21.0821C209.454 21.0821 210.146 20.3983 210.146 19.5547C210.146 18.7112 209.454 18.0273 208.6 18.0273C207.747 18.0273 207.055 18.7112 207.055 19.5547C207.055 20.3983 207.747 21.0821 208.6 21.0821Z" fill="white"/>
<path d="M147.8 82.7457C146.113 82.7457 144.464 82.2512 143.061 81.3248C141.658 80.3984 140.565 79.0816 139.919 77.541C139.273 76.0004 139.105 74.3052 139.434 72.6697C139.763 71.0343 140.575 69.532 141.768 68.3528C142.961 67.1737 144.481 66.3707 146.136 66.0454C147.791 65.7201 149.506 65.8871 151.064 66.5252C152.623 67.1633 153.955 68.244 154.893 69.6305C155.83 71.017 156.33 72.647 156.33 74.3146C156.328 76.5499 155.428 78.6929 153.829 80.2735C152.23 81.8541 150.062 82.7432 147.8 82.7457ZM147.8 66.3615C146.209 66.3615 144.653 66.8279 143.33 67.7018C142.006 68.5757 140.975 69.8178 140.366 71.2711C139.757 72.7243 139.598 74.3234 139.908 75.8661C140.219 77.4089 140.985 78.826 142.11 79.9382C143.236 81.0505 144.669 81.808 146.23 82.1148C147.791 82.4217 149.409 82.2642 150.879 81.6623C152.35 81.0603 153.606 80.0409 154.49 78.7331C155.375 77.4252 155.847 75.8875 155.847 74.3146C155.844 72.206 154.996 70.1845 153.487 68.6935C151.979 67.2025 149.933 66.3639 147.8 66.3615Z" fill="#C31130"/>
<path d="M151.071 73.5065H148.618V71.0822C148.618 70.8678 148.532 70.6623 148.379 70.5107C148.225 70.3592 148.017 70.274 147.8 70.274C147.584 70.274 147.376 70.3592 147.222 70.5107C147.069 70.6623 146.983 70.8678 146.983 71.0822V73.5065H144.53C144.313 73.5065 144.105 73.5916 143.952 73.7431C143.799 73.8947 143.712 74.1002 143.712 74.3146C143.712 74.5289 143.799 74.7344 143.952 74.886C144.105 75.0375 144.313 75.1227 144.53 75.1227H146.983V77.547C146.983 77.7613 147.069 77.9668 147.222 78.1184C147.376 78.2699 147.584 78.3551 147.8 78.3551C148.017 78.3551 148.225 78.2699 148.379 78.1184C148.532 77.9668 148.618 77.7613 148.618 77.547V75.1227H151.071C151.288 75.1227 151.496 75.0375 151.649 74.886C151.802 74.7344 151.888 74.5289 151.888 74.3146C151.888 74.1002 151.802 73.8947 151.649 73.7431C151.496 73.5916 151.288 73.5065 151.071 73.5065Z" fill="white"/>
<path opacity="0.4" d="M1.21497 83.7809C1.88597 83.7809 2.42993 83.2432 2.42993 82.58C2.42993 81.9168 1.88597 81.3792 1.21497 81.3792C0.543959 81.3792 0 81.9168 0 82.58C0 83.2432 0.543959 83.7809 1.21497 83.7809Z" fill="white"/>
<path opacity="0.4" d="M1.21497 78.7772C1.88597 78.7772 2.42993 78.2396 2.42993 77.5764C2.42993 76.9131 1.88597 76.3755 1.21497 76.3755C0.543959 76.3755 0 76.9131 0 77.5764C0 78.2396 0.543959 78.7772 1.21497 78.7772Z" fill="white"/>
<path opacity="0.4" d="M1.21497 73.7738C1.88597 73.7738 2.42993 73.2361 2.42993 72.5729C2.42993 71.9097 1.88597 71.3721 1.21497 71.3721C0.543959 71.3721 0 71.9097 0 72.5729C0 73.2361 0.543959 73.7738 1.21497 73.7738Z" fill="white"/>
<path opacity="0.4" d="M1.21497 68.7701C1.88597 68.7701 2.42993 68.2325 2.42993 67.5693C2.42993 66.906 1.88597 66.3684 1.21497 66.3684C0.543959 66.3684 0 66.906 0 67.5693C0 68.2325 0.543959 68.7701 1.21497 68.7701Z" fill="white"/>
<path opacity="0.4" d="M1.21497 63.7665C1.88597 63.7665 2.42993 63.2288 2.42993 62.5656C2.42993 61.9024 1.88597 61.3647 1.21497 61.3647C0.543959 61.3647 0 61.9024 0 62.5656C0 63.2288 0.543959 63.7665 1.21497 63.7665Z" fill="white"/>
<path opacity="0.4" d="M1.21497 58.763C1.88597 58.763 2.42993 58.2254 2.42993 57.5622C2.42993 56.899 1.88597 56.3613 1.21497 56.3613C0.543959 56.3613 0 56.899 0 57.5622C0 58.2254 0.543959 58.763 1.21497 58.763Z" fill="white"/>
<path opacity="0.4" d="M1.21497 53.7594C1.88597 53.7594 2.42993 53.2217 2.42993 52.5585C2.42993 51.8953 1.88597 51.3577 1.21497 51.3577C0.543959 51.3577 0 51.8953 0 52.5585C0 53.2217 0.543959 53.7594 1.21497 53.7594Z" fill="white"/>
<path opacity="0.4" d="M5.06232 83.7809C5.73332 83.7809 6.27728 83.2432 6.27728 82.58C6.27728 81.9168 5.73332 81.3792 5.06232 81.3792C4.39131 81.3792 3.84735 81.9168 3.84735 82.58C3.84735 83.2432 4.39131 83.7809 5.06232 83.7809Z" fill="white"/>
<path opacity="0.4" d="M5.06232 78.7772C5.73332 78.7772 6.27728 78.2396 6.27728 77.5764C6.27728 76.9131 5.73332 76.3755 5.06232 76.3755C4.39131 76.3755 3.84735 76.9131 3.84735 77.5764C3.84735 78.2396 4.39131 78.7772 5.06232 78.7772Z" fill="white"/>
<path opacity="0.4" d="M5.06232 73.7738C5.73332 73.7738 6.27728 73.2361 6.27728 72.5729C6.27728 71.9097 5.73332 71.3721 5.06232 71.3721C4.39131 71.3721 3.84735 71.9097 3.84735 72.5729C3.84735 73.2361 4.39131 73.7738 5.06232 73.7738Z" fill="white"/>
<path opacity="0.4" d="M5.06232 68.7701C5.73332 68.7701 6.27728 68.2325 6.27728 67.5693C6.27728 66.906 5.73332 66.3684 5.06232 66.3684C4.39131 66.3684 3.84735 66.906 3.84735 67.5693C3.84735 68.2325 4.39131 68.7701 5.06232 68.7701Z" fill="white"/>
<path opacity="0.4" d="M5.06232 63.7665C5.73332 63.7665 6.27728 63.2288 6.27728 62.5656C6.27728 61.9024 5.73332 61.3647 5.06232 61.3647C4.39131 61.3647 3.84735 61.9024 3.84735 62.5656C3.84735 63.2288 4.39131 63.7665 5.06232 63.7665Z" fill="white"/>
<path opacity="0.4" d="M5.06232 58.763C5.73332 58.763 6.27728 58.2254 6.27728 57.5622C6.27728 56.899 5.73332 56.3613 5.06232 56.3613C4.39131 56.3613 3.84735 56.899 3.84735 57.5622C3.84735 58.2254 4.39131 58.763 5.06232 58.763Z" fill="white"/>
<path opacity="0.4" d="M5.06232 53.7594C5.73332 53.7594 6.27728 53.2217 6.27728 52.5585C6.27728 51.8953 5.73332 51.3577 5.06232 51.3577C4.39131 51.3577 3.84735 51.8953 3.84735 52.5585C3.84735 53.2217 4.39131 53.7594 5.06232 53.7594Z" fill="white"/>
<path opacity="0.4" d="M8.90973 83.7809C9.58074 83.7809 10.1247 83.2432 10.1247 82.58C10.1247 81.9168 9.58074 81.3792 8.90973 81.3792C8.23872 81.3792 7.69476 81.9168 7.69476 82.58C7.69476 83.2432 8.23872 83.7809 8.90973 83.7809Z" fill="white"/>
<path opacity="0.4" d="M8.90973 78.7772C9.58074 78.7772 10.1247 78.2396 10.1247 77.5764C10.1247 76.9131 9.58074 76.3755 8.90973 76.3755C8.23872 76.3755 7.69476 76.9131 7.69476 77.5764C7.69476 78.2396 8.23872 78.7772 8.90973 78.7772Z" fill="white"/>
<path opacity="0.4" d="M8.90973 73.7738C9.58074 73.7738 10.1247 73.2361 10.1247 72.5729C10.1247 71.9097 9.58074 71.3721 8.90973 71.3721C8.23872 71.3721 7.69476 71.9097 7.69476 72.5729C7.69476 73.2361 8.23872 73.7738 8.90973 73.7738Z" fill="white"/>
<path opacity="0.4" d="M8.90973 68.7701C9.58074 68.7701 10.1247 68.2325 10.1247 67.5693C10.1247 66.906 9.58074 66.3684 8.90973 66.3684C8.23872 66.3684 7.69476 66.906 7.69476 67.5693C7.69476 68.2325 8.23872 68.7701 8.90973 68.7701Z" fill="white"/>
<path opacity="0.4" d="M8.90973 63.7665C9.58074 63.7665 10.1247 63.2288 10.1247 62.5656C10.1247 61.9024 9.58074 61.3647 8.90973 61.3647C8.23872 61.3647 7.69476 61.9024 7.69476 62.5656C7.69476 63.2288 8.23872 63.7665 8.90973 63.7665Z" fill="white"/>
<path opacity="0.4" d="M8.90973 58.763C9.58074 58.763 10.1247 58.2254 10.1247 57.5622C10.1247 56.899 9.58074 56.3613 8.90973 56.3613C8.23872 56.3613 7.69476 56.899 7.69476 57.5622C7.69476 58.2254 8.23872 58.763 8.90973 58.763Z" fill="white"/>
<path opacity="0.4" d="M8.90973 53.7594C9.58074 53.7594 10.1247 53.2217 10.1247 52.5585C10.1247 51.8953 9.58074 51.3577 8.90973 51.3577C8.23872 51.3577 7.69476 51.8953 7.69476 52.5585C7.69476 53.2217 8.23872 53.7594 8.90973 53.7594Z" fill="white"/>
<path opacity="0.4" d="M12.7571 83.7809C13.4281 83.7809 13.9721 83.2432 13.9721 82.58C13.9721 81.9168 13.4281 81.3792 12.7571 81.3792C12.0861 81.3792 11.5422 81.9168 11.5422 82.58C11.5422 83.2432 12.0861 83.7809 12.7571 83.7809Z" fill="white"/>
<path opacity="0.4" d="M12.7571 78.7772C13.4281 78.7772 13.9721 78.2396 13.9721 77.5764C13.9721 76.9131 13.4281 76.3755 12.7571 76.3755C12.0861 76.3755 11.5422 76.9131 11.5422 77.5764C11.5422 78.2396 12.0861 78.7772 12.7571 78.7772Z" fill="white"/>
<path opacity="0.4" d="M16.6045 83.7809C17.2755 83.7809 17.8194 83.2432 17.8194 82.58C17.8194 81.9168 17.2755 81.3792 16.6045 81.3792C15.9335 81.3792 15.3895 81.9168 15.3895 82.58C15.3895 83.2432 15.9335 83.7809 16.6045 83.7809Z" fill="white"/>
<path opacity="0.4" d="M16.6045 78.7772C17.2755 78.7772 17.8194 78.2396 17.8194 77.5764C17.8194 76.9131 17.2755 76.3755 16.6045 76.3755C15.9335 76.3755 15.3895 76.9131 15.3895 77.5764C15.3895 78.2396 15.9335 78.7772 16.6045 78.7772Z" fill="white"/>
<path opacity="0.4" d="M16.6045 73.7738C17.2755 73.7738 17.8194 73.2361 17.8194 72.5729C17.8194 71.9097 17.2755 71.3721 16.6045 71.3721C15.9335 71.3721 15.3895 71.9097 15.3895 72.5729C15.3895 73.2361 15.9335 73.7738 16.6045 73.7738Z" fill="white"/>
<path opacity="0.4" d="M12.7571 73.7738C13.4281 73.7738 13.9721 73.2361 13.9721 72.5729C13.9721 71.9097 13.4281 71.3721 12.7571 71.3721C12.0861 71.3721 11.5422 71.9097 11.5422 72.5729C11.5422 73.2361 12.0861 73.7738 12.7571 73.7738Z" fill="white"/>
<path opacity="0.4" d="M12.7571 68.7701C13.4281 68.7701 13.9721 68.2325 13.9721 67.5693C13.9721 66.906 13.4281 66.3684 12.7571 66.3684C12.0861 66.3684 11.5422 66.906 11.5422 67.5693C11.5422 68.2325 12.0861 68.7701 12.7571 68.7701Z" fill="white"/>
<path opacity="0.4" d="M12.7571 63.7665C13.4281 63.7665 13.9721 63.2288 13.9721 62.5656C13.9721 61.9024 13.4281 61.3647 12.7571 61.3647C12.0861 61.3647 11.5422 61.9024 11.5422 62.5656C11.5422 63.2288 12.0861 63.7665 12.7571 63.7665Z" fill="white"/>
<path opacity="0.4" d="M12.7571 58.763C13.4281 58.763 13.9721 58.2254 13.9721 57.5622C13.9721 56.899 13.4281 56.3613 12.7571 56.3613C12.0861 56.3613 11.5422 56.899 11.5422 57.5622C11.5422 58.2254 12.0861 58.763 12.7571 58.763Z" fill="white"/>
<path opacity="0.4" d="M12.7571 53.7594C13.4281 53.7594 13.9721 53.2217 13.9721 52.5585C13.9721 51.8953 13.4281 51.3577 12.7571 51.3577C12.0861 51.3577 11.5422 51.8953 11.5422 52.5585C11.5422 53.2217 12.0861 53.7594 12.7571 53.7594Z" fill="white"/>
<path d="M108.442 0.888672H27.7305C27.3341 0.889068 26.954 1.04489 26.6737 1.32194C26.3934 1.59899 26.2357 1.97463 26.2354 2.36644V70.5813C26.2357 70.9731 26.3934 71.3487 26.6737 71.6258C26.954 71.9028 27.3341 72.0586 27.7305 72.059H108.442C108.838 72.0586 109.218 71.9028 109.498 71.6258C109.779 71.3487 109.936 70.9731 109.937 70.5813V2.36643C109.936 1.97463 109.779 1.59898 109.498 1.32193C109.218 1.04489 108.838 0.889067 108.442 0.888672Z" fill="#C31130"/>
<path d="M46.3606 59.9297C46.3606 60.0349 46.3578 60.14 46.3522 60.2424C46.2708 61.7819 45.5948 63.2318 44.4635 64.293C43.3322 65.3542 41.832 65.9459 40.2723 65.9459C38.7127 65.9459 37.2125 65.3542 36.0812 64.293C34.9499 63.2318 34.2739 61.7819 34.1925 60.2424C34.1869 60.14 34.1841 60.0349 34.1841 59.9297C34.1836 59.1391 34.3407 58.3562 34.6464 57.6257C34.9522 56.8952 35.4005 56.2314 35.9659 55.6722C36.5313 55.113 37.2027 54.6694 37.9416 54.3668C38.6805 54.0641 39.4725 53.9083 40.2723 53.9083C41.0722 53.9083 41.8642 54.0641 42.6031 54.3668C43.342 54.6694 44.0133 55.113 44.5787 55.6722C45.1441 56.2314 45.5925 56.8952 45.8983 57.6257C46.204 58.3562 46.3611 59.1391 46.3606 59.9297Z" fill="white"/>
<path d="M102.17 55.9171H54.3317C54.0628 55.9175 53.8051 56.0234 53.6151 56.2115C53.4251 56.3996 53.3184 56.6545 53.3184 56.9203C53.3184 57.1861 53.4251 57.441 53.6151 57.6291C53.8051 57.8171 54.0628 57.923 54.3317 57.9234H102.17C102.439 57.923 102.697 57.8171 102.887 57.6291C103.077 57.441 103.183 57.1861 103.183 56.9203C103.183 56.6545 103.077 56.3996 102.887 56.2115C102.697 56.0234 102.439 55.9175 102.17 55.9171Z" fill="#C31130"/>
<path d="M74.9161 61.936H54.3316C54.0628 61.936 53.805 62.0416 53.615 62.2295C53.4249 62.4173 53.3181 62.6721 53.3181 62.9378C53.3181 63.2035 53.4249 63.4583 53.615 63.6462C53.805 63.834 54.0628 63.9396 54.3316 63.9396H74.9161C75.1849 63.9396 75.4427 63.834 75.6328 63.6462C75.8229 63.4583 75.9296 63.2035 75.9296 62.9378C75.9296 62.6721 75.8229 62.4173 75.6328 62.2295C75.4427 62.0416 75.1849 61.936 74.9161 61.936Z" fill="white"/>
<path d="M127.617 48.8328H46.906C46.3579 48.8321 45.8324 48.6166 45.4448 48.2335C45.0572 47.8503 44.8392 47.3309 44.8386 46.7891V11.7805C44.8392 11.2387 45.0572 10.7193 45.4448 10.3362C45.8324 9.95309 46.3579 9.73757 46.906 9.73694H127.617C128.165 9.73757 128.69 9.95309 129.078 10.3362C129.465 10.7193 129.684 11.2387 129.684 11.7805V46.7891C129.684 47.3309 129.466 47.8503 129.078 48.2335C128.69 48.6166 128.165 48.8321 127.617 48.8328ZM46.906 10.454C46.5503 10.4544 46.2092 10.5943 45.9576 10.843C45.706 11.0917 45.5645 11.4288 45.5641 11.7805V46.7891C45.5645 47.1408 45.706 47.4779 45.9576 47.7266C46.2091 47.9753 46.5502 48.1152 46.906 48.1157H127.617C127.973 48.1152 128.314 47.9753 128.565 47.7266C128.817 47.4779 128.958 47.1408 128.959 46.7891V11.7805C128.958 11.4288 128.817 11.0917 128.565 10.843C128.314 10.5943 127.972 10.4544 127.617 10.454H46.906Z" fill="white"/>
<path d="M63.3428 22.5057C63.0737 22.5057 62.8156 22.6114 62.6253 22.7995C62.435 22.9876 62.3281 23.2427 62.3281 23.5087C62.3281 23.7747 62.435 24.0298 62.6253 24.2179C62.8156 24.406 63.0737 24.5116 63.3428 24.5116H111.18C111.449 24.5116 111.707 24.406 111.897 24.2179C112.088 24.0298 112.195 23.7747 112.195 23.5087C112.195 23.2427 112.088 22.9876 111.897 22.7995C111.707 22.6114 111.449 22.5057 111.18 22.5057H63.3428Z" fill="white"/>
<path d="M63.3429 28.3171C63.0737 28.3171 62.8156 28.4228 62.6253 28.6109C62.435 28.799 62.3281 29.0541 62.3281 29.3201C62.3281 29.5861 62.435 29.8412 62.6253 30.0293C62.8156 30.2174 63.0737 30.323 63.3429 30.323H111.18C111.449 30.3226 111.706 30.2168 111.896 30.0287C112.086 29.8407 112.193 29.5858 112.193 29.3201C112.193 29.0544 112.086 28.7995 111.896 28.6114C111.706 28.4234 111.449 28.3175 111.18 28.3171H63.3429Z" fill="white"/>
<path d="M63.3429 34.058C63.0737 34.058 62.8156 34.1637 62.6253 34.3517C62.435 34.5398 62.3281 34.7949 62.3281 35.0609C62.3281 35.3269 62.435 35.582 62.6253 35.7701C62.8156 35.9582 63.0737 36.0639 63.3429 36.0639H83.9273C84.1961 36.0635 84.4538 35.9576 84.6438 35.7696C84.8337 35.5815 84.9404 35.3267 84.9404 35.0609C84.9404 34.7952 84.8337 34.5403 84.6438 34.3523C84.4538 34.1642 84.1961 34.0584 83.9273 34.058H63.3429Z" fill="white"/>
<path d="M140.924 63.6649L132.818 52.3571L135.442 52.8976C135.488 52.9072 135.537 52.9076 135.583 52.8988C135.63 52.8901 135.675 52.8722 135.715 52.8464C135.755 52.8206 135.789 52.7873 135.816 52.7483C135.843 52.7094 135.861 52.6656 135.871 52.6195C135.881 52.5733 135.881 52.5258 135.872 52.4795C135.864 52.4332 135.845 52.389 135.819 52.3496C135.793 52.3102 135.759 52.2763 135.72 52.2498C135.681 52.2232 135.636 52.2046 135.59 52.195L131.679 51.3904L131.151 55.3034C131.145 55.3502 131.148 55.3978 131.16 55.4434C131.172 55.4891 131.193 55.5319 131.222 55.5694C131.251 55.607 131.287 55.6385 131.329 55.6622C131.37 55.6859 131.416 55.7013 131.463 55.7075C131.51 55.7138 131.559 55.7107 131.605 55.6985C131.651 55.6863 131.694 55.6653 131.732 55.6365C131.77 55.6078 131.802 55.5719 131.826 55.531C131.849 55.4901 131.865 55.445 131.871 55.3982L132.225 52.7705L140.332 64.0795C140.36 64.1179 140.394 64.1506 140.435 64.1757C140.475 64.2007 140.52 64.2177 140.567 64.2256C140.614 64.2335 140.662 64.2322 140.708 64.2218C140.755 64.2113 140.799 64.1919 140.838 64.1647C140.876 64.1375 140.91 64.103 140.935 64.0631C140.96 64.0233 140.977 63.9789 140.985 63.9325C140.993 63.8861 140.992 63.8385 140.982 63.7926C140.971 63.7467 140.951 63.7033 140.924 63.6649V63.6649Z" fill="white"/>
<path d="M96.8958 96.5763H39.2765C38.9936 96.576 38.7224 96.4648 38.5224 96.2671C38.3223 96.0693 38.2098 95.8013 38.2095 95.5217V81.3947C38.2098 81.1151 38.3223 80.8471 38.5224 80.6493C38.7224 80.4516 38.9936 80.3404 39.2765 80.3401H96.8958C97.1787 80.3404 97.4499 80.4516 97.6499 80.6493C97.85 80.8471 97.9625 81.1151 97.9628 81.3947V95.5217C97.9625 95.8013 97.85 96.0693 97.6499 96.2671C97.4499 96.4648 97.1787 96.576 96.8958 96.5763Z" fill="#C31130"/>
<path d="M48.2293 92.212C50.6298 92.212 52.5758 90.2886 52.5758 87.916C52.5758 85.5434 50.6298 83.62 48.2293 83.62C45.8288 83.62 43.8828 85.5434 43.8828 87.916C43.8828 90.2886 45.8288 92.212 48.2293 92.212Z" fill="white"/>
<path d="M58.2675 85.052C58.1722 85.0518 58.0779 85.0702 57.9899 85.1061C57.9018 85.142 57.8218 85.1947 57.7544 85.2613C57.687 85.3278 57.6335 85.4067 57.597 85.4937C57.5605 85.5807 57.5417 85.6739 57.5417 85.768C57.5417 85.8621 57.5605 85.9553 57.597 86.0423C57.6335 86.1293 57.687 86.2082 57.7544 86.2747C57.8218 86.3412 57.9018 86.394 57.9899 86.4299C58.0779 86.4658 58.1722 86.4842 58.2675 86.484H92.4185C92.6106 86.484 92.7948 86.4086 92.9307 86.2743C93.0665 86.14 93.1429 85.9579 93.1429 85.768C93.1429 85.5781 93.0665 85.396 92.9307 85.2617C92.7948 85.1274 92.6106 85.052 92.4185 85.052H58.2675Z" fill="white"/>
<path d="M58.2675 89.3481C58.1722 89.348 58.0779 89.3664 57.9899 89.4023C57.9018 89.4382 57.8218 89.4909 57.7544 89.5574C57.687 89.6239 57.6335 89.7029 57.597 89.7898C57.5605 89.8768 57.5417 89.97 57.5417 90.0641C57.5417 90.1583 57.5605 90.2515 57.597 90.3384C57.6335 90.4254 57.687 90.5044 57.7544 90.5709C57.8218 90.6374 57.9018 90.6901 57.9899 90.726C58.0779 90.7619 58.1722 90.7803 58.2675 90.7801H72.9628C73.1549 90.7801 73.3391 90.7047 73.475 90.5704C73.6108 90.4361 73.6872 90.254 73.6872 90.0641C73.6872 89.8742 73.6108 89.6921 73.475 89.5578C73.3391 89.4236 73.1549 89.3481 72.9628 89.3481H58.2675Z" fill="white"/>
<path d="M172.919 46.2451H198.528C198.811 46.2454 199.082 46.3567 199.282 46.5544C199.482 46.7521 199.594 47.0201 199.595 47.2998V73.6605C199.594 73.9401 199.482 74.2081 199.282 74.4058C199.082 74.6035 198.811 74.7148 198.528 74.7151H172.919C172.636 74.7148 172.365 74.6035 172.165 74.4058C171.965 74.2081 171.852 73.9401 171.852 73.6605V47.2998C171.852 47.0201 171.965 46.7521 172.165 46.5544C172.365 46.3567 172.636 46.2454 172.919 46.2451ZM198.528 74.2932C198.697 74.2931 198.86 74.2263 198.98 74.1077C199.1 73.9891 199.168 73.8282 199.168 73.6605V47.2998C199.168 47.132 199.1 46.9711 198.98 46.8525C198.86 46.7339 198.697 46.6672 198.528 46.667H172.919C172.749 46.6672 172.587 46.7339 172.467 46.8525C172.347 46.9711 172.279 47.132 172.279 47.2998V73.6605C172.279 73.8282 172.347 73.9891 172.467 74.1077C172.587 74.2263 172.749 74.2931 172.919 74.2932H198.528Z" fill="#C31130"/>
<path d="M193.071 69.2792C193.263 69.2792 193.447 69.2037 193.583 69.0695C193.719 68.9352 193.795 68.7531 193.795 68.5632C193.795 68.3733 193.719 68.1911 193.583 68.0569C193.447 67.9226 193.263 67.8472 193.071 67.8472H178.376C178.184 67.8472 177.999 67.9226 177.864 68.0569C177.728 68.1911 177.651 68.3733 177.651 68.5632C177.651 68.7531 177.728 68.9352 177.864 69.0695C177.999 69.2037 178.184 69.2792 178.376 69.2792H193.071Z" fill="white"/>
<path d="M193.071 65.0606C193.166 65.0607 193.261 65.0423 193.349 65.0064C193.437 64.9705 193.517 64.9178 193.584 64.8513C193.652 64.7848 193.705 64.7058 193.742 64.6189C193.778 64.5319 193.797 64.4387 193.797 64.3445C193.797 64.2504 193.778 64.1572 193.742 64.0702C193.705 63.9833 193.652 63.9043 193.584 63.8378C193.517 63.7713 193.437 63.7186 193.349 63.6827C193.261 63.6468 193.166 63.6284 193.071 63.6285H178.376C178.281 63.6284 178.186 63.6468 178.098 63.6827C178.01 63.7186 177.93 63.7713 177.863 63.8378C177.795 63.9043 177.742 63.9833 177.705 64.0702C177.669 64.1572 177.65 64.2504 177.65 64.3445C177.65 64.4387 177.669 64.5319 177.705 64.6189C177.742 64.7058 177.795 64.7848 177.863 64.8513C177.93 64.9178 178.01 64.9705 178.098 65.0064C178.186 65.0423 178.281 65.0607 178.376 65.0606H193.071Z" fill="white"/>
<path d="M185.723 51.6813C186.625 51.6813 187.507 51.9456 188.257 52.4408C189.007 52.9361 189.591 53.6399 189.936 54.4635C190.281 55.287 190.372 56.1932 190.196 57.0674C190.02 57.9417 189.585 58.7447 188.948 59.375C188.31 60.0053 187.498 60.4346 186.613 60.6085C185.728 60.7824 184.812 60.6931 183.978 60.352C183.145 60.0109 182.433 59.4332 181.932 58.6921C181.431 57.9509 181.164 57.0796 181.164 56.1882C181.165 54.9933 181.646 53.8477 182.501 53.0028C183.355 52.1579 184.514 51.6826 185.723 51.6813Z" fill="white"/>
</svg>
