<svg xmlns="http://www.w3.org/2000/svg" width="619" height="280" viewBox="0 0 619 280" fill="none"><path d="M485.33 102.629C484.243 102.647 483.207 103.092 482.445 103.867C481.683 104.643 481.256 105.687 481.256 106.775C481.256 107.863 481.683 108.907 482.445 109.683C483.207 110.458 484.243 110.903 485.33 110.921H589.17C589.714 110.93 590.255 110.833 590.762 110.633C591.268 110.433 591.73 110.135 592.122 109.756C592.513 109.378 592.826 108.926 593.043 108.426C593.259 107.926 593.375 107.388 593.384 106.843C593.393 106.298 593.295 105.757 593.095 105.25C592.894 104.744 592.597 104.281 592.218 103.89C591.839 103.499 591.387 103.186 590.887 102.97C590.388 102.753 589.85 102.638 589.306 102.629C589.261 102.628 589.216 102.628 589.17 102.629H485.33Z" fill="#C31130"></path><path d="M612.719 101.475C612.643 101.55 612.583 101.64 612.542 101.739C612.501 101.838 612.48 101.944 612.48 102.051C612.48 102.159 612.501 102.265 612.542 102.364C612.583 102.463 612.643 102.553 612.719 102.628L616.217 106.131H607.59C607.374 106.131 607.167 106.217 607.014 106.37C606.861 106.523 606.775 106.73 606.775 106.947C606.775 107.163 606.861 107.371 607.014 107.524C607.167 107.677 607.374 107.763 607.59 107.763H616.217L612.719 111.265C612.643 111.341 612.583 111.431 612.542 111.53C612.501 111.629 612.48 111.735 612.48 111.842C612.48 111.949 612.501 112.055 612.542 112.154C612.583 112.253 612.643 112.343 612.719 112.419C612.794 112.494 612.884 112.555 612.983 112.596C613.082 112.637 613.188 112.658 613.295 112.658C613.402 112.658 613.508 112.637 613.607 112.596C613.706 112.555 613.796 112.494 613.871 112.419L618.761 107.524C618.914 107.371 619 107.163 619 106.947C619 106.73 618.914 106.523 618.761 106.37L613.871 101.475C613.796 101.399 613.706 101.339 613.607 101.298C613.508 101.257 613.402 101.236 613.295 101.236C613.188 101.236 613.082 101.257 612.983 101.298C612.884 101.339 612.794 101.399 612.719 101.475Z" fill="#CAD4DB"></path><path d="M461.739 101.475C461.814 101.55 461.874 101.64 461.915 101.739C461.956 101.838 461.977 101.944 461.977 102.051C461.977 102.159 461.956 102.265 461.915 102.364C461.874 102.463 461.814 102.553 461.739 102.628L458.24 106.131H466.867C466.975 106.13 467.081 106.151 467.18 106.192C467.279 106.233 467.369 106.293 467.445 106.369C467.521 106.445 467.581 106.535 467.623 106.634C467.664 106.733 467.685 106.839 467.685 106.947C467.685 107.054 467.664 107.16 467.623 107.259C467.581 107.359 467.521 107.449 467.445 107.524C467.369 107.6 467.279 107.66 467.18 107.701C467.081 107.742 466.975 107.763 466.867 107.763H458.24L461.739 111.265C461.892 111.418 461.977 111.625 461.977 111.842C461.977 112.058 461.892 112.266 461.739 112.419C461.586 112.572 461.379 112.658 461.162 112.658C460.946 112.658 460.739 112.572 460.586 112.419L455.696 107.524C455.543 107.371 455.458 107.163 455.458 106.947C455.458 106.73 455.543 106.523 455.696 106.37L460.586 101.475C460.662 101.399 460.752 101.339 460.851 101.298C460.949 101.257 461.055 101.236 461.162 101.236C461.269 101.236 461.375 101.257 461.474 101.298C461.573 101.339 461.663 101.399 461.739 101.475Z" fill="#CAD4DB"></path><path opacity="0.4" d="M489.524 16.5792C491.982 16.5792 493.975 14.5843 493.975 12.1236C493.975 9.66281 491.982 7.66797 489.524 7.66797C487.066 7.66797 485.073 9.66281 485.073 12.1236C485.073 14.5843 487.066 16.5792 489.524 16.5792Z" fill="#CAD4DB"></path><path opacity="0.4" d="M508.068 16.5792C510.526 16.5792 512.519 14.5843 512.519 12.1236C512.519 9.66281 510.526 7.66797 508.068 7.66797C505.61 7.66797 503.617 9.66281 503.617 12.1236C503.617 14.5843 505.61 16.5792 508.068 16.5792Z" fill="#CAD4DB"></path><path opacity="0.4" d="M526.612 16.5792C529.07 16.5792 531.063 14.5843 531.063 12.1236C531.063 9.66281 529.07 7.66797 526.612 7.66797C524.154 7.66797 522.161 9.66281 522.161 12.1236C522.161 14.5843 524.154 16.5792 526.612 16.5792Z" fill="#CAD4DB"></path><path opacity="0.4" d="M545.157 16.5792C547.616 16.5792 549.608 14.5843 549.608 12.1236C549.608 9.66281 547.616 7.66797 545.157 7.66797C542.699 7.66797 540.707 9.66281 540.707 12.1236C540.707 14.5843 542.699 16.5792 545.157 16.5792Z" fill="#CAD4DB"></path><path opacity="0.4" d="M563.702 16.5792C566.16 16.5792 568.153 14.5843 568.153 12.1236C568.153 9.66281 566.16 7.66797 563.702 7.66797C561.244 7.66797 559.251 9.66281 559.251 12.1236C559.251 14.5843 561.244 16.5792 563.702 16.5792Z" fill="#CAD4DB"></path><path opacity="0.4" d="M582.245 16.5792C584.703 16.5792 586.696 14.5843 586.696 12.1236C586.696 9.66281 584.703 7.66797 582.245 7.66797C579.787 7.66797 577.794 9.66281 577.794 12.1236C577.794 14.5843 579.787 16.5792 582.245 16.5792Z" fill="#CAD4DB"></path><path opacity="0.4" d="M600.79 16.5792C603.248 16.5792 605.241 14.5843 605.241 12.1236C605.241 9.66281 603.248 7.66797 600.79 7.66797C598.332 7.66797 596.339 9.66281 596.339 12.1236C596.339 14.5843 598.332 16.5792 600.79 16.5792Z" fill="#CAD4DB"></path><path opacity="0.4" d="M489.524 30.6884C491.982 30.6884 493.975 28.6936 493.975 26.2328C493.975 23.7721 491.982 21.7772 489.524 21.7772C487.066 21.7772 485.073 23.7721 485.073 26.2328C485.073 28.6936 487.066 30.6884 489.524 30.6884Z" fill="#CAD4DB"></path><path opacity="0.4" d="M508.068 30.6884C510.526 30.6884 512.519 28.6936 512.519 26.2328C512.519 23.7721 510.526 21.7772 508.068 21.7772C505.61 21.7772 503.617 23.7721 503.617 26.2328C503.617 28.6936 505.61 30.6884 508.068 30.6884Z" fill="#CAD4DB"></path><path opacity="0.4" d="M526.612 30.6878C529.07 30.6878 531.063 28.693 531.063 26.2322C531.063 23.7714 529.07 21.7766 526.612 21.7766C524.154 21.7766 522.161 23.7714 522.161 26.2322C522.161 28.693 524.154 30.6878 526.612 30.6878Z" fill="#CAD4DB"></path><path opacity="0.4" d="M545.157 30.6878C547.616 30.6878 549.608 28.693 549.608 26.2322C549.608 23.7714 547.616 21.7766 545.157 21.7766C542.699 21.7766 540.707 23.7714 540.707 26.2322C540.707 28.693 542.699 30.6878 545.157 30.6878Z" fill="#CAD4DB"></path><path opacity="0.4" d="M563.702 30.6878C566.16 30.6878 568.153 28.693 568.153 26.2322C568.153 23.7714 566.16 21.7766 563.702 21.7766C561.244 21.7766 559.251 23.7714 559.251 26.2322C559.251 28.693 561.244 30.6878 563.702 30.6878Z" fill="#CAD4DB"></path><path opacity="0.4" d="M582.245 30.6878C584.703 30.6878 586.696 28.693 586.696 26.2322C586.696 23.7714 584.703 21.7766 582.245 21.7766C579.787 21.7766 577.794 23.7714 577.794 26.2322C577.794 28.693 579.787 30.6878 582.245 30.6878Z" fill="#CAD4DB"></path><path opacity="0.4" d="M600.79 30.6878C603.248 30.6878 605.241 28.693 605.241 26.2322C605.241 23.7714 603.248 21.7766 600.79 21.7766C598.332 21.7766 596.339 23.7714 596.339 26.2322C596.339 28.693 598.332 30.6878 600.79 30.6878Z" fill="#CAD4DB"></path><path opacity="0.4" d="M489.524 44.7979C491.982 44.7979 493.975 42.8031 493.975 40.3423C493.975 37.8816 491.982 35.8867 489.524 35.8867C487.066 35.8867 485.073 37.8816 485.073 40.3423C485.073 42.8031 487.066 44.7979 489.524 44.7979Z" fill="#CAD4DB"></path><path opacity="0.4" d="M508.068 44.7979C510.526 44.7979 512.519 42.8031 512.519 40.3423C512.519 37.8816 510.526 35.8867 508.068 35.8867C505.61 35.8867 503.617 37.8816 503.617 40.3423C503.617 42.8031 505.61 44.7979 508.068 44.7979Z" fill="#CAD4DB"></path><path opacity="0.4" d="M526.612 44.7966C529.07 44.7966 531.063 42.8017 531.063 40.341C531.063 37.8802 529.07 35.8854 526.612 35.8854C524.154 35.8854 522.161 37.8802 522.161 40.341C522.161 42.8017 524.154 44.7966 526.612 44.7966Z" fill="#CAD4DB"></path><path opacity="0.4" d="M545.157 44.7966C547.616 44.7966 549.608 42.8017 549.608 40.341C549.608 37.8802 547.616 35.8854 545.157 35.8854C542.699 35.8854 540.707 37.8802 540.707 40.341C540.707 42.8017 542.699 44.7966 545.157 44.7966Z" fill="#CAD4DB"></path><path opacity="0.4" d="M563.702 44.7966C566.16 44.7966 568.153 42.8017 568.153 40.341C568.153 37.8802 566.16 35.8854 563.702 35.8854C561.244 35.8854 559.251 37.8802 559.251 40.341C559.251 42.8017 561.244 44.7966 563.702 44.7966Z" fill="#CAD4DB"></path><path opacity="0.4" d="M582.245 44.7966C584.703 44.7966 586.696 42.8017 586.696 40.341C586.696 37.8802 584.703 35.8854 582.245 35.8854C579.787 35.8854 577.794 37.8802 577.794 40.341C577.794 42.8017 579.787 44.7966 582.245 44.7966Z" fill="#CAD4DB"></path><path opacity="0.4" d="M600.79 44.7966C603.248 44.7966 605.241 42.8017 605.241 40.341C605.241 37.8802 603.248 35.8854 600.79 35.8854C598.332 35.8854 596.339 37.8802 596.339 40.341C596.339 42.8017 598.332 44.7966 600.79 44.7966Z" fill="#CAD4DB"></path><path opacity="0.4" d="M489.524 58.9053C491.982 58.9053 493.975 56.9105 493.975 54.4497C493.975 51.989 491.982 49.9941 489.524 49.9941C487.066 49.9941 485.073 51.989 485.073 54.4497C485.073 56.9105 487.066 58.9053 489.524 58.9053Z" fill="#CAD4DB"></path><path opacity="0.4" d="M508.067 58.9053C510.525 58.9053 512.518 56.9105 512.518 54.4497C512.518 51.989 510.525 49.9941 508.067 49.9941C505.609 49.9941 503.616 51.989 503.616 54.4497C503.616 56.9105 505.609 58.9053 508.067 58.9053Z" fill="#CAD4DB"></path><path opacity="0.4" d="M489.524 73.0141C491.982 73.0141 493.975 71.0193 493.975 68.5585C493.975 66.0977 491.982 64.1029 489.524 64.1029C487.066 64.1029 485.073 66.0977 485.073 68.5585C485.073 71.0193 487.066 73.0141 489.524 73.0141Z" fill="#CAD4DB"></path><path opacity="0.4" d="M508.067 73.0141C510.525 73.0141 512.518 71.0193 512.518 68.5585C512.518 66.0977 510.525 64.1029 508.067 64.1029C505.609 64.1029 503.616 66.0977 503.616 68.5585C503.616 71.0193 505.609 73.0141 508.067 73.0141Z" fill="#CAD4DB"></path><path opacity="0.4" d="M526.612 73.0141C529.07 73.0141 531.063 71.0193 531.063 68.5585C531.063 66.0977 529.07 64.1029 526.612 64.1029C524.154 64.1029 522.161 66.0977 522.161 68.5585C522.161 71.0193 524.154 73.0141 526.612 73.0141Z" fill="#CAD4DB"></path><path opacity="0.4" d="M526.612 58.9053C529.07 58.9053 531.063 56.9105 531.063 54.4497C531.063 51.989 529.07 49.9941 526.612 49.9941C524.154 49.9941 522.161 51.989 522.161 54.4497C522.161 56.9105 524.154 58.9053 526.612 58.9053Z" fill="#CAD4DB"></path><path opacity="0.4" d="M545.157 58.9053C547.616 58.9053 549.608 56.9105 549.608 54.4497C549.608 51.989 547.616 49.9941 545.157 49.9941C542.699 49.9941 540.707 51.989 540.707 54.4497C540.707 56.9105 542.699 58.9053 545.157 58.9053Z" fill="#CAD4DB"></path><path opacity="0.4" d="M563.702 58.9053C566.16 58.9053 568.153 56.9105 568.153 54.4497C568.153 51.989 566.16 49.9941 563.702 49.9941C561.244 49.9941 559.251 51.989 559.251 54.4497C559.251 56.9105 561.244 58.9053 563.702 58.9053Z" fill="#CAD4DB"></path><path opacity="0.4" d="M582.245 58.9053C584.703 58.9053 586.696 56.9105 586.696 54.4497C586.696 51.989 584.703 49.9941 582.245 49.9941C579.787 49.9941 577.794 51.989 577.794 54.4497C577.794 56.9105 579.787 58.9053 582.245 58.9053Z" fill="#CAD4DB"></path><path opacity="0.4" d="M600.79 58.9053C603.248 58.9053 605.241 56.9105 605.241 54.4497C605.241 51.989 603.248 49.9941 600.79 49.9941C598.332 49.9941 596.339 51.989 596.339 54.4497C596.339 56.9105 598.332 58.9053 600.79 58.9053Z" fill="#CAD4DB"></path><path d="M425.678 238.78C420.819 238.78 416.069 237.338 412.029 234.635C407.988 231.933 404.839 228.092 402.98 223.598C401.121 219.104 400.634 214.159 401.582 209.388C402.53 204.617 404.87 200.235 408.306 196.795C411.741 193.356 416.119 191.014 420.885 190.065C425.65 189.116 430.59 189.603 435.079 191.464C439.569 193.326 443.406 196.478 446.105 200.522C448.805 204.567 450.246 209.322 450.246 214.186C450.238 220.706 447.647 226.958 443.042 231.568C438.436 236.179 432.191 238.773 425.678 238.78ZM425.678 190.987C421.094 190.987 416.614 192.347 412.802 194.896C408.991 197.446 406.021 201.069 404.267 205.308C402.513 209.547 402.054 214.212 402.948 218.712C403.842 223.212 406.05 227.346 409.291 230.59C412.532 233.835 416.661 236.044 421.157 236.94C425.652 237.835 430.312 237.375 434.546 235.619C438.781 233.864 442.4 230.89 444.947 227.075C447.493 223.26 448.852 218.774 448.852 214.186C448.846 208.035 446.402 202.138 442.057 197.789C437.713 193.44 431.822 190.993 425.678 190.987Z" fill="#C31130"></path><path d="M435.1 211.829H428.035V204.757C428.035 204.132 427.787 203.532 427.345 203.09C426.904 202.648 426.305 202.4 425.68 202.4C425.056 202.4 424.457 202.648 424.015 203.09C423.574 203.532 423.325 204.132 423.325 204.757V211.829H416.261C415.636 211.829 415.037 212.078 414.596 212.52C414.154 212.962 413.906 213.561 413.906 214.187C413.906 214.812 414.154 215.411 414.596 215.853C415.037 216.296 415.636 216.544 416.261 216.544H423.325V223.616C423.325 224.241 423.574 224.841 424.015 225.283C424.457 225.725 425.056 225.973 425.68 225.973C426.305 225.973 426.904 225.725 427.345 225.283C427.787 224.841 428.035 224.241 428.035 223.616V216.544H435.1C435.724 216.544 436.323 216.296 436.765 215.853C437.206 215.411 437.455 214.812 437.455 214.187C437.455 213.561 437.206 212.962 436.765 212.52C436.323 212.078 435.724 211.829 435.1 211.829Z" fill="#CAD4DB"></path><path opacity="0.4" d="M3.49938 241.8C5.43203 241.8 6.99876 240.231 6.99876 238.297C6.99876 236.362 5.43203 234.793 3.49938 234.793C1.56673 234.793 0 236.362 0 238.297C0 240.231 1.56673 241.8 3.49938 241.8Z" fill="#CAD4DB"></path><path opacity="0.4" d="M3.49938 227.204C5.43203 227.204 6.99876 225.635 6.99876 223.701C6.99876 221.766 5.43203 220.198 3.49938 220.198C1.56673 220.198 0 221.766 0 223.701C0 225.635 1.56673 227.204 3.49938 227.204Z" fill="#CAD4DB"></path><path opacity="0.4" d="M3.49938 212.609C5.43203 212.609 6.99876 211.04 6.99876 209.106C6.99876 207.171 5.43203 205.603 3.49938 205.603C1.56673 205.603 0 207.171 0 209.106C0 211.04 1.56673 212.609 3.49938 212.609Z" fill="#CAD4DB"></path><path opacity="0.4" d="M3.49938 198.013C5.43203 198.013 6.99876 196.445 6.99876 194.51C6.99876 192.575 5.43203 191.007 3.49938 191.007C1.56673 191.007 0 192.575 0 194.51C0 196.445 1.56673 198.013 3.49938 198.013Z" fill="#CAD4DB"></path><path opacity="0.4" d="M3.49938 183.418C5.43203 183.418 6.99876 181.85 6.99876 179.915C6.99876 177.981 5.43203 176.412 3.49938 176.412C1.56673 176.412 0 177.981 0 179.915C0 181.85 1.56673 183.418 3.49938 183.418Z" fill="#CAD4DB"></path><path opacity="0.4" d="M3.49938 168.823C5.43203 168.823 6.99876 167.254 6.99876 165.32C6.99876 163.385 5.43203 161.816 3.49938 161.816C1.56673 161.816 0 163.385 0 165.32C0 167.254 1.56673 168.823 3.49938 168.823Z" fill="#CAD4DB"></path><path opacity="0.4" d="M3.49938 154.226C5.43203 154.226 6.99876 152.658 6.99876 150.723C6.99876 148.788 5.43203 147.22 3.49938 147.22C1.56673 147.22 0 148.788 0 150.723C0 152.658 1.56673 154.226 3.49938 154.226Z" fill="#CAD4DB"></path><path opacity="0.4" d="M14.5799 241.8C16.5126 241.8 18.0793 240.231 18.0793 238.297C18.0793 236.362 16.5126 234.793 14.5799 234.793C12.6473 234.793 11.0806 236.362 11.0806 238.297C11.0806 240.231 12.6473 241.8 14.5799 241.8Z" fill="#CAD4DB"></path><path opacity="0.4" d="M14.5799 227.204C16.5126 227.204 18.0793 225.635 18.0793 223.701C18.0793 221.766 16.5126 220.198 14.5799 220.198C12.6473 220.198 11.0806 221.766 11.0806 223.701C11.0806 225.635 12.6473 227.204 14.5799 227.204Z" fill="#CAD4DB"></path><path opacity="0.4" d="M14.5799 212.609C16.5126 212.609 18.0793 211.04 18.0793 209.106C18.0793 207.171 16.5126 205.603 14.5799 205.603C12.6473 205.603 11.0806 207.171 11.0806 209.106C11.0806 211.04 12.6473 212.609 14.5799 212.609Z" fill="#CAD4DB"></path><path opacity="0.4" d="M14.5799 198.013C16.5126 198.013 18.0793 196.445 18.0793 194.51C18.0793 192.575 16.5126 191.007 14.5799 191.007C12.6473 191.007 11.0806 192.575 11.0806 194.51C11.0806 196.445 12.6473 198.013 14.5799 198.013Z" fill="#CAD4DB"></path><path opacity="0.4" d="M14.5802 183.418C16.5128 183.418 18.0796 181.85 18.0796 179.915C18.0796 177.981 16.5128 176.412 14.5802 176.412C12.6475 176.412 11.0808 177.981 11.0808 179.915C11.0808 181.85 12.6475 183.418 14.5802 183.418Z" fill="#CAD4DB"></path><path opacity="0.4" d="M14.5802 168.823C16.5128 168.823 18.0796 167.254 18.0796 165.32C18.0796 163.385 16.5128 161.816 14.5802 161.816C12.6475 161.816 11.0808 163.385 11.0808 165.32C11.0808 167.254 12.6475 168.823 14.5802 168.823Z" fill="#CAD4DB"></path><path opacity="0.4" d="M14.5802 154.226C16.5128 154.226 18.0796 152.658 18.0796 150.723C18.0796 148.788 16.5128 147.22 14.5802 147.22C12.6475 147.22 11.0808 148.788 11.0808 150.723C11.0808 152.658 12.6475 154.226 14.5802 154.226Z" fill="#CAD4DB"></path><path opacity="0.4" d="M25.6612 241.8C27.5939 241.8 29.1606 240.231 29.1606 238.297C29.1606 236.362 27.5939 234.793 25.6612 234.793C23.7286 234.793 22.1619 236.362 22.1619 238.297C22.1619 240.231 23.7286 241.8 25.6612 241.8Z" fill="#CAD4DB"></path><path opacity="0.4" d="M25.6612 227.204C27.5939 227.204 29.1606 225.635 29.1606 223.701C29.1606 221.766 27.5939 220.198 25.6612 220.198C23.7286 220.198 22.1619 221.766 22.1619 223.701C22.1619 225.635 23.7286 227.204 25.6612 227.204Z" fill="#CAD4DB"></path><path opacity="0.4" d="M25.6612 212.609C27.5939 212.609 29.1606 211.04 29.1606 209.106C29.1606 207.171 27.5939 205.603 25.6612 205.603C23.7286 205.603 22.1619 207.171 22.1619 209.106C22.1619 211.04 23.7286 212.609 25.6612 212.609Z" fill="#CAD4DB"></path><path opacity="0.4" d="M25.6612 198.013C27.5939 198.013 29.1606 196.445 29.1606 194.51C29.1606 192.575 27.5939 191.007 25.6612 191.007C23.7286 191.007 22.1619 192.575 22.1619 194.51C22.1619 196.445 23.7286 198.013 25.6612 198.013Z" fill="#CAD4DB"></path><path opacity="0.4" d="M25.6627 183.418C27.5954 183.418 29.1621 181.85 29.1621 179.915C29.1621 177.981 27.5954 176.412 25.6627 176.412C23.7301 176.412 22.1633 177.981 22.1633 179.915C22.1633 181.85 23.7301 183.418 25.6627 183.418Z" fill="#CAD4DB"></path><path opacity="0.4" d="M25.6627 168.823C27.5954 168.823 29.1621 167.254 29.1621 165.32C29.1621 163.385 27.5954 161.816 25.6627 161.816C23.7301 161.816 22.1633 163.385 22.1633 165.32C22.1633 167.254 23.7301 168.823 25.6627 168.823Z" fill="#CAD4DB"></path><path opacity="0.4" d="M25.6627 154.226C27.5954 154.226 29.1621 152.658 29.1621 150.723C29.1621 148.788 27.5954 147.22 25.6627 147.22C23.7301 147.22 22.1633 148.788 22.1633 150.723C22.1633 152.658 23.7301 154.226 25.6627 154.226Z" fill="#CAD4DB"></path><path opacity="0.4" d="M36.7416 241.8C38.6742 241.8 40.2409 240.231 40.2409 238.297C40.2409 236.362 38.6742 234.793 36.7416 234.793C34.8089 234.793 33.2422 236.362 33.2422 238.297C33.2422 240.231 34.8089 241.8 36.7416 241.8Z" fill="#CAD4DB"></path><path opacity="0.4" d="M36.7416 227.204C38.6742 227.204 40.2409 225.635 40.2409 223.701C40.2409 221.766 38.6742 220.198 36.7416 220.198C34.8089 220.198 33.2422 221.766 33.2422 223.701C33.2422 225.635 34.8089 227.204 36.7416 227.204Z" fill="#CAD4DB"></path><path opacity="0.4" d="M47.8231 241.8C49.7557 241.8 51.3225 240.231 51.3225 238.297C51.3225 236.362 49.7557 234.793 47.8231 234.793C45.8905 234.793 44.3237 236.362 44.3237 238.297C44.3237 240.231 45.8905 241.8 47.8231 241.8Z" fill="#CAD4DB"></path><path opacity="0.4" d="M47.8231 227.204C49.7557 227.204 51.3225 225.635 51.3225 223.701C51.3225 221.766 49.7557 220.198 47.8231 220.198C45.8905 220.198 44.3237 221.766 44.3237 223.701C44.3237 225.635 45.8905 227.204 47.8231 227.204Z" fill="#CAD4DB"></path><path opacity="0.4" d="M47.8231 212.609C49.7557 212.609 51.3225 211.04 51.3225 209.106C51.3225 207.171 49.7557 205.603 47.8231 205.603C45.8905 205.603 44.3237 207.171 44.3237 209.106C44.3237 211.04 45.8905 212.609 47.8231 212.609Z" fill="#CAD4DB"></path><path opacity="0.4" d="M36.7416 212.609C38.6742 212.609 40.2409 211.04 40.2409 209.106C40.2409 207.171 38.6742 205.603 36.7416 205.603C34.8089 205.603 33.2422 207.171 33.2422 209.106C33.2422 211.04 34.8089 212.609 36.7416 212.609Z" fill="#CAD4DB"></path><path opacity="0.4" d="M36.7416 198.013C38.6742 198.013 40.2409 196.445 40.2409 194.51C40.2409 192.575 38.6742 191.007 36.7416 191.007C34.8089 191.007 33.2422 192.575 33.2422 194.51C33.2422 196.445 34.8089 198.013 36.7416 198.013Z" fill="#CAD4DB"></path><path opacity="0.4" d="M36.7416 183.417C38.6742 183.417 40.2409 181.849 40.2409 179.914C40.2409 177.979 38.6742 176.411 36.7416 176.411C34.8089 176.411 33.2422 177.979 33.2422 179.914C33.2422 181.849 34.8089 183.417 36.7416 183.417Z" fill="#CAD4DB"></path><path opacity="0.4" d="M36.7416 168.822C38.6742 168.822 40.2409 167.253 40.2409 165.319C40.2409 163.384 38.6742 161.816 36.7416 161.816C34.8089 161.816 33.2422 163.384 33.2422 165.319C33.2422 167.253 34.8089 168.822 36.7416 168.822Z" fill="#CAD4DB"></path><path opacity="0.4" d="M36.7416 154.226C38.6742 154.226 40.2409 152.658 40.2409 150.723C40.2409 148.788 38.6742 147.22 36.7416 147.22C34.8089 147.22 33.2422 148.788 33.2422 150.723C33.2422 152.658 34.8089 154.226 36.7416 154.226Z" fill="#CAD4DB"></path><path d="M312.323 0H79.8666C78.7249 0.00115553 77.6303 0.455698 76.823 1.26386C76.0157 2.07202 75.5617 3.16779 75.5605 4.3107V203.296C75.5617 204.439 76.0157 205.534 76.823 206.343C77.6303 207.151 78.7249 207.605 79.8666 207.607H312.323C313.464 207.605 314.559 207.151 315.366 206.343C316.173 205.534 316.628 204.439 316.629 203.296V4.31067C316.628 3.16776 316.173 2.072 315.366 1.26384C314.559 0.455682 313.464 0.00115182 312.323 0Z" fill="#C31130"></path><path d="M133.523 172.225C133.523 172.532 133.515 172.838 133.498 173.137C133.264 177.628 131.317 181.857 128.059 184.953C124.801 188.048 120.48 189.774 115.988 189.774C111.496 189.774 107.175 188.048 103.917 184.953C100.659 181.857 98.7117 177.628 98.4773 173.137C98.4612 172.838 98.4531 172.532 98.4531 172.225C98.4517 169.919 98.9041 167.635 99.7847 165.504C100.665 163.373 101.957 161.437 103.585 159.805C105.213 158.174 107.147 156.88 109.275 155.997C111.403 155.115 113.684 154.66 115.988 154.66C118.292 154.66 120.573 155.115 122.701 155.997C124.829 156.88 126.762 158.174 128.391 159.805C130.019 161.437 131.311 163.373 132.191 165.504C133.072 167.635 133.524 169.919 133.523 172.225Z" fill="white"></path><path d="M294.259 160.52H156.481C155.706 160.521 154.964 160.83 154.417 161.379C153.87 161.927 153.562 162.671 153.562 163.446C153.562 164.221 153.87 164.965 154.417 165.514C154.964 166.062 155.706 166.371 156.481 166.372H294.259C295.034 166.371 295.776 166.062 296.324 165.514C296.871 164.965 297.178 164.221 297.178 163.446C297.178 162.671 296.871 161.927 296.324 161.379C295.776 160.83 295.034 160.521 294.259 160.52Z" fill="#C31130"></path><path d="M215.767 178.077H156.481C155.707 178.077 154.965 178.385 154.417 178.933C153.87 179.481 153.562 180.225 153.562 181C153.562 181.775 153.87 182.518 154.417 183.066C154.965 183.614 155.707 183.922 156.481 183.922H215.767C216.541 183.922 217.283 183.614 217.831 183.066C218.378 182.518 218.686 181.775 218.686 181C218.686 180.225 218.378 179.481 217.831 178.933C217.283 178.385 216.541 178.077 215.767 178.077Z" fill="white"></path><path d="M367.549 139.855H135.095C133.516 139.853 132.002 139.224 130.886 138.106C129.77 136.989 129.142 135.474 129.14 133.893V31.7717C129.142 30.1914 129.77 28.6762 130.886 27.5587C132.003 26.4412 133.516 25.8125 135.095 25.8107H367.549C369.128 25.8125 370.642 26.4412 371.758 27.5587C372.874 28.6762 373.502 30.1914 373.504 31.7717V133.893C373.502 135.474 372.874 136.989 371.758 138.106C370.642 139.224 369.128 139.853 367.549 139.855ZM135.095 27.9024C134.07 27.9036 133.088 28.3117 132.363 29.0371C131.639 29.7625 131.231 30.7459 131.23 31.7717V133.893C131.231 134.919 131.639 135.902 132.363 136.628C133.088 137.353 134.07 137.761 135.095 137.763H367.549C368.574 137.761 369.557 137.353 370.281 136.628C371.006 135.902 371.413 134.919 371.414 133.893V31.7717C371.413 30.7459 371.006 29.7625 370.281 29.0371C369.557 28.3117 368.574 27.9036 367.549 27.9024H135.095Z" fill="#CAD4DB"></path><path d="M182.433 63.0577C181.658 63.0577 180.915 63.366 180.367 63.9146C179.819 64.4633 179.511 65.2074 179.511 65.9834C179.511 66.7593 179.819 67.5034 180.367 68.0521C180.915 68.6008 181.658 68.909 182.433 68.909H320.209C320.984 68.909 321.728 68.6008 322.276 68.0521C322.824 67.5034 323.132 66.7593 323.132 65.9834C323.132 65.2074 322.824 64.4633 322.276 63.9146C321.728 63.366 320.984 63.0577 320.209 63.0577H182.433Z" fill="#CAD4DB"></path><path d="M182.434 80.0098C181.658 80.0098 180.915 80.318 180.367 80.8667C179.819 81.4153 179.511 82.1595 179.511 82.9354C179.511 83.7113 179.819 84.4554 180.367 85.0041C180.915 85.5528 181.658 85.861 182.434 85.861H320.209C320.983 85.8598 321.726 85.551 322.273 85.0025C322.82 84.454 323.127 83.7105 323.127 82.9354C323.127 82.1602 322.82 81.4168 322.273 80.8682C321.726 80.3197 320.983 80.011 320.209 80.0098H182.434Z" fill="#CAD4DB"></path><path d="M182.434 96.756C181.658 96.756 180.915 97.0643 180.367 97.613C179.819 98.1616 179.511 98.9057 179.511 99.6817C179.511 100.458 179.819 101.202 180.367 101.75C180.915 102.299 181.658 102.607 182.434 102.607H241.719C242.493 102.606 243.235 102.297 243.782 101.749C244.329 101.2 244.637 100.457 244.637 99.6817C244.637 98.9065 244.329 98.1631 243.782 97.6145C243.235 97.066 242.493 96.7572 241.719 96.756H182.434Z" fill="#CAD4DB"></path><path d="M405.875 183.121L382.528 150.135L390.086 151.712C390.22 151.74 390.359 151.741 390.494 151.715C390.629 151.69 390.757 151.638 390.872 151.563C390.987 151.487 391.086 151.39 391.163 151.276C391.241 151.163 391.295 151.035 391.323 150.9C391.351 150.766 391.352 150.627 391.326 150.492C391.301 150.357 391.249 150.228 391.174 150.113C391.098 149.998 391.001 149.899 390.888 149.822C390.774 149.745 390.647 149.69 390.512 149.662L379.249 147.315L377.729 158.73C377.71 158.866 377.719 159.005 377.754 159.138C377.789 159.271 377.85 159.396 377.934 159.506C378.017 159.615 378.121 159.707 378.24 159.776C378.359 159.845 378.491 159.89 378.627 159.909C378.763 159.927 378.902 159.918 379.035 159.882C379.168 159.847 379.292 159.785 379.402 159.701C379.511 159.618 379.602 159.513 379.671 159.394C379.74 159.274 379.784 159.143 379.802 159.006L380.821 151.341L404.17 184.33C404.25 184.442 404.35 184.537 404.466 184.61C404.582 184.683 404.712 184.733 404.847 184.756C404.982 184.779 405.121 184.775 405.254 184.745C405.388 184.714 405.515 184.658 405.627 184.578C405.739 184.499 405.834 184.398 405.907 184.282C405.98 184.166 406.029 184.036 406.052 183.901C406.075 183.766 406.072 183.627 406.041 183.493C406.011 183.359 405.954 183.233 405.875 183.121V183.121Z" fill="#CAD4DB"></path><path d="M279.07 279.124H113.12C112.306 279.123 111.524 278.799 110.948 278.222C110.372 277.645 110.048 276.863 110.047 276.048V234.839C110.048 234.023 110.372 233.241 110.948 232.665C111.524 232.088 112.306 231.764 113.12 231.763H279.07C279.884 231.764 280.665 232.088 281.242 232.665C281.818 233.241 282.142 234.023 282.143 234.839V276.048C282.142 276.863 281.818 277.645 281.242 278.222C280.665 278.799 279.884 279.123 279.07 279.124Z" fill="#C31130"></path><path d="M138.906 266.395C145.82 266.395 151.425 260.784 151.425 253.862C151.425 246.941 145.82 241.33 138.906 241.33C131.992 241.33 126.387 246.941 126.387 253.862C126.387 260.784 131.992 266.395 138.906 266.395Z" fill="white"></path><path d="M167.817 245.507C167.542 245.507 167.271 245.561 167.017 245.665C166.764 245.77 166.533 245.924 166.339 246.118C166.145 246.312 165.991 246.542 165.886 246.796C165.781 247.05 165.727 247.321 165.727 247.596C165.727 247.871 165.781 248.143 165.886 248.396C165.991 248.65 166.145 248.88 166.339 249.074C166.533 249.268 166.764 249.422 167.017 249.527C167.271 249.631 167.542 249.685 167.817 249.685H266.175C266.728 249.685 267.259 249.465 267.65 249.073C268.042 248.681 268.261 248.15 268.261 247.596C268.261 247.042 268.042 246.511 267.65 246.119C267.259 245.728 266.728 245.507 266.175 245.507H167.817Z" fill="white"></path><path d="M167.817 258.039C167.542 258.039 167.271 258.093 167.017 258.197C166.764 258.302 166.533 258.456 166.339 258.65C166.145 258.844 165.991 259.074 165.886 259.328C165.781 259.581 165.727 259.853 165.727 260.128C165.727 260.403 165.781 260.674 165.886 260.928C165.991 261.182 166.145 261.412 166.339 261.606C166.533 261.8 166.764 261.954 167.017 262.059C167.271 262.163 167.542 262.217 167.817 262.217H210.141C210.694 262.217 211.225 261.997 211.616 261.605C212.007 261.213 212.227 260.682 212.227 260.128C212.227 259.574 212.007 259.043 211.616 258.651C211.225 258.259 210.694 258.039 210.141 258.039H167.817Z" fill="white"></path><path d="M498.024 132.306H571.78C572.594 132.307 573.375 132.632 573.951 133.209C574.528 133.785 574.852 134.567 574.853 135.383V212.278C574.852 213.094 574.528 213.875 573.951 214.452C573.375 215.029 572.594 215.353 571.78 215.354H498.024C497.209 215.353 496.428 215.029 495.852 214.452C495.276 213.875 494.952 213.094 494.951 212.278V135.383C494.952 134.567 495.276 133.785 495.852 133.209C496.428 132.632 497.209 132.307 498.024 132.306ZM571.78 214.124C572.268 214.123 572.737 213.929 573.083 213.583C573.428 213.236 573.623 212.767 573.623 212.278V135.383C573.623 134.893 573.428 134.424 573.083 134.078C572.737 133.732 572.268 133.537 571.78 133.537H498.024C497.535 133.537 497.067 133.732 496.721 134.078C496.375 134.424 496.181 134.893 496.18 135.383V212.278C496.181 212.767 496.375 213.236 496.721 213.583C497.067 213.929 497.535 214.123 498.024 214.124H571.78Z" fill="#C31130"></path><path d="M556.063 199.498C556.617 199.498 557.147 199.277 557.539 198.886C557.93 198.494 558.15 197.963 558.15 197.409C558.15 196.855 557.93 196.324 557.539 195.932C557.147 195.54 556.617 195.32 556.063 195.32H513.739C513.186 195.32 512.655 195.54 512.264 195.932C511.873 196.324 511.653 196.855 511.653 197.409C511.653 197.963 511.873 198.494 512.264 198.886C512.655 199.277 513.186 199.498 513.739 199.498H556.063Z" fill="#CAD4DB"></path><path d="M556.065 187.192C556.339 187.192 556.611 187.138 556.865 187.034C557.118 186.929 557.349 186.775 557.543 186.581C557.737 186.387 557.891 186.157 557.996 185.903C558.101 185.65 558.155 185.378 558.155 185.103C558.155 184.828 558.101 184.557 557.996 184.303C557.891 184.049 557.737 183.819 557.543 183.625C557.349 183.431 557.118 183.277 556.865 183.172C556.611 183.068 556.339 183.014 556.065 183.014H513.741C513.467 183.014 513.195 183.068 512.941 183.172C512.688 183.277 512.457 183.431 512.263 183.625C512.069 183.819 511.915 184.049 511.81 184.303C511.705 184.557 511.651 184.828 511.651 185.103C511.651 185.378 511.705 185.65 511.81 185.903C511.915 186.157 512.069 186.387 512.263 186.581C512.457 186.775 512.688 186.929 512.941 187.034C513.195 187.138 513.467 187.192 513.741 187.192H556.065Z" fill="#CAD4DB"></path><path d="M534.903 148.164C537.5 148.164 540.039 148.935 542.199 150.38C544.359 151.824 546.042 153.878 547.036 156.28C548.03 158.682 548.291 161.326 547.784 163.876C547.277 166.426 546.026 168.769 544.189 170.608C542.353 172.447 540.013 173.699 537.465 174.206C534.917 174.713 532.277 174.453 529.877 173.458C527.477 172.463 525.426 170.778 523.983 168.616C522.54 166.453 521.769 163.912 521.769 161.311C521.773 157.826 523.158 154.484 525.62 152.019C528.082 149.554 531.421 148.168 534.903 148.164Z" fill="#CAD4DB"></path></svg>