<svg xmlns="http://www.w3.org/2000/svg" width="68" height="61" viewBox="0 0 68 61" fill="none"><path d="M63.8057 13.9038C63.8017 13.8984 63.7975 13.8932 63.7935 13.8878L53.3822 0.543365C53.1339 0.225244 52.7529 0.0391936 52.3494 0.0390626H52.3492C51.9457 0.0390626 51.5647 0.224983 51.3164 0.543104L46.0788 7.25326L40.8438 0.543365C40.5954 0.225244 40.2144 0.0391936 39.8108 0.0390626H39.8107C39.4073 0.0390626 39.0262 0.224983 38.7779 0.543104L33.5403 7.25312L28.3054 0.543365C28.057 0.225244 27.676 0.0391936 27.2725 0.0390626H27.2723C26.8689 0.0390626 26.4878 0.224983 26.2395 0.543104L21.0032 7.25168L15.7668 0.543104C15.5184 0.224983 15.1373 0.0389315 14.7338 0.0390626C14.3302 0.0391936 13.9492 0.225113 13.7008 0.543365L7.08448 9.02375C6.63953 9.59422 6.74107 10.4177 7.31154 10.8628C7.88188 11.3079 8.70535 11.2062 9.15056 10.6357L14.7341 3.47891L19.9211 10.1243C19.9495 10.1657 19.9808 10.2054 20.0144 10.2438L23.9812 15.3259C24.0103 15.3716 24.0424 15.4159 24.0774 15.4582C25.8634 17.6201 26.8472 20.3582 26.8472 23.1679C26.8472 29.8473 21.413 35.2814 14.7338 35.2814C8.05457 35.2816 2.62044 29.8474 2.62044 23.1681C2.62044 22.3314 2.70599 21.4961 2.87488 20.6856C3.02241 19.9772 2.56777 19.2833 1.85933 19.1356C1.15168 18.9885 0.457135 19.4429 0.309474 20.151C0.104162 21.1371 0 22.1521 0 23.1681C0 31.2924 6.60953 37.902 14.7339 37.902C16.9737 37.902 19.098 37.3988 21.0007 36.5007C22.9516 37.4181 25.1052 37.902 27.2723 37.902C29.5121 37.902 31.6364 37.3988 33.5392 36.5007C35.4901 37.4181 37.6436 37.902 39.8108 37.902C42.0507 37.902 44.1749 37.3988 46.0778 36.5007C48.0287 37.4181 50.1821 37.902 52.3494 37.902C60.4738 37.902 67.0833 31.2925 67.0833 23.1681C67.0832 19.8032 65.9194 16.5151 63.8057 13.9038ZM27.2723 35.2816C26.0954 35.2816 24.9239 35.1074 23.8019 34.7731C27.2487 32.0739 29.4677 27.8754 29.4677 23.1681C29.4677 19.7965 28.3025 16.509 26.1844 13.8955C26.1668 13.8691 26.148 13.8431 26.1281 13.8177L22.6651 9.38105L27.2721 3.47904L36.6233 15.465C36.6372 15.4842 36.6518 15.503 36.6668 15.5215C38.4202 17.6729 39.3858 20.3885 39.3858 23.1681C39.3858 29.8474 33.9517 35.2816 27.2723 35.2816ZM39.8108 35.2816C38.6339 35.2816 37.4623 35.1074 36.3405 34.7731C39.7873 32.0739 42.0064 27.8753 42.0064 23.1681C42.0064 19.8024 40.842 16.5132 38.727 13.9013C38.7236 13.8968 38.7201 13.8923 38.7167 13.8878L35.2022 9.38301L39.8106 3.47891L49.1619 15.4649C49.1758 15.484 49.1904 15.5029 49.2055 15.5215C50.9587 17.6726 51.9243 20.3883 51.9243 23.1681C51.9243 29.8474 46.4902 35.2816 39.8108 35.2816ZM52.3492 35.2816C51.1723 35.2816 50.0008 35.1074 48.8789 34.7731C52.3257 32.0739 54.5448 27.8753 54.5448 23.1681C54.5448 19.802 53.3805 16.5131 51.2653 13.9012C51.262 13.8967 51.2585 13.8923 51.2551 13.8877L47.7407 9.38301L52.3491 3.47891L61.6987 15.4626C61.7131 15.4825 61.7283 15.5021 61.7439 15.5214C63.4971 17.6728 64.4627 20.3883 64.4627 23.1681C64.4627 29.8474 59.0286 35.2816 52.3492 35.2816Z" fill="#C31130"></path><path d="M18.2606 54.729C17.5371 54.729 16.9504 55.3156 16.9504 56.0392C16.9504 56.7998 16.3317 57.4185 15.5713 57.4185H13.8965C13.136 57.4185 12.5174 56.7998 12.5174 56.0392V50.9365C12.5173 50.1759 13.136 49.5572 13.8965 49.5572H15.5713C16.3318 49.5572 16.9504 50.1759 16.9504 50.9365C16.9504 51.6601 17.5371 52.2467 18.2606 52.2467C18.9841 52.2467 19.5708 51.6601 19.5708 50.9365C19.5708 48.731 17.7766 46.9368 15.5713 46.9368H13.8965C11.6912 46.9368 9.89697 48.731 9.89697 50.9365V56.0392C9.89697 58.2447 11.6912 60.0389 13.8965 60.0389H15.5713C17.7766 60.0389 19.5708 58.2447 19.5708 56.0392C19.5708 55.3156 18.9841 54.729 18.2606 54.729Z" fill="#C31130"></path><path d="M32.305 47.0364C31.8153 46.8334 31.2518 46.9457 30.8771 47.3204L28.0913 50.1062L25.3055 47.3204C24.9309 46.9457 24.3673 46.8334 23.8776 47.0364C23.3881 47.2392 23.0688 47.7169 23.0688 48.2469V58.7286C23.0688 59.4522 23.6556 60.0388 24.3791 60.0388C25.1026 60.0388 25.6893 59.4522 25.6893 58.7286V51.4101L27.1649 52.8857C27.4106 53.1314 27.7438 53.2695 28.0913 53.2695C28.4388 53.2695 28.772 53.1314 29.0178 52.8857L30.4933 51.4101V58.7286C30.4933 59.4522 31.08 60.0388 31.8035 60.0388C32.527 60.0388 33.1138 59.4522 33.1138 58.7286V48.2469C33.1138 47.7169 32.7946 47.2392 32.305 47.0364Z" fill="#C31130"></path><path d="M45.9567 47.3205C45.4454 46.8089 44.6159 46.8089 44.1039 47.3204L41.318 50.1063L38.5322 47.3205C38.0205 46.8089 37.1912 46.8089 36.6791 47.3205C36.1675 47.8322 36.1675 48.6618 36.6791 49.1734L40.0076 52.502V58.7287C40.0076 59.4523 40.5943 60.0389 41.3178 60.0389C42.0413 60.0389 42.6281 59.4523 42.6281 58.7287V52.502L45.9567 49.1734C46.4683 48.6618 46.4683 47.8322 45.9567 47.3205Z" fill="#C31130"></path><path d="M52.4668 53.488L56.7813 49.1735C57.293 48.6619 57.293 47.8323 56.7814 47.3205C56.2696 46.8089 55.4402 46.8089 54.9283 47.3205L51.9241 50.3247V48.2471C51.9241 47.5234 51.3374 46.9369 50.6139 46.9369C49.8904 46.9369 49.3037 47.5234 49.3037 48.2471V53.4873C49.3037 53.4877 49.3037 53.4882 49.3037 53.4886V58.7288C49.3037 59.4525 49.8904 60.039 50.6139 60.039C51.3374 60.039 51.9241 59.4525 51.9241 58.7288V56.6512L54.9283 59.6554C55.1842 59.9113 55.5195 60.0392 55.8548 60.0392C56.1901 60.0392 56.5254 59.9113 56.7813 59.6554C57.2929 59.1438 57.2929 58.3141 56.7813 57.8024L52.4668 53.488Z" fill="#C31130"></path><path d="M5.17394 13.6014C4.60334 13.1567 3.78 13.2589 3.33518 13.8298L3.28932 13.8886C2.98168 14.2835 2.926 14.8192 3.14559 15.269C3.36558 15.7187 3.82232 16.0039 4.32296 16.0039H4.32387C4.75782 16.0039 5.1421 15.7931 5.38043 15.4683L5.40231 15.4403C5.84713 14.8694 5.7448 14.0462 5.17394 13.6014Z" fill="#C31130"></path></svg>