<svg width="80" height="240" viewBox="0 0 80 240" fill="none" xmlns="http://www.w3.org/2000/svg">
<g clip-path="url(#clip0)">
<path d="M10.6812 228.982C10.6812 228.655 10.5722 228.218 10.3542 228C10.2452 227.673 10.0272 227.455 9.70026 227.236C9.48227 227.018 9.1553 226.909 8.82832 226.8C8.50135 226.691 8.17437 226.691 7.7384 226.691C7.19344 226.691 6.75748 226.8 6.32151 227.018C5.88554 227.236 5.55857 227.564 5.23159 227.891C4.90462 228.218 4.68663 228.655 4.57764 229.091C4.46865 229.527 4.35966 230.073 4.35966 230.509C4.35966 231.055 4.46865 231.6 4.57764 232.145C4.68663 232.691 4.90462 233.018 5.23159 233.455C5.55857 233.782 5.88554 234.109 6.32151 234.327C6.75748 234.545 7.19344 234.655 7.7384 234.655C8.17437 234.655 8.50135 234.545 8.82832 234.436C9.1553 234.327 9.48227 234.109 9.70026 233.891C9.91824 233.673 10.1362 233.345 10.3542 233.018C10.5722 232.691 10.6812 232.364 10.6812 231.927H11.3351C11.2261 232.473 11.1171 232.909 10.8992 233.345C10.6812 233.782 10.4632 234.109 10.1362 234.327C9.80925 234.655 9.48227 234.764 9.04631 234.982C8.61034 235.091 8.17437 235.2 7.7384 235.2C7.08445 235.2 6.4305 235.091 5.88554 234.873C5.34058 234.655 5.01361 234.327 4.68663 233.891C4.35966 233.455 4.14167 233.018 4.03268 232.473C3.92369 231.927 3.8147 231.382 3.8147 230.727C3.8147 230.073 3.92369 229.527 4.03268 228.982C4.25066 228.436 4.46865 228 4.79562 227.564C5.1226 227.127 5.55857 226.8 5.99453 226.582C6.53949 226.364 7.08445 226.255 7.7384 226.255C8.17437 226.255 8.61034 226.364 9.04631 226.473C9.48227 226.582 9.80925 226.8 10.1362 227.018C10.4632 227.236 10.6812 227.564 10.8992 227.891C11.1171 228.218 11.2261 228.655 11.2261 229.2H10.6812V228.982Z" fill="white"/>
<path d="M16.4578 228.218C16.5667 227.891 16.6757 227.673 16.8937 227.455C17.1117 227.236 17.3297 227.018 17.6567 226.8C17.9836 226.582 18.3106 226.473 18.6376 226.364C18.9646 226.255 19.4005 226.255 19.7275 226.255V226.909C19.4005 226.909 18.9646 226.909 18.5286 227.018C18.0926 227.127 17.6567 227.345 17.3297 227.782C17.2207 228 17.0027 228.109 16.8937 228.218C16.7847 228.327 16.6757 228.545 16.5667 228.764C16.4577 228.982 16.4577 229.2 16.3488 229.418C16.2398 229.636 16.2398 229.964 16.2398 230.291V234.982H15.5858V226.364H16.2398V228.218H16.4578Z" fill="white"/>
<path d="M23.4333 230.727C23.4333 231.382 23.5423 231.818 23.6512 232.255C23.7602 232.691 23.9782 233.127 24.1962 233.455C24.4142 233.782 24.7412 234.109 25.1771 234.327C25.6131 234.545 26.0491 234.655 26.594 234.655C27.466 234.655 28.1199 234.436 28.6649 234C29.2098 233.564 29.5368 232.909 29.7548 232.145H30.4087C30.1908 233.127 29.7548 233.891 29.2098 234.436C28.5559 234.982 27.7929 235.2 26.703 235.2C26.0491 235.2 25.5041 235.091 25.0681 234.873C24.6322 234.655 24.1962 234.327 23.8692 233.891C23.5423 233.455 23.3243 233.018 23.1063 232.473C22.9973 231.927 22.8883 231.382 22.8883 230.727C22.8883 230.073 22.9973 229.527 23.1063 228.982C23.2153 228.436 23.5423 227.891 23.8692 227.564C24.1962 227.127 24.6322 226.8 25.0681 226.582C25.5041 226.364 26.1581 226.255 26.812 226.255C27.466 226.255 27.9019 226.364 28.4469 226.582C28.8829 226.8 29.3188 227.127 29.6458 227.455C29.9728 227.891 30.1908 228.327 30.4087 228.764C30.5177 229.309 30.6267 229.855 30.6267 230.4C30.6267 230.509 30.6267 230.509 30.6267 230.618C30.6267 230.727 30.6267 230.727 30.6267 230.836H23.4333V230.727ZM29.7548 230.182C29.7548 229.745 29.6458 229.309 29.5368 228.873C29.4278 228.436 29.2098 228.109 28.9918 227.782C28.7739 227.455 28.4469 227.236 28.0109 227.018C27.6839 226.8 27.248 226.691 26.703 226.691C26.1581 226.691 25.7221 226.8 25.3951 227.018C24.9591 227.236 24.6322 227.455 24.4142 227.782C24.1962 228.109 23.9782 228.436 23.7602 228.873C23.6512 229.309 23.5423 229.745 23.5423 230.182H29.7548Z" fill="white"/>
<path d="M40.4359 233.236C40.3269 233.455 40.109 233.782 40 234C39.782 234.218 39.564 234.436 39.346 234.655C39.128 234.873 38.8011 234.982 38.3651 235.091C38.0381 235.2 37.6022 235.2 37.2752 235.2C36.4032 235.2 35.6403 234.982 35.0953 234.655C34.5504 234.327 34.3324 233.673 34.3324 232.8C34.3324 232.255 34.4414 231.927 34.6594 231.6C34.8774 231.273 35.0953 231.055 35.4223 230.836C35.7493 230.618 36.0763 230.509 36.4032 230.4C36.7302 230.291 37.1662 230.291 37.4932 230.182L38.4741 230.073C38.9101 230.073 39.346 229.964 39.564 229.964C39.782 229.855 40 229.745 40.109 229.636C40.218 229.527 40.3269 229.309 40.3269 229.091C40.3269 228.873 40.3269 228.655 40.3269 228.327C40.3269 228.109 40.3269 227.891 40.218 227.673C40.109 227.455 40 227.345 39.782 227.127C39.564 227.018 39.346 226.8 39.019 226.8C38.6921 226.8 38.3651 226.691 37.9291 226.691C37.1662 226.691 36.5122 226.909 36.0763 227.236C35.6403 227.564 35.3133 228.218 35.3133 228.982H34.6594C34.6594 228 34.9863 227.345 35.5313 226.8C36.0763 226.364 36.9482 226.036 37.9291 226.036C39.019 226.036 39.673 226.255 40.218 226.691C40.6539 227.127 40.9809 227.673 40.9809 228.327V233.345C40.9809 233.455 40.9809 233.564 40.9809 233.673C40.9809 233.782 40.9809 233.891 41.0899 234C41.0899 234.109 41.1989 234.218 41.3079 234.218C41.4169 234.327 41.5259 234.327 41.6348 234.327C41.7438 234.327 41.8528 234.327 42.0708 234.327V234.873C41.8528 234.873 41.7438 234.982 41.5259 234.982C41.3079 234.982 41.0899 234.982 40.8719 234.873C40.6539 234.764 40.6539 234.764 40.5449 234.655C40.4359 234.545 40.4359 234.436 40.4359 234.218C40.4359 234.109 40.4359 233.891 40.4359 233.673V233.236ZM40.4359 230.073C40.3269 230.291 40 230.4 39.673 230.509C39.346 230.618 39.019 230.618 38.5831 230.618L37.4932 230.727C37.1662 230.727 36.8392 230.836 36.5122 230.836C36.1853 230.945 35.9673 231.055 35.6403 231.164C35.4223 231.273 35.2043 231.491 34.9863 231.709C34.7684 231.927 34.8774 232.364 34.8774 232.691C34.8774 233.345 35.0953 233.782 35.5313 234.109C35.9673 234.436 36.5122 234.545 37.1662 234.545C37.9291 234.545 38.4741 234.436 38.9101 234.109C39.346 233.891 39.673 233.564 39.891 233.236C40.109 232.909 40.218 232.582 40.3269 232.255C40.4359 231.927 40.4359 231.709 40.4359 231.6V230.073Z" fill="white"/>
<path d="M49.0463 226.909H47.1935V232.909C47.1935 233.236 47.1935 233.564 47.3025 233.782C47.4115 234 47.5205 234.109 47.6294 234.218C47.7384 234.327 47.9564 234.436 48.1744 234.436C48.3924 234.436 48.7194 234.436 48.9374 234.436V234.982C48.6104 234.982 48.2834 234.982 47.9564 234.982C47.6294 234.982 47.4115 234.873 47.1935 234.764C46.9755 234.655 46.7575 234.436 46.6485 234.109C46.5395 233.782 46.4305 233.455 46.4305 232.909V226.909H44.7957V226.364H46.4305V223.636H47.0845V226.364H49.0463V226.909Z" fill="white"/>
<path d="M53.297 224.727V222.982H53.9509V224.727H53.297ZM53.297 234.982V226.364H53.9509V234.982H53.297Z" fill="white"/>
<path d="M62.0163 234.982H61.2534L57.7656 226.364H58.5286L61.6893 234.218L64.6321 226.364H65.2861L62.0163 234.982Z" fill="white"/>
<path d="M69.3188 230.727C69.3188 231.382 69.4278 231.818 69.5367 232.255C69.6457 232.691 69.8637 233.127 70.0817 233.455C70.2997 233.782 70.6267 234.109 71.0626 234.327C71.4986 234.545 71.9346 234.655 72.4795 234.655C73.3515 234.655 74.0054 234.436 74.5504 234C75.0953 233.564 75.4223 232.909 75.6403 232.145H76.2942C76.0763 233.127 75.7493 233.891 75.0953 234.436C74.4414 234.982 73.6784 235.2 72.5885 235.2C71.9346 235.2 71.3896 235.091 70.9536 234.873C70.5177 234.655 70.0817 234.327 69.7547 233.891C69.4278 233.455 69.2098 233.018 68.9918 232.473C68.8828 231.927 68.7738 231.382 68.7738 230.727C68.7738 230.073 68.8828 229.527 68.9918 228.982C69.1008 228.436 69.4278 227.891 69.7547 227.564C70.0817 227.127 70.5177 226.8 70.9536 226.582C71.3896 226.364 72.0436 226.255 72.6975 226.255C73.3515 226.255 73.7874 226.364 74.3324 226.582C74.7683 226.8 75.2043 227.127 75.5313 227.455C75.8583 227.891 76.0763 228.327 76.2942 228.764C76.5122 229.2 76.5122 229.855 76.5122 230.4C76.5122 230.509 76.5122 230.509 76.5122 230.618C76.5122 230.727 76.5122 230.727 76.5122 230.836H69.3188V230.727ZM75.6403 230.182C75.6403 229.745 75.5313 229.309 75.4223 228.873C75.3133 228.436 75.0953 228.109 74.8773 227.782C74.6594 227.455 74.3324 227.236 73.8964 227.018C73.5694 226.8 73.1335 226.691 72.5885 226.691C72.0436 226.691 71.6076 226.8 71.2806 227.018C70.8446 227.236 70.5177 227.455 70.2997 227.782C70.0817 228.109 69.8637 228.436 69.6457 228.873C69.5367 229.309 69.4278 229.745 69.4278 230.182H75.6403Z" fill="white"/>
<path d="M7.9564 208.691L11.1172 217.855L14.0599 208.691H18.2016V222H15.4768V212.618L12.2071 222H9.91826L6.6485 212.618V222H3.92371V208.691H7.9564Z" fill="white"/>
<path d="M19.2915 208.691H22.5613L25.722 213.927L28.7738 208.691H32.0435L27.1389 216.873V222H24.1961V216.873L19.2915 208.691Z" fill="white"/>
<path d="M40.3269 208.691C40.8719 208.691 41.4169 208.8 41.9618 209.018C42.3978 209.236 42.8337 209.455 43.1607 209.782C43.4877 210.109 43.8147 210.545 43.9237 210.982C44.0327 211.418 44.1417 211.855 44.1417 212.4C44.1417 213.164 43.9237 213.818 43.5967 214.473C43.2697 215.127 42.7248 215.455 41.9618 215.782C42.2888 215.891 42.6158 216 42.8338 216.218C43.0517 216.436 43.2697 216.655 43.3787 216.982C43.4877 217.309 43.5967 217.527 43.7057 217.855C43.8147 218.182 43.8147 218.509 43.8147 218.836C43.8147 219.055 43.8147 219.273 43.8147 219.6C43.8147 219.927 43.8147 220.145 43.9237 220.473C43.9237 220.8 44.0327 221.018 44.0327 221.345C44.1417 221.564 44.2506 221.891 44.3596 222H41.4169C41.3079 221.564 41.1989 221.127 41.0899 220.473C41.0899 219.927 40.9809 219.382 40.8719 218.836C40.7629 218.182 40.5449 217.636 40.2179 217.309C39.891 216.982 39.346 216.873 38.5831 216.873H35.6403V222.109H32.6975V208.8H40.3269V208.691ZM39.237 214.691C39.891 214.691 40.4359 214.582 40.7629 214.255C41.0899 213.927 41.3079 213.491 41.3079 212.836C41.3079 212.182 41.0899 211.745 40.7629 211.418C40.4359 211.091 39.891 210.982 39.237 210.982H36.0763V214.691H39.237Z" fill="white"/>
<path d="M49.4822 208.691V222H46.5394V208.691H49.4822Z" fill="white"/>
<path d="M58.7465 208.691L63.7602 222H60.7084L59.7275 219.055H54.7139L53.6239 222H50.6812L55.6948 208.691H58.7465ZM58.8555 216.873L57.2207 211.964L55.4768 216.873H58.8555Z" fill="white"/>
<path d="M70.5177 208.691C71.3896 208.691 72.1526 208.8 72.9155 209.127C73.6785 209.455 74.3324 209.782 74.8774 210.327C75.4223 210.873 75.8583 211.527 76.1853 212.4C76.5122 213.273 76.6212 214.145 76.6212 215.236C76.6212 216.218 76.5122 217.091 76.2943 217.964C76.0763 218.836 75.6403 219.491 75.2043 220.036C74.6594 220.582 74.1144 221.127 73.3515 221.455C72.5885 221.782 71.7166 222 70.7357 222H64.9591V208.691H70.5177ZM70.2997 219.491C70.7357 219.491 71.1716 219.382 71.4986 219.273C71.9346 219.164 72.2616 218.945 72.5885 218.618C72.9155 218.291 73.1335 217.855 73.3515 217.418C73.5695 216.982 73.6784 216.327 73.6784 215.564C73.6784 214.909 73.5695 214.255 73.4605 213.709C73.3515 213.164 73.1335 212.727 72.8065 212.291C72.4795 211.855 72.1526 211.636 71.6076 211.418C71.0626 211.2 70.5177 211.091 69.7547 211.091H67.6839V219.491H70.2997Z" fill="white"/>
<path d="M80 -1.30908H0V203.564H80V-1.30908Z" fill="#C31130"/>
<path d="M10.0272 80.4H28.5558L40 99.1637L51.4441 80.4H69.9727V138.545C69.5367 138 69.1008 137.564 68.6648 137.018C66.594 134.727 64.1962 132.764 61.5803 131.127C58.8556 129.491 55.8038 128.182 52.752 127.309L52.316 127.2V107.236L40.109 126.109H39.673L27.4659 107.236V128.836C23.1062 130.582 19.1825 133.2 15.8038 136.364C13.515 138.545 11.6621 141.055 10.0272 143.673V80.4Z" fill="white"/>
<path d="M65.5041 184.145C63.7602 186.109 61.6894 187.855 59.4005 189.382C56.8937 190.909 54.2779 192.109 51.4441 192.873C48.1744 193.745 44.7956 194.182 41.4169 194.182C37.2752 194.182 33.2425 193.418 29.4278 191.891C21.7984 188.945 15.8038 183.055 12.643 175.527C10.8992 171.491 10.0272 167.127 10.1362 162.764V162.545C10.1362 158.291 10.8992 154.036 12.643 150C14.1689 146.182 16.5668 142.8 19.5095 139.964C22.4523 137.127 25.9401 134.836 29.7548 133.309C33.7875 131.673 38.0381 130.909 42.3978 130.909C45.4496 130.909 48.6104 131.236 51.5531 132.109C54.2779 132.873 56.7847 133.964 59.1826 135.382C61.4714 136.691 63.4332 138.436 65.1771 140.4C66.921 142.364 68.4469 144.436 69.7548 146.727L53.079 156.436C51.9891 154.364 50.5722 152.618 48.8283 151.091C46.8665 149.673 44.5777 148.909 42.1798 149.018C40.545 149.018 39.0191 149.345 37.4932 150.109C36.0763 150.764 34.8774 151.745 34.0054 152.945C33.0245 154.255 32.2616 155.673 31.7166 157.2C31.1717 158.836 30.8447 160.582 30.8447 162.327V162.545C30.8447 164.4 31.0627 166.255 31.7166 168C32.2616 169.527 33.0245 170.945 34.1144 172.145C35.0954 173.345 36.2943 174.218 37.7112 174.873C39.1281 175.527 40.6539 175.855 42.2888 175.855C44.7956 175.964 47.1935 175.2 49.1553 173.782C51.0082 172.255 52.5341 170.4 53.624 168.327L70.1907 177.709C68.6649 180.109 67.139 182.182 65.5041 184.145Z" fill="white"/>
</g>
<defs>
<clipPath id="clip0">
<rect width="80" height="240" fill="white"/>
</clipPath>
</defs>
</svg>
