<svg xmlns="http://www.w3.org/2000/svg" width="60" height="60" viewBox="0 0 60 60" fill="none"><path d="M59.5477 24.3888C59.5478 24.3885 59.548 24.3882 59.5481 24.3879L51.8138 18.3648C51.8082 18.3606 51.8024 18.3572 51.7969 18.353V17.1094C51.7969 16.4623 51.2722 15.9375 50.625 15.9375C49.9778 15.9375 49.4531 16.4623 49.4531 17.1094V33.0079C49.4531 33.015 49.4541 33.0219 49.4542 33.0291L39.7575 42.7257L38.6347 41.7059C36.88 40.1116 34.7416 39.0489 32.45 38.6048L35.4927 35.5622C35.9503 35.1046 35.9503 34.3625 35.4927 33.9048L31.5564 29.9684L48.7107 22.6549C49.0688 22.5022 49.3277 22.1817 49.4017 21.7996C49.4756 21.4174 49.355 21.0234 49.0798 20.7482L43.4783 15.1466C43.9525 14.3728 44.2066 13.4817 44.2066 12.5512C44.2066 11.2207 43.6886 9.96996 42.7478 9.02906C41.807 8.08828 40.5561 7.5702 39.2256 7.5702C38.2951 7.5702 37.404 7.82438 36.6302 8.29852L31.0287 2.69695C30.7533 2.42156 30.3595 2.30062 29.977 2.37516C29.5948 2.44922 29.2744 2.70832 29.1218 3.06645L21.2244 21.6143L16.9738 25.8648C15.7794 27.0592 15.1215 28.6473 15.1215 30.3364C15.1215 32.0256 15.7794 33.6136 16.9738 34.808C18.1682 36.0023 19.7563 36.6602 21.4454 36.6602C23.1346 36.6602 24.7226 36.0025 25.917 34.808L26.3639 34.361L30.378 38.3752C30.2522 38.3715 30.1261 38.3689 29.9998 38.3689C26.8 38.3689 23.7334 39.5538 21.3649 41.7055L20.2421 42.7254L10.5455 33.0287C10.5456 33.0216 10.5465 33.0146 10.5465 33.0074V2.34375H23.67C24.3172 2.34375 24.8419 1.81898 24.8419 1.17188C24.8419 0.524766 24.3172 0 23.67 0H9.375C8.72777 0 8.20312 0.524766 8.20312 1.17188V18.1657C8.19305 18.1733 8.18238 18.1799 8.17254 18.1879L0.438164 24.3988C0.438281 24.399 0.438281 24.3991 0.438398 24.3994C0.171328 24.6142 0 24.9431 0 25.3125V54.0234C0 57.3189 2.68102 60 5.97656 60H54.0234C57.319 60 60 57.3189 60 54.0234V25.3125C60 24.9368 59.8226 24.6033 59.5477 24.3888ZM51.7969 21.3221L57.0614 25.4218L51.7969 30.6864V21.3221ZM39.2257 9.91418C39.9301 9.91418 40.5925 10.1885 41.0906 10.6867C41.5887 11.1847 41.863 11.847 41.863 12.5515C41.863 12.8421 41.8138 13.1246 41.7239 13.3924L38.3848 10.0532C38.6525 9.96328 38.9351 9.91418 39.2257 9.91418ZM30.5986 5.58152L35.7021 10.685C35.7026 10.6855 35.703 10.6861 35.7035 10.6867C35.704 10.6873 35.7046 10.6876 35.7052 10.6881L41.0905 16.0734C41.0905 16.0736 41.0906 16.0736 41.0906 16.0737C41.0906 16.0738 41.0907 16.0738 41.0909 16.0738L46.1963 21.1792L43.7084 22.2398L29.5389 8.07035L30.5986 5.58152ZM28.549 10.3952L41.3843 23.2305L29.7705 28.182L23.6021 22.0136L28.549 10.3952ZM24.2599 33.1509C23.5083 33.9027 22.5088 34.3167 21.4457 34.3167C20.3825 34.3167 19.383 33.9027 18.6313 33.1509C17.8795 32.3993 17.4655 31.3998 17.4655 30.3367C17.4655 29.2736 17.8795 28.2741 18.6313 27.5223L22.2138 23.9398L27.8422 29.5688L24.2599 33.1509ZM28.0214 32.704L29.4994 31.2261L33.0068 34.7336L31.5288 36.2114L28.0214 32.704ZM8.20312 21.1691V30.6865L2.92465 25.408L8.20312 21.1691ZM4.37473 57.1405C4.34156 57.1706 4.31098 57.2026 4.28203 57.2354C3.13043 56.6255 2.34375 55.4149 2.34375 54.0234V28.1418L18.5057 44.3036L4.37473 57.1405ZM7.29258 57.6562L11.1626 54.1406H19.7645C20.4117 54.1406 20.9364 53.6159 20.9364 52.9688C20.9364 52.3216 20.4117 51.7969 19.7645 51.7969H13.7426L22.9412 43.4405C26.9654 39.7848 33.0347 39.7848 37.0589 43.4405L52.7074 57.6562H7.29258ZM57.6562 54.0234C57.6562 55.4149 56.8696 56.6255 55.718 57.2354C55.689 57.2025 55.6584 57.1706 55.6253 57.1405L41.4945 44.3036L57.6562 28.1418V54.0234Z" fill="#C31130"></path></svg>