<svg xmlns="http://www.w3.org/2000/svg" width="78" height="60" viewBox="0 0 78 60" fill="none"><path d="M78 14.698C78 12.7508 77.2404 10.9202 75.8609 9.54301C73.0817 6.77022 68.6018 6.70574 65.7418 9.34803C64.1815 8.46392 62.1588 8.684 60.8302 10.0104C59.5035 11.335 59.2818 13.3506 60.1631 14.9073L48.7316 26.32V9.25008H56.0494C56.6806 9.25008 57.192 8.73951 57.192 8.1094C57.192 7.47928 56.6806 6.9687 56.0494 6.9687H48.7316V1.14069C48.7316 0.510573 48.2201 0 47.589 0C46.9578 0 46.4464 0.510573 46.4464 1.14069V6.9687H19.3501C18.7191 6.9687 18.2075 7.47928 18.2075 8.1094C18.2075 8.73951 18.7191 9.25008 19.3501 9.25008H24.3362L10.785 17.0536C10.7713 17.0615 10.7585 17.0705 10.745 17.0786V9.25008H14.7796C15.4106 9.25008 15.9222 8.73951 15.9222 8.1094C15.9222 7.47928 15.4106 6.9687 14.7796 6.9687H10.7451V1.14115C10.7451 0.511029 10.2335 0.000456606 9.60253 0.000456606C8.97152 0.000456606 8.45995 0.511029 8.45995 1.14115V6.9687H1.14258C0.51157 6.9687 0 7.47928 0 8.1094C0 8.73951 0.51157 9.25008 1.14258 9.25008H8.45995V50.7499H1.14258C0.51157 50.7499 0 51.2605 0 51.8906C0 52.5207 0.51157 53.0313 1.14258 53.0313H8.45995V58.8589C8.45995 59.489 8.97152 59.9995 9.60253 59.9995C10.2335 59.9995 10.7451 59.489 10.7451 58.8589V53.0313H39.1292C39.7602 53.0313 40.2718 52.5207 40.2718 51.8906C40.2718 51.2605 39.7603 50.7499 39.1292 50.7499H32.8558L37.6748 47.9742C38.1702 48.397 38.7844 48.622 39.416 48.622C39.722 48.622 40.0315 48.5697 40.3333 48.4623L46.4464 46.2877V50.7499H43.6995C43.0683 50.7499 42.5569 51.2605 42.5569 51.8906C42.5569 52.5207 43.0683 53.0313 43.6995 53.0313H46.4464V58.8593C46.4464 59.4894 46.9578 60 47.589 60C48.2201 60 48.7316 59.4894 48.7316 58.8593V53.0313H56.0494C56.6806 53.0313 57.192 52.5207 57.192 51.8906C57.192 51.2605 56.6806 50.7499 56.0494 50.7499H48.7316V45.4748L50.7641 44.7517C50.7646 44.7516 50.765 44.7513 50.7657 44.7511C50.8027 44.7379 50.8389 44.7225 50.8743 44.7056C50.8827 44.7015 50.8909 44.697 50.8991 44.6927C50.9249 44.6796 50.9501 44.6656 50.9748 44.6506C50.9858 44.644 50.9965 44.6372 51.0071 44.6302C51.0303 44.615 51.0527 44.599 51.0746 44.5821C51.0833 44.5754 51.0923 44.5692 51.101 44.5622C51.1304 44.5383 51.1589 44.5131 51.1858 44.4863C51.1867 44.4854 51.1876 44.4848 51.1886 44.4839L70.4885 25.2158C71.1109 25.567 71.8062 25.7436 72.5018 25.7436C73.549 25.7436 74.5963 25.3457 75.3935 24.5496C76.7221 23.2231 76.9426 21.2038 76.057 19.646C77.3114 18.2958 78 16.5502 78 14.698ZM74.2453 11.1564C75.1931 12.1024 75.7148 13.3601 75.7148 14.6979C75.7148 15.8909 75.2989 17.0191 74.5368 17.9201L67.4709 10.8659C69.4398 9.21191 72.3928 9.30788 74.2453 11.1564ZM43.8776 44.7795L40.567 41.4744L42.5158 36.0139C43.5238 35.9094 44.2397 36.0406 44.6027 36.4029C45.0391 36.8385 45.1422 37.7813 44.901 39.129C44.8998 39.1354 44.8998 39.1418 44.8988 39.1483C44.8934 39.1818 44.8893 39.2156 44.8869 39.2493C44.886 39.2629 44.8853 39.2764 44.8849 39.2899C44.8838 39.3196 44.8841 39.3492 44.8853 39.3789C44.9164 40.0829 45.5616 40.5716 46.2264 40.4525C47.577 40.2116 48.5212 40.3149 48.9573 40.7505C49.3204 41.1131 49.4519 41.8277 49.3472 42.8338L43.8776 44.7795ZM50.5734 39.1374C50.106 38.6708 49.5078 38.3541 48.7861 38.1874L58.9764 28.014C59.4226 27.5684 59.4226 26.8462 58.9764 26.4007C58.53 25.9554 57.8067 25.9554 57.3605 26.4007L47.1705 36.5739C47.0035 35.853 46.6864 35.2566 46.2188 34.7898C45.7511 34.3231 45.1523 34.0078 44.43 33.8412L61.6733 16.6262L64.4122 19.3606L61.0908 22.6765C60.6445 23.1221 60.6445 23.8442 61.0908 24.2897C61.5373 24.7352 62.2605 24.735 62.7067 24.2897L66.0281 20.9738L68.7669 23.7081L51.5234 40.9231C51.3566 40.202 51.0409 39.6042 50.5734 39.1374ZM46.4464 9.25008V17.0866C46.4357 17.0804 46.4257 17.0732 46.4149 17.067L32.8654 9.25008H46.4464ZM10.7494 21.0616C10.7504 20.227 11.2026 19.448 11.9282 19.0291L27.4292 10.1029C28.154 9.68537 29.0541 9.68598 29.7783 10.1041L45.2712 19.0422C45.9962 19.4609 46.4466 20.24 46.4466 21.0754V28.6015L41.4089 33.6309V25.2914C41.4095 23.6429 40.5228 22.1069 39.0948 21.2828L30.9191 16.5665C29.4901 15.7417 27.7138 15.7412 26.2839 16.5645L18.1045 21.2749C16.6736 22.099 15.7843 23.6342 15.7836 25.282V34.7086C15.783 36.3571 16.6696 37.8931 18.0977 38.717L26.2734 43.4335C26.9885 43.8463 27.7904 44.0525 28.5925 44.0525C29.3932 44.0525 30.1942 43.8466 30.9086 43.4354L39.0879 38.7251C39.1031 38.7164 39.1173 38.7064 39.1324 38.6975L36.8786 45.0127C36.7756 45.3014 36.7247 45.5972 36.7205 45.8903L29.7646 49.8967C29.0385 50.314 28.1376 50.3142 27.4133 49.8959L11.9201 40.9579C11.197 40.5403 10.7485 39.7619 10.7494 38.9248V21.0616ZM39.1236 25.2909V34.7176C39.1232 35.5524 38.672 36.3307 37.9459 36.7488L29.7666 41.4592C29.0416 41.8766 28.1412 41.8764 27.4167 41.4582L19.241 36.7416C18.5174 36.3241 18.0683 35.5454 18.0686 34.7089V25.2823C18.0689 24.4474 18.5201 23.6692 19.2462 23.2511L27.4255 18.5406C27.7878 18.3321 28.1936 18.2278 28.5998 18.2278C29.0064 18.2278 29.413 18.3324 29.7756 18.5415L37.9513 23.2579C38.6746 23.6756 39.1239 24.4543 39.1236 25.2909ZM10.7451 50.7499V42.9137C10.7558 42.9199 10.7657 42.9269 10.7763 42.9331L24.3256 50.7501H10.7451V50.7499ZM39.5664 46.3132C39.3498 46.3902 39.1993 46.2848 39.1292 46.215C39.0593 46.145 38.9534 45.9955 39.0308 45.7786L39.7178 43.8533L41.4946 45.6271L39.5664 46.3132ZM73.7776 22.9365C73.0743 23.6391 71.9293 23.6391 71.2259 22.9365L71.1908 22.9016L62.4814 14.2065L62.4463 14.1715C61.7428 13.4691 61.7428 12.3263 62.4463 11.6239C62.7981 11.2726 63.2601 11.0971 63.7222 11.0971C64.1842 11.0971 64.6463 11.2726 64.9981 11.6239L73.7778 20.3892C74.4812 21.0914 74.4812 22.234 73.7776 22.9365Z" fill="#C31130"></path></svg>